<mxfile host="app.diagrams.net" modified="2023-11-13T09:28:06.521Z" agent="Mozilla/5.0 (Macintosh; Intel Mac OS X 10_15_7) AppleWebKit/537.36 (KHTML, like Gecko) Chrome/119.0.0.0 Safari/537.36" etag="zlnAeFHHTKfxoOeXes3Z" version="22.1.0" type="github">
  <diagram name="第 1 页" id="b-fnQxWHQPpzlU27791m">
    <mxGraphModel dx="1272" dy="1992" grid="1" gridSize="10" guides="1" tooltips="1" connect="1" arrows="1" fold="1" page="1" pageScale="1" pageWidth="827" pageHeight="1169" math="0" shadow="0">
      <root>
        <mxCell id="0" />
        <mxCell id="1" parent="0" />
        <mxCell id="TmRpnefOOpCRg7lk4vBC-8" value="" style="rounded=0;whiteSpace=wrap;html=1;" parent="1" vertex="1">
          <mxGeometry x="880" y="-200" width="300" height="240" as="geometry" />
        </mxCell>
        <mxCell id="TmRpnefOOpCRg7lk4vBC-1" value="" style="rounded=0;whiteSpace=wrap;html=1;" parent="1" vertex="1">
          <mxGeometry x="250" y="-200" width="430" height="240" as="geometry" />
        </mxCell>
        <mxCell id="JUDbLiN2Od7CmGKuxI0P-16" value="" style="shape=image;verticalLabelPosition=bottom;labelBackgroundColor=default;verticalAlign=top;aspect=fixed;imageAspect=0;image=data:image/png,iVBORw0KGgoAAAANSUhEUgAABLAAAASwCAYAAADrIbPPAAAAAXNSR0IArs4c6QAAIABJREFUeF7s3QnctulcN/DfO2PGOhhrDSMpWbLLvoUKicrSO+KlbGUL2VokImRfki2JsmUrJGuihMkuO1F5DYYMhjFmez+Hzul9jOe5r/O6juu8rvM6ju/1+czHcB/HcR7/7/90P/f9e87lf8WHAAECBAgQIECAAAECBAgQIECAwIwF/teM92ZrBAgQIECAAAECBAgQIECAAAECBCLAchIQIECAAAECBAgQIECAAAECBAjMWkCANev22BwBAgQIECBAgAABAgQIECBAgIAAyzlAgAABAgQIECBAgAABAgQIECAwawEB1qzbY3MECBAgQIAAAQIECBAgQIAAAQICLOcAAQIECBAgQIAAAQIECBAgQIDArAUEWLNuj80RIECAAAECBAgQIECAAAECBAgIsJwDBAgQIECAAAECBAgQIECAAAECsxYQYM26PTZHgAABAgQIECBAgAABAgQIECAgwHIOECBAgAABAgQIECBAgAABAgQIzFpAgDXr9tgcAQIECBAgQIAAAQIECBAgQICAAMs5QIAAAQIECBAgQIAAAQIECBAgMGsBAdas22NzBAgQIECAAAECBAgQIECAAAECAiznAAECBAgQIECAAAECBAgQIECAwKwFBFizbo/NESBAgAABAgQIECBAgAABAgQICLCcAwQIECBAgAABAgQIECBAgAABArMWEGDNuj02R4AAAQIECBAgQIAAAQIECBAgIMByDhAgQIAAAQIECBAgQIAAAQIECMxaQIA16/bYHAECBAgQIECAAAECBAgQIECAgADLOUCAAAECBAgQIECAAAECBAgQIDBrAQHWrNtjcwQIECBAgAABAgQIECBAgAABAgIs50ArAgcnOW+SCyQ5dJ+iyv92qSQXTHK+JOc+w9dbqV8dBAgQIECAAAECBAj0JXBqkv9K8vUkX0zykSTHJDltYDgpybHDP6f0RaPaFgUEWC12tY+ayrl74SQ/OYRSZ0lyjeG/H94HgSoJECBAgAABAgQIECBwQIGvJXl7krcmOSHJN4Z//+w+IRc+AjsjIMDamVbZ6CBw/iT3S3LR4aqqKyc5jA4BAgQIECBAgAABAgQI7CnwrSTvSfL5JF9K8oQkJczyIbATAgKsnWhT95s8KMkNkzwyyYWGWwEP6V4FAAECBAgQIECAAAECBFYTODnJV4Z/Hpbk5UncZriapVkbEhBgbQjaYZYWKLcEnifJLZI8denZJhAgQIAAAQIECBAgQIDAMgIPT/LM4bla5ZZDHwKzEhBgzaodNjMIXC/JzyS5S5Jyy6APAQIECBAgQIAAAQIECEwvUJ6b9Zwkb0zyuukP5wgExgsIsMZbGTm9wDWTHJXk5kl+aPrDOQIBAgQIECBAgAABAgQI7Efgy0lelOT1Sf6WEIE5CAiw5tAFeygPYS8PZr/j8GZB56VzggABAgQIECBAgAABAtsX+EKSFw/PIz52+9uxg54FBAU9d3/7tR88POfqk0nOtcbtnJakPJSwPITw1DWuaykCBAgQIECAAAECBAjMWaD8jn+mJOV3rfIyrHV9yu9WP5zkmOF3rXWtax0CowUEWKOpDFyzwMWT/O8k5UGBtZ8SWJUQ7HNDaFW+qb45yVuS/Gft4uYTIECAAAECBAgQIEBgRwSOSHKd4ZnCRyYpv/OX/+2Sawq0ykPen5TkYzviYZsNCQiwGmrmjpRS/hbgykmemOQaFd9EyxVW707yD0m+neQNw38/aUccbJMAAQIECBAgQIAAAQJTC5Tf+a+Y5GeTnDXJVYeA68wVBz46yYOS/JOrsSoUTV1aQIC1NJkJlQK/Onyzu8SK65RLV/9g+GZZrrj6N980V5Q0jQABAgQIECBAgACBngTKbYXlqqyLJrlMkscmOcuKAOX3sPJsrN9dcb5pBJYWEGAtTWZChcArktxsuCd72WW+muQ+SV6W5MThVsFl1zCeAAECBAgQIECAAAECBP77+VjlKqwbJXnacJvhsi7l4oIPJrnSshONJ7CKgABrFTVzlhW4QJLnJrnJcA/22PnldsByb/WrJftjyYwjQIAAAQIECBAgQIDA0gL3Ht4KX55VXG41XObzxiS3S/KlZSYZS2BZAQHWsmLGLytwwSHRv+WSEz80BFePTvKNJecaToAAAQIECBAgQIAAAQLLCZw9yT2T/NLw3Kxl8oK/TvIbXqK1HLjRywksc0Iut7LRBP77stTXJfnpJTGemuR5Sd6X5NQl5xpOgAABAgQIECBAgAABAqsLXH549Muyb4wvb4Evj4z55uqHNpPAgQUEWM6OKQU+leRHljhAuWXwUkmOSfKtJeYZSoAAAQIECBAgQIAAAQLrEzh0eOD7e5Occ4llP5OkvLDL2+GXQDN0nIAAa5yTUcsJnCvJ3ya51shp5aHsb0tyjySfHDnHMAIECBAgQIAAAQIECBCYVuCIJOWxLrde4o2F70hy0yTlRVw+BNYmIMBaG6WFBoHzJXliktuOfGD7yUkeOcw5jiIBAgQIECBAgAABAgQIzErgkCQPSPKQ4c2FYzb38uF5Wl8YM9gYAmMEBFhjlIwZK3CmJPcbvrGdbcSkEl6VhwQ+c8RYQwgQIECAAAECBAgQIEBgewJ3Gi48OGzEFsqzjJ+e5L5uJxyhZcgoAQHWKCaDRgqUV66+K8nhI8aXNwveIckrR4w1hAABAgQIECBAgAABAgS2L/CzSZ6V5EIjtnJCklslee2IsYYQWCggwFpIZMBIgbMu8eD1rye5W5IXjlzbMAIECBAgQIAAAQIECBCYh8DPJXnGyBCr7PjcSb42j63bxS4LCLB2uXvz2ft5kvx9kvK61UWfEl79TpKnLRro6wQIECBAgAABAgQIECAwS4HbDLcTXnDE7j6R5IZJPjdirCEEDiggwHJy1AqUc6g8x+oPk4y5F/ruw73Qtcc1nwABAgQIECBAgAABAgS2J1AeCVNuJzx0wRbKW+cfn+Shnoe1vWa1cGQBVgtd3G4NN0jy50mOHLGNo5K8ZMQ4QwgQIECAAAECBAgQIEBg/gLlGVcvHbHNY4ZnIL9xxFhDCOxXQIDlxKgRKM+9etjwStVF65TXrj5Z4r6IydcJECBAgAABAgQIECCwMwIlU7j9cFHDok2/egixvrpooK8T2J+AAMt5USNwrST/tGCB05L8Y5K7Jvl4zcHMJUCAAAECBAgQIECAAIHZCVxguFjhl5IctGB3N0nyutlVYEM7ISDA2ok2zXaT701yxQW7+0KSX0vyqtlWYWMECBAgQIAAAQIECBAgUCPwU8NVWBdasMhxScqD379TczBz+xQQYPXZ93VUfd8kTxixUHnj4KNGjDOEAAECBAgQIECAAAECBHZX4JeTvGDE9v8kyT1GjDOEwPcICLCcEKsK/FuSH14w+YQk501S/tOHAAECBAgQIECAAAECBNoVODjJJ5JcbEGJn09y8STfapdCZVMICLCmUG1/zT9Mcv8Fr0s9KcnhSb7ZPocKCRAgQIAAAQIECBAgQCDJmZN8JcnZ99Aoz0l+YZLbESOwjIAAaxktY4vAeYbLQm+8gON5Se6U5BRsBAgQIECAAAECBAgQINCFQHmIe3lT/YMXVFte9FXeXvjZLlQUuRYBAdZaGLtapLxZotyzXG4NPNDnmCS/kOTormQUS4AAAQIECBAgQIAAAQI/nuRFSS67B8W3k9wryZ/iIjBWQIA1Vsq4IlAuBy0PZX/IAo4nDuPKNyUfAgQIECBAgAABAgQIEOhH4JDhKqzfXlDys5M8MEl5M6EPgYUCAqyFRAbsI3D5JG9fcD/zl5L8RpKXkCNAgAABAgQIECBAgACBLgWukeS5SS6xoPqrJHl3l0KKXlpAgLU0WdcTbpDkzQsEXpvkpl0rKZ4AAQIECBAgQIAAAQIEXpbkFkn2yh1umeQVqAiMERBgjVEy5nSBv0ly8z04vpPkbkn+DBkBAgQIECBAgAABAgQIdC3wU0leneQseyi8L8mVulZS/GgBAdZoKgOHNwqWt0oc6PPN4eHuJ9IiQIAAAQIECBAgQIAAge4FvpHkHAsU5BLdnybjAJwo45yMSi6W5NMLIN6SpNxm6EOAAAECBAgQIECAAAECBP5oeFD7XhLlDfblbh8fAnsKCLCcIGMFFt0+WNY5LMnxYxc0jgABAgQIECBAgAABAgSaFzhtQYVfTnL+5hUUWC0gwKom7GaBExbcu/ytBW8n7AZKoQQIECBAgAABAgQIECDwPwKfS3KhPTy+neSsvAgsEhBgLRLy9SJQrqw6NsmZ9+B4YZLb4iJAgAABAgQIECBAgAABAvsI3CvJU/YQKS8Du0yST1IjsJeAAMv5MUbgpklemeSQPQZfI8k7xyxmDAECBAgQIECAAAECBAh0I3DFJO/do9pTkzwyye91I6LQlQQEWCuxdTfpJUlunWSv8+UKST7QnYyCCRAgQIAAAQIECBAgQGAvgcsleU+SM+0x6M1Jfgojgb0EBFjOjzECb0pywz0G/leSayf56JjFjCFAgAABAgQIECBAgACBbgQumuQVScqVWAf6CLC6OR1WL1SAtbpdTzMXBVh/l+SOSb7QE4paCRAgQIAAAQIECBAgQGChwNmTPCzJ/fYY+ZYkP53klIWrGdCtgACr29aPLvzgJG9Mcv09ZjwgyRN9sxltaiABAgQIECBAgAABAgR6ESi5w92T/PEeBR+d5BeSHNMLijqXFxBgLW/W24wjhge4X3WPwu+R5E96g1EvAQIECBAgQIAAAQIECIwSKAHW0/YY+bEktxuelTVqQYP6ExBg9dfzZSsu9ym/IMmlBFjL0hlPgAABAgQIECBAgAABAsMVWHsFWF9M8htJ/ooWgQMJCLCcG4sEbpLkmUmOFGAtovJ1AgQIECBAgAABAgQIENiPwKIrsE5I8rvDo2kAEtivgADLibFI4KgkT05yAQHWIipfJ0CAAAECBAgQIECAAIH9CJSXfj09yaEH0DlteNB7edi7DwEBlnNgJYF7JXlUkvLmiAN9PANrJVqTCBAgQIAAAQIECBAg0IXAbZI8I8k596j2D5L8fhcailxJwBVYK7F1Nanch1wCrLMJsLrqu2IJECBAgAABAgQIECCwLoFfGgKswwVY6yLtbx0BVn89X7ZiAdayYsYTIECAAAECBAgQIECAwL4CAiznQ7WAAKuasPkFBFjNt1iBBAgQIECAAAECBAgQmFRAgDUpbx+LC7D66HNNlQKsGj1zCRAgQIAAAQIECBAgQECA5RyoFhBgVRM2v4AAq/kWK5AAAQIECBAgQIAAAQKTCgiwJuXtY3EBVh99rqlSgFWjZy4BAgQIECBAgAABAgQICLCcA9UCAqxqwuYXEGA132IFEiBAgAABAgQIECBAYFIBAdakvH0sLsDqo881VQqwavTMJUCAAAECBAgQIECAAAEBlnOgWkCAVU3Y/AICrOZbrEACBAgQIECAAAECBAhMKiDAmpS3j8UFWH30uaZKAVaNnrkECBAgQIAAAQIECBAgIMByDlQLCLCqCZtfQIDVfIsVSIAAAQIECBAgQIAAgUkFBFiT8vaxuACrjz7XVCnAqtEzlwABAgQIECBAgAABAgQEWM6BagEBVjVh8wsIsJpvsQIJECBAgAABAgQIECAwqYAAa1LePhYXYPXR55oqBVg1euYSIECAAAECBAgQIECAgADLOVAtIMCqJmx+AQFW8y1WIAECBAgQIECAAAECBCYVEGBNytvH4gKsPvpcU6UAq0bPXAIECBAgQIAAAQIECBAQYDkHqgUEWNWEzS8gwGq+xQokQIAAAQIECBAgQIDApAICrEl5+1hcgNVHn2uqFGDV6JlLgAABAgQIECBAgAABAgIs50C1gACrmrD5BQRYzbdYgQQIECBAgAABAgQIEJhUQIA1KW8fiwuw+uhzTZUCrBo9cwkQIECAAAECBAgQIEBAgOUcqBYQYFUTNr+AAKv5FiuQAAECBAgQIECAAAECkwoIsCbl7WNxAVYffa6pUoBVo2cuAQIECBAgQIAAAQIECAiwnAPVAgKsasLmFxBgNd9iBRIgQIAAAQIECBAgQGBSAQHWpLx9LC7A6qPPNVUKsGr0zCVAgAABAgQIECBAgAABAZZzoFpAgFVN2PwCAqzmW6xAAgQIECBAgAABAgQITCogwJqUt4/FBVh99LmmSgFWjZ65BAgQIECAAAECBAgQICDAcg5UCwiwqgmbX0CA1XyLFUiAAAECBAgQIECAAIFJBQRYk/L2sbgAq48+11QpwKrRM5cAAQIECBAgQIAAAQIEBFjOgWoBAVY1YfMLCLCab7ECCRAgQIAAAQIECBAgMKmAAGtS3j4WF2D10eeaKgVYNXrmEiBAgAABAgQIECBAgIAAyzlQLSDAqiZsfgEBVvMtViABAgQIECBAgAABAgQmFRBgTcrbx+ICrD76XFOlAKtGz1wCBAgQIECAAAECBAgQEGA5B6oFBFjVhM0vIMBqvsUKJECAAAECBAgQIECAwKQCAqxJeftYXIDVR59rqhRg1eiZS4AAAQIECBAgQIAAAQICLOdAtYAAq5qw+QUEWM23WIEECBAgQIAAAQIECBCYVECANSlvH4sLsProc02VAqwaPXMJECBAgAABAgQIECBAQIDlHKgWEGBVEza/gACr+RYrkAABAgQIECBAgAABApMKCLAm5e1jcQFWH32uqVKAVaNnLgECBAgQIECAAAECBAgIsJwD1QICrGrC5hcQYDXfYgUSIECAAAECBAgQIEBgUgEB1qS8fSwuwOqjzzVVCrBq9MwlQIAAAQIECBAgQIAAAQGWc6BaQIBVTdj8AgKs5lusQAIECBAgQIAAAQIECEwqIMCalLePxQVYffS5pkoBVo2euQQIECBAgAABAgQIECAgwHIOVAsIsKoJm19AgNV8ixVIgAABAgQIECBAgACBSQUEWJPy9rG4AKuPPtdUKcCq0TOXAAECBAgQIECAAAECBARYzoFqAQFWNWHzCwiwmm+xAgkQIECAAAECBAgQIDCpgABrUt4+Fhdg9dHnmioFWDV65hIgQIAAAQIECBAgQICAAMs5UC0gwKombH4BAVbzLVYgAQIECBAgQIAAAQIEJhUQYE3K28fiAqw++lxTpQCrRs9cAgQIECBAgAABAgQIEBBgOQeqBQRY1YTNLyDAar7FCiRAgAABAgQIECBAgMCkAgKsSXn7WFyA1Uefa6oUYNXomUuAAAECBAgQIECAAAECAiznQLWAAKuasPkFBFjNt1iBBAgQIECAAAECBAgQmFRAgDUpbx+LC7D66HNNlQKsGj1zCRAgQIAAAQIECBAgQECA5RyoFhBgVRM2v4AAq/kWK5AAAQIECBAgQIAAAQKTCgiwJuXtY3EBVh99rqlSgFWjZy4BAgQIECBAgAABAgQICLCcA9UCAqxqwuYXEGA132IFEiBAgAABAgQIECBAYFIBAdakvH0sLsDqo881VQqwavTMJUCAAAECBAgQIECAAAEBlnOgWkCAVU3Y/AICrOZbrEACBAgQIECAAAECBAhMKiDAmpS3j8UFWH30uaZKAVaNnrkECBAgQIAAAQIECBAgIMByDlQLCLCqCZtfQIDVfIsVSIAAAQIECBAgQIAAgUkFBFiT8vaxuACrjz7XVCnAqtEzlwABAgQIECBAgAABAgQEWM6BagEBVjVh8wsIsJpvsQIJECBAgAABAgQIECAwqYAAa1LePhYXYPXR55oqBVg1euYSIECAAAECBAgQIECAgADLOVAtIMCqJmx+AQFW8y1WIAECBAgQIECAAAECBCYVEGBNytvH4gKsPvpcU6UAq0bPXAIECBAgQIAAAQIECBAQYDkHqgUEWNWEzS8gwGq+xQokQIAAAQIECBAgQIDApAICrEl5+1hcgNVHn2uqFGDV6JlLgAABAgQIECBAgAABAgIs50C1gACrmrD5BQRYzbdYgQQIECBAgAABAgQIEJhUQIA1KW8fiwuw+uhzTZUCrBo9cwkQIECAAAECBAgQIEBAgOUcqBYQYFUTNr+AAKv5FiuQAAECBAgQIECAAAECkwoIsCbl7WNxAVYffa6pUoBVo2cuAQIECBAgQIAAAQIECAiwnAPVAgKsasLmFxBgNd9iBRIgQIAAAQIECBAgQGBSAQHWpLx9LC7A6qPPNVUKsGr0zCVAgAABAgQIECBAgAABAZZzoFpAgFVN2PwCAqzmW6xAAgQIECBAgAABAgQITCogwJqUt4/FBVh99LmmSgFWjZ65BAgQIECAAAECBAgQICDAcg5UCwiwqgmbX0CA1XyLFUiAAAECBAgQIECAAIFJBQRYk/L2sbgAq48+11QpwKrRM5cAAQIECBAgQIAAAQIEBFjOgWoBAVY1YfMLCLCab7ECCRAgQIAAAQIECBAgMKmAAGtS3j4WF2D10eeaKgVYNXrmEiBAgAABAgQIECBAgIAAyzlQLSDAqiZsfgEBVvMtViABAgQIECBAgAABAgQmFRBgTcrbx+ICrD76XFOlAKtGz1wCBAgQIECAAAECBAgQEGA5B6oFBFjVhM0vIMBqvsUKJECAAAECBAgQIECAwKQCAqxJeftYXIDVR59rqhRg1eiZS4AAAQIECBAgQIAAAQICLOdAtYAAq5qw+QUEWM23WIEECBAgQIAAAQIECBCYVECANSlvH4sLsProc02VAqwaPXMJECBAgAABAgQIECBAQIDlHKgWEGBVEza/gACr+RYrkAABAgQIECBAgAABApMKCLAm5e1jcQFWH32uqVKAVaNnLgECBAgQIECAAAECBAgIsJwD1QICrGrC5hcQYDXfYgUSIECAAAECBAgQIEBgUgEB1qS8fSwuwOqjzzVVCrBq9MwlQIAAAQIECBAgQIAAAQGWc6BaQIBVTdj8AgKs5lusQAIECBAgQIAAAQIECEwqIMCalLePxQVYffS5pkoBVo2euQQIECBAgAABAgQIECAgwHIOVAsIsKoJm19AgNV8ixVIgAABAgQIECBAgACBSQUEWJPy9rG4AKuPPtdUKcCq0TOXAAECBAgQIECAAAECBARYzoFqAQFWNWHzCwiwmm+xAgkQIECAAAECBAgQIDCpgABrUt4+Fhdg9dHnmioFWDV65hIgQIAAAQIECBAgQICAAMs5UC0gwKombH4BAVbzLVYgAQIECBAgQIAAAQIEJhUQYE3K28fiAqw++lxTpQCrRs9cAgQIECBAgAABAgQIEBBgOQeqBQRY1YTNLyDAar7FCiRAgAABAgQIECBAgMCkAgKsSXn7WFyA1Uefa6oUYNXomUuAAAECBAgQIECAAAECAiznQLWAAKuasPkFBFjNt1iBBAgQIECAAAECBAgQmFRAgDUpbx+LC7D66HNNlQKsGj1zCRAgQIAAAQIECBAgQECA5RyoFhBgVRM2v4AAq/kWK5AAAQIECBAgQIAAAQKTCgiwJuXtY3EBVh99rqlSgFWjZy4BAgQIECBAgAABAgQICLCcA9UCAqxqwuYXEGA132IFEiBAgAABAgQIECBAYFIBAdakvH0sLsDqo881VQqwavTMJUCAAAECBAgQIECAAAEBlnOgWkCAVU3Y/AICrOZbrEACBAgQIECAAAECBAhMKiDAmpS3j8UFWH30uaZKAVaNnrkECBAgQIAAAQIECBAgIMByDlQLCLCqCZtfQIDVfIsVSIAAAQIECBAgQIAAgUkFBFiT8vaxuACrjz7XVCnAqtEzlwABAgQIECBAgAABAgQEWM6BagEBVjVh8wsIsJpvsQIJECBAgAABAgQIECAwqYAAa1LePhYXYPXR55oqBVg1euYSIECAAAECBAgQIECAgADLOVAtIMCqJmx+AQFW8y1WIAECBAgQIECAAAECBCYVEGBNytvH4gKsPvpcU6UAq0bPXAIECBAgQIAAAQIECBAQYDkHqgUEWNWEzS8gwGq+xQokQIAAAQIECBAgQIDApAICrEl5+1hcgNVHn2uqFGDV6JlLgAABAgQIECBAgAABAgIs50C1gACrmrD5BQRYzbdYgQQIECBAgAABAgQIEJhUQIA1KW8fiwuw+uhzTZUCrBo9cwkQIECAAAECBAgQIEBAgOUcqBYQYFUTNr+AAKv5FiuQAAECBAgQIECAAAECkwoIsCbl7WNxAVYffa6pUoBVo2cuAQIECBAgQIAAAQIECAiwnAPVAgKsasLmFxBgNd9iBRIgQIAAAQIECBAgQGBSAQHWpLx9LC7A6qPPNVUKsGr0zCVAgAABAgQIECBAgAABAZZzoFpAgFVN2PwCAqzmW6xAAgQIECBAgAABAgQITCogwJqUt4/FBVh99LmmSgFWjZ65BAgQIECAAAECBAgQICDAcg5UCwiwqgmbX0CA1XyLFUiAAAECBAgQIECAAIFJBQRYk/L2sbgAq48+11QpwKrRM5cAAQIECBAgQIAAAQIEBFjOgWoBAVY1YfMLCLCab7ECCRAgQIAAAQIECBAgMKmAAGtS3j4WF2D10eeaKgVYNXrmEiBAgAABAgQIECBAgIAAyzlQLSDAqiZsfgEBVvMtViABAgQIECBAgAABAgQmFRBgTcrbx+ICrD76XFOlAKtGz1wCBAgQIECAAAECBAgQEGA5B6oFBFjVhM0vIMBqvsUKJECAAAECBAgQIECAwKQCAqxJeftYXIDVR59rqhRg1eiZS4AAAQIECBAgQIAAAQICLOdAtYAAq5qw+QUEWM23WIEECBAgQIAAAQIECBCYVECANSlvH4sLsProc02VAqwaPXMJECBAgAABAgQIECBAQIDlHKgWEGBVEza/gACr+RYrkAABAgQIECBAgAABApMKCLAm5e1jcQFWH32uqVKAVaNnLgECBAgQIECAAAECBAgIsJwD1QICrGrC5hcQYDXfYgUSIECAAAECBAgQIEBgUgEB1qS8fSwuwOqjzzVVCrBq9MwlQIAAAQIECBAgQIAAAQGWc6BaQICEwOcsAAAgAElEQVRVTdj8AgKs5lusQAIECBAgQIAAAQIECEwqIMCalLePxQVYffS5pkoBVo2euQQIECBAgAABAgQIECAgwHIOVAsIsKoJm19AgNV8ixVIgAABAgQIECBAgACBSQUEWJPy9rG4AKuPPtdUKcCq0TOXAAECBAgQIECAAAECBARYzoFqAQFWNWHzCwiwmm+xAgkQIECAAAECBAgQIDCpgABrUt4+Fhdg9dHnmioFWDV65hIgQIAAAQIECBAgQICAAMs5UC0gwKombH4BAVbzLVYgAQIECBAgQIAAAQIEJhUQYE3K28fiAqw++lxTpQCrRs9cAgQIECBAgAABAgQIEBBgOQeqBQRY1YTNLyDAar7FCiRAgAABAgQIECBAgMCkAgKsSXn7WFyA1Uefa6oUYNXomUuAAAECBAgQIECAAAECAiznQLWAAKuasPkFBFjNt1iBBAgQIECAAAECBAgQmFRAgDUpbx+LC7D66HNNlQKsGj1zCRAgQIAAAQIECBAgQECA5RyoFhBgVRM2v4AAq/kWK5AAAQIECBAgQIAAAQKTCgiwJuXtY3EBVh99rqlSgFWjZy4BAgQIECBAgAABAgQICLCcA9UCAqxqwuYXEGA132IFEiBAgAABAgQIECBAYFIBAdakvH0sLsDqo881VQqwavTMJUCAAAECBAgQIECAAAEBlnOgWkCAVU3Y/AICrOZbrEACBAgQIECAAAECBAhMKiDAmpS3j8UFWH30uaZKAVaNnrkECBAgQIAAAQIECBAgIMByDlQLCLCqCZtfQIDVfIsVSIAAAQIECBAgQIAAgUkFBFiT8vaxuACrjz7XVCnAqtEzlwABAgQIECBAgAABAgQEWM6BagEBVjVh8wsIsJpvsQIJECBAgAABAgQIECAwqYAAa1LePhYXYPXR55oqBVg1euYSIECAAAECBAgQIECAgADLOVAtIMCqJmx+AQFW8y1WIAECBAgQIECAAAECBCYVEGBNytvH4gKsPvpcU6UAq0bPXAIECBAgQIAAAQIECBAQYDkHqgUEWNWEzS8gwGq+xQokQIAAAQIECBAgQIDApAICrEl5+1hcgNVHn2uqFGDV6JlLgAABAgQIECBAgAABAgIs50C1gACrmrD5BQRYzbdYgQQIECBAgAABAgQIEJhUQIA1KW8fiwuw+uhzTZUCrBo9cwkQIECAAAECBAgQIEBAgOUcqBYQYFUTNr+AAKv5FiuQAAECBAgQIECAAAECkwoIsCbl7WNxAVYffa6pUoBVo2cuAQIECBAgQIAAAQIECAiwnAPVAgKsasLmFxBgNd9iBRIgQIAAAQIECBAgQGBSAQHWpLx9LC7A6qPPNVUKsGr0zCVAgAABAgQIECBAgAABAZZzoFpAgFVN2PwCAqzmW6xAAgQIECBAgAABAgQITCogwJqUt4/FBVh99LmmSgFWjZ65BAgQIECAAAECBAgQICDAcg5UCwiwqgmbX0CA1XyLFUiAAAECBAgQIECAAIFJBQRYk/L2sbgAq48+11QpwKrRM5cAAQIECBAgQIAAAQIEBFjOgWoBAVY1YfMLCLCab7ECCRAgQIAAAQIECBAgMKmAAGtS3j4WF2D10eeaKgVYNXrmEiBAgAABAgQIECBAgIAAyzlQLSDAqiZsfgEBVvMtViABAgQIECBAgAABAgQmFRBgTcrbx+ICrD76XFOlAKtGz1wCBAgQIECAAAECBAgQEGA5B6oFBFjVhM0vIMBqvsUKJECAAAECBAgQIECAwKQCAqxJeftYXIDVR59rqhRg1eiZS4AAAQIECBAgQIAAAQICLOdAtYAAq5qw+QUEWM23WIEECBAgQIAAAQIECBCYVECANSlvH4sLsProc02VAqwaPXMJECBAgAABAgQIECBAQIDlHKgWEGBVEza/gACr+RYrkAABAgQIECBAgAABApMKCLAm5e1jcQFWH32uqVKAVaNnLgECBAgQIECAAAECBAgIsJwD1QICrGrC5hcQYDXfYgUSIECAAAECBAgQIEBgUgEB1qS8fSwuwOqjzzVVCrBq9MwlQIAAAQIECBAgQIAAAQGWc6BaQIBVTdj8AgKs5lusQAIECBAgQIAAAQIECEwqIMCalLePxQVYffS5pkoBVo2euQQIECBAgAABAgQIECAgwHIOVAsIsKoJm19AgNV8ixVIgAABAgQIECBAgACBSQUEWJPy9rG4AKuPPtdUKcCq0TOXAAECBAgQIECAAAECBARYzoFqAQFWNWHzCwiwmm+xAgkQIECAAAECBAgQIDCpgABrUt4+Fhdg9dHnmioFWDV65hIgQIAAAQIECBAgQICAAMs5UC0gwKombH4BAVbzLVYgAQIECBAgQIAAAQIEJhUQYE3K28fiAqw++lxTpQCrRs9cAgQIECBAgAABAgQIEBBgOQeqBQRY1YTNLyDAar7FCiRAgAABAgQIECBAgMCkAgKsSXn7WFyA1Uefa6oUYNXomUuAAAECBAgQIECAAAECAiznQLWAAKuasPkFBFjNt1iBBAgQIECAAAECBAgQmFRAgDUpbx+LC7D66HNNlQKsGj1zCRAgQIAAAQIECBAgQECA5RyoFhBgVRM2v4AAq/kWK5AAAQIECBAgQIAAAQKTCgiwJuXtY3EBVh99rqlSgFWjZy4BAgQIECBAgAABAgQICLCcA9UCAqxqwuYXEGA132IFEiBAgAABAgQIECBAYFIBAdakvH0sLsDqo881VQqwavTMJUCAAAECBAgQIECAAAEBlnOgWkCAVU3Y/AICrOZbrEACBAgQIECAAAECBAhMKiDAmpS3j8UFWH30uaZKAVaNnrkECBAgQIAAAQIECBAgIMByDlQLCLCqCZtfQIDVfIsVSIAAAQIECBAgQIAAgUkFBFiT8vaxuACrjz7XVCnAqtEzlwABAgQIECBAgAABAgQEWM6BagEBVjVh8wsIsJpvsQIJECBAgAABAgQIECAwqYAAa1LePhYXYPXR55oqBVg1euYSIECAAAECBAgQIECAgADLOVAtIMCqJmx+AQFW8y1WIAECBAgQIECAAAECBCYVEGBNytvH4gKsPvpcU6UAq0bPXAIECBAgQIAAAQIECBAQYDkHqgUEWNWEzS8gwGq+xQokQIAAAQIECBAgQIDApAICrEl5+1hcgNVHn2uqFGDV6JlLgAABAgQIECBAgAABAgIs50C1gACrmrD5BQRYzbdYgQQIECBAgAABAgQIEJhUQIA1KW8fiwuw+uhzTZUCrBo9cwkQIECAAAECBAgQIEBAgOUcqBYQYFUTNr+AAKv5FiuQAAECBAgQIECAAAECkwoIsCbl7WNxAVYffa6pUoBVo2cuAQIECBAgQIAAAQIECAiwnAPVAgKsasLmFxBgNd9iBRIgQIAAAQIECBAgQGBSAQHWpLx9LC7A6qPPNVUKsGr0zCVAgAABAgQIECBAgAABAZZzoFpAgFVN2PwCAqzmW6xAAgQIECBAgAABAgQITCogwJqUt4/FBVh99LmmSgFWjZ65BAgQIECAAAECBAgQICDAcg5UCwiwqgmbX0CA1XyLFUiAAAECBAgQIECAAIFJBQRYk/L2sbgAq48+11QpwKrRM5cAAQIECBAgQIAAAQIEBFjOgWoBAVY1YfMLCLCab7ECCRAgQIAAAQIECBAgMKmAAGtS3j4WF2D10eeaKgVYNXrmEiBAgAABAgQIECBAgIAAyzlQLSDAqiZsfgEBVvMtViABAgQIECBAgAABAgQmFRBgTcrbx+ICrD76XFOlAKtGz1wCBAgQIECAAAECBAgQEGA5B6oFBFjVhM0vIMBqvsUKJECAAAECBAgQIECAwKQCAqxJeftYXIDVR59rqhRg1eiZS4AAAQIECBAgQIAAAQICLOdAtYAAq5qw+QUEWM23WIEECBAgQIAAAQIECBCYVECANSlvH4sLsProc02VAqwaPXMJECBAgAABAgQIECBAQIDlHKgWEGBVEza/gACr+RYrkAABAgQIECBAgAABApMKCLAm5e1jcQFWH32uqVKAVaNnLgECBAgQIECAAAECBAgIsJwD1QICrGrC5hcQYDXfYgUSIECAAAECBAgQIEBgUgEB1qS8fSwuwOqjzzVVCrBq9MwlQIAAAQIECBAgQIAAAQGWc6BaQIBVTdj8AgKs5lusQAIECBAgQIAAAQIECEwqIMCalLePxQVYffS5pkoBVo2euQQIECBAgAABAgQIECAgwHIOVAsIsKoJm19AgNV8ixVIgAABAgQIECBAgACBSQUEWJPy9rG4AKuPPtdUKcCq0TOXAAECBAgQIECAAAECBARYzoFqAQFWNWHzCwiwmm+xAgkQIECAAAECBAgQIDCpgABrUt4+Fhdg9dHnmioFWDV65hIgQIAAAQIECBAgQICAAMs5UC0gwKombH4BAVbzLVYgAQIECBAgQIAAAQIEJhUQYE3K28fiAqw++lxTpQCrRs9cAgQIECBAgAABAgQIEBBgOQeqBQRY1YTNLyDAar7FCiRAgAABAgQIECBAgMCkAgKsSXn7WFyA1Uefa6oUYNXomUuAAAECBAicUeAcSc6d5FxJzpfkiCQ/nuT8SS6S5AeTHLwC2ylJPpnkS0n+K8lHh3++neT4JMcl+cYK65pCgAABAvUCAqx6w+5XEGB1fwosBBBgLSQygAABAgQIdCNwUJIzJTlzkvLvp3/Kfz9vkiOT3ChJ+UXlwjuk8v4kr0ry5iTHDCHYvtsv4dh3kpyc5NQdqstWCRAgMBcBAdZcOrHD+xBg7XDzNrR1AdaGoB2GAAECBAjMRKD8fHjW4cqoiyc5/efFElyVq6OumOSmOxZQ1dCeluQ/krwyyYeSfGGfxb6Z5NNJjk1yYs1BzCVAgEDjAgKsxhu8ifIEWJtQ3u1jCLB2u392T4AAAQIE9hIoV1GdJ8m1k/zEMLDcvnfOJJdJcp19AiyS3y/w1SRvH0KsEmaVsKt8/iHJvyT5GjQCBAgQ+K6AAMuJUC0gwKombH4BAVbzLVYgAQIECHQkUJ4/dYMkd0lS/v30q63KrX/l6iqf9Qj8e5LP73NVVgm6Hpuk3Kp4wnoOYRUCBAjslIAAa6faNc/NCrDm2Zc57UqANadu2AsBAgQIEFhOoDwk/Z5J7p/k0GFquepqlYekL3dko88oUJ6jdfrzs8qVWndM8uokX0dFgACBDgQEWB00eeoSBVhTC+/++gKs3e+hCggQIECgbYGzJPmR4Yqqsw9XWP1u2yU3V1251fB+ST42PCi+vEnxc0lOaq5SBREg0KuAAKvXzq+xbgHWGjEbXUqA1WhjlUWAAAECOy1QAqsbD28DLFdZ3SbJRXe6IpvfV+BdSV43XJ31xeGZWv8XEQECBHZYQIC1w82by9YFWHPpxHz3IcCab2/sjAABAgT6EThzkpsl+cUhtDpieOj6IQ0SlGdElVvt9n1WVPn30x+QXkoub0k8/efYcjtkuT2y3BpZ/vfWPscl+UCSLyf5ryTPHR4Qf3JrhaqHAIGmBQRYTbd3M8UJsDbjvMtHEWDtcvfsnQABAgR2WaDcDnjXJA8cwpry38s/u/DzWwlXSvBSApfyQPOXJnlnkmNHNKQEVaf/c/rwfcOr8r/ta3D6v5f/XGRTAr/LJ7lukmskuUCSEgaWB9rvwqc8R+sbw8Phi8mth7cgntFnF2qxRwIE+hIQYPXV70mqXfSH/CQHtehOCQiwdqpdNkuAAAECOypQnmNVbgUsV1pdZ7jKZi6llDDq+CTlTXqnP4S87O0r+4RTb0tSbnVr5VPeyPgLSW6S5IeG4PD02kqvzjVc7TWXh+H/5/Cg/vck+fbQC1dotXI2qoNAGwICrDb6uNUqBFhb5d+JgwuwdqJNNkmAAAECOyhQbnu7dpIjh4ew3yHJRbZcRwmlPpzkP4awqlzZU4Kro5O8Ksk3t7y/ORy+PH/sRkkuneSwYUOll5dIcvEZXCX38SRPH/r27iQfPcPtl3MwtAcCBPoTEGD11/O1VyzAWjtpcwsKsJprqYIIECBAYMsCV0jyq0nOObwxcFuhVbm9763DA8JPHEzKLX7leUufOcPVVlsmm/3hS4D140kuOYRa5Wfsw5P87PCssm09m6vctvnBoZ8vSFKu1PIhQIDANgQEWNtQb+yYAqzGGjpBOQKsCVAtSYAAAQLdCZw7yVOSXHEIri48PHR8kxCfTvK0JG8cDnrS8IyqctXVvrcGbnJPLR+rPG/r/MPthuVWw3Lr4W2Hf8r/vslPeQj+54cH4z8ryTOSlP77ECBAYFMCAqxNSTd8HAFWw81dU2kCrDVBWoYAAQIEuhIoz7Iq/5Qrcl6fpARYU3/K7X4llCjPQCr/Xq6ieniSV0x9YOuvJHC24SH99x1CrvJzefnfzrTSastPem2S8nNeueruW0k8M2t5QzMIEBgvIMAab2XkAQQEWE6NRQICrEVCvk6AAAECBP6/QHkGUgmtfn640qZcdTPlp4RV/5rkS0Nw9aYk5Vaxr095UGtPIlBuObx3knKLabl6q5xLFx3+fZIDDouW8Ophw3n0/uFKrSmPZ20CBPoUEGD12fe1Vi3AWitnk4sJsJpsq6IIECBAYI0C5aqZo5JcLMn1hgezr3H571uq3PL3V0n+7xBU/V2ST015QGtvRaC8jfKqw62HP5HkxsO/T7mZvxmCrPcOD+13VdaU2tYm0JeAAKuvfk9SrQBrEtamFhVgNdVOxRAgQIDAGgXKVTJPSnL54QHeU94m+G/DsT40PMfoI0m+scZaLDVvgR8c3lRZbi+8YZJ7DbcdTrXrLyT5RJIXJ/lTz8uaitm6BLoSEGB11e5pihVgTePa0qoCrJa6qRYCBAgQWIfAhYarUy6XpDyce6qfp8pDt28+vBWwPNOqPGi9/KdP3wLlfCvnXfncLskTJ3zGWjnnyj9HD1eACU37PvdUT6BGQIBVo2fudwWm+oELbzsCAqx2eqkSAgQIEFhNoFxpdenhjXJPHZ5xtdpK+59VQqmvJvn34WHaf5Lkhes8gLW6EHhkkhskOftwO2u5tXXdn3Lr6tOHZ659VKC6bl7rEWhaQIDVdHs3U5wAazPOu3wUAdYud8/eCRAgQKBGoLxFsAQCVxne1nbemsX2M7c8PPuvkxwzPHeo/Ptxaz6G5foTKFcI3iZJue2wnLvXSnLQmhnKLa0lyHpXknd4g+GadS1HoE0BAVabfd1oVQKsjXLv5MEEWDvZNpsmQIAAgQqB8sv+o5Jcani+1UUq1trf1HcnefIQVr19uPpqzYewHIHvCvzY8Hy2SyS5e5Ij1+xSnpNVnsf2lCRvWfPaliNAoC0BAVZb/dxKNQKsrbDv1EEFWDvVLpslQIAAgQqBcqvgbya5T5JytVX57+v6lKutHpTkZUlOHMIrz7Nal651FgmUc/lcScpD4J+Z5GZrfpTI15J8McnDk7zArYWL2uHrBLoUEGB12fb1Fi3AWq9ni6sJsFrsqpoIECBA4HSBQ5NcMEl5IPtr1shSQqryJrfybKvyxrh/WuPaliKwDoG7JblnkvKsrHJl1ukPhq9d+ztJrp/kc8M/5SHwPgQIEBBgOQeqBQRY1YTNLyDAar7FCiRAgECXAuVKlGsOzwcqAVN5XtA6PiW0esPwQPbydrgSYPkQmLPAYUnKA+AvmuQ6w5Va69hv+f/CQ5OU22TLbYaCrHWoWoPA7goIsHa3d7PZuQBrNq2Y7UYEWLNtjY0RIECAwIoCPz/cQlWuErnYimuccVr5Jf3FST675iu51rQ9yxBYKHC+4aUF50nykDWGukcn+WCShw1XZC3ciAEECDQpIMBqsq2bLUqAtVnvXTyaAGsXu2bPBAgQILA/gSsl+YMkV01y/jURlaut7jdcaVXeJugqkzXBWmarAhcfrsh6dJLy/5t1fD6V5G1JHpjkK+tY0BoECOyUgABrp9o1z80KsObZlzntSoA1p27YCwECBAgsK1CecXWWJH+R5ObLTt7P+JOSlAeyPz9J+TPSh0APAv+S5JJJzrqmZ2XdY3jY+zeEvj2cPmok8F0BAZYToVpAgFVN2PwCAqzmW6xAAgQINClQftEuD2b/lSR3WsMbBY9P8g/DP49vUkxRBPYW+KEk905yqSQ3XMP/p8rVincfnpH10SSnaAABAk0LCLCabu9mihNgbcZ5l48iwNrl7tk7AQIE+hT48STlDWs3HW6DqlH4fJJXJPlQkmfVLGQugUYEDhnerFn+f3bU8BbDmtLel+RNSR6b5NiahcwlQGDWAgKsWbdnNzYnwNqNPm1zlwKsbeo7NgECBAgsI1AeQl2e2XP1JOWX65pPuTrkjkn+NcnHk5QrsHwIEPj/AocPV2PdZbjSsdam3KZYrsQqV0yeXLuY+QQIzE5AgDW7luzehgRYu9ezTe9YgLVpcccjQIAAgWUFDkpy+yTPHp7PU/PzzXeS3CrJ3w23NJ227GaMJ9CZQPn/38FJHpnk/pW1l/+/fTPJnZO8pHIt0wkQmJeAAGte/djJ3dT8gLeTBdv00gICrKXJTCBAgACBDQlcKMmRSd5RebwSWpXbmE5/Q1rlcqYT6FagXAX5iCQ/Mby9sOZ3jfLMuRKIfWwItbpFVTiBRgQEWI00cptl1Pyhss19O/bmBARYm7N2JAIECBAYJ3DmJDcYHihdHiZ9pnHTvm9UCa7eOjxE+mErrmEaAQLfL3D2JA9NcsXh/6ur/s5xQpJnJHlZknd50LtTjcBOCwiwdrp989j8qn+YzGP3drEJAQHWJpQdgwABAgTGClwgyZ8muXySi4ydtJ9xn0jywCQfSPLZinVMJUBg/wLl94wfTnKVJOXNneWKyVU/5dlY5UUKt0lSnk/nQ4DA7gkIsHavZ7PbsQBrdi2Z3YYEWLNriQ0RIECgW4HnDm8WPH+FwBeT3DzJp5N8pWIdUwkQGCdQft847xBm/XPFFZPl+VhfGK7s8kbQcfZGEZiTgABrTt3Y0b0IsHa0cRvctgBrg9gORYAAAQLfJ3BIkuskeVKSy67oc0qSTyX5sySPWXEN0wgQqBc4NMnvDG8t/KGK5V48PDT+I24rrFA0lcBmBQRYm/Vu8mgCrCbbutaiBFhr5bQYAQIECCwhcOMkl0vyR0vM2XdouWLjLUk+nuTuK65hGgEC6xcoV1E+bnjQ+2Uqlr9HkjcP/x+vWMZUAgQ2ICDA2gBy64cQYLXe4fr6BFj1hlYgQIAAgeUEypvMbpfkQUl+YLmp/zO6PNfqCUleleTfV1zDNAIEphW4apLbJ7ltknOveKh/Gq6u/MskJ624hmkECEwvIMCa3rj5Iwiwmm9xdYECrGpCCxAgQIDAEgLlQc/lqqkjkpQ3ma3y+f0k5ZfZEmJ54PMqguYQ2JzAYUl+MMmLhiuyVjny15K8P8kvJ/n8KguYQ4DA5AICrMmJ2z+AAKv9HtdWKMCqFTSfAAECBBYJlJ9Hzprkz5PcetHgA3z9O0nK83DKlRzlP30IENg9gR9L8tYk50lSnpe1yufaSd6X5FurTDaHAIHJBARYk9H2s7AAq59er1qpAGtVOfMIECBAYIzA2ZLcIMkDklx3zIT9jHnN8Byc8qB3HwIEdlugBFf3SXKHJJdeoZTy7Lt/THLPJB9NcvIKa5hCgMD6BQRY6zftbkUBVnctX7pgAdbSZCYQIECAwEiBcw1vEiu/qK5yu+B7k5Twqtwy6EOAQFsC5flYN09yryTnXKG08v2h3I5cwvESavkQILBdAQHWdv2bOLoAq4k2TlqEAGtSXosTIECgW4HfTHLLJNdcQaBcUfGSJA9P8mlXWKwgaAqB3RA4JMmVk9w7yVErbrmEWHdN8qkV55tGgMB6BARY63HsehUBVtftH1W8AGsUk0EECBAgMFKg3B70O0l+L8lBI+fsO6xcSVHWKA9n94D2FQBNIbCDAuV7xa2G4HqV7Z+S5NFJHrzKZHMIEFiLgABrLYx9LyLA6rv/Y6oXYI1RMoYAAQIEFgmUnznKLUHl7YA/umjwGb5eQqv/m+TPkjwqybeXnG84AQJtCByc5FVJLpfkwiuU9MQkL0jynhXmmkKAQJ2AAKvOz+wkAiynwSIBAdYiIV8nQIAAgUUCRyT5uSTPWPFnjz9O8uokb1h0IF8nQKB5gXI11k8leWiSq61wJedxSe6b5IVJyttLfQgQ2IyAAGszzk0fRYDVdHvXUpwAay2MFiFAgEC3AldJ8pgk5T+XfVD7l5LcfQiv/KLZ7SmkcAL7FbhUkksmedkKIdY3kjw/yVOSfIIvAQIbERBgbYS57YMIsNru7zqqE2CtQ9EaBAgQ6FPgSknelOTwFcp/xPDL5bErzDWFAIF+BC6b5GlJrrNkyeVlEF8bruIqL4PwIUBgWgEB1rS+XawuwOqizVVFCrCq+EwmQIBAlwLnH54z89MrVP/xJM9J8tgV5ppCgEC/Ao9Mcpck51uB4GZJ3pHkKyvMNYUAgXECAqxxTkbtISDAcnosEhBgLRLydQIECBA4XaA8YPkKSZ6Q5LpLspRbel6f5NZLzjOcAAECpwvcKMkdh+8jy/yeU95SWL7/PDDJh3ESIDCJgABrEta+Fl3mG3tfMqo9XUCA5VwgQIAAgbEC5aqp8nDlEmIt83l7kvKg9tckOX6ZicYSIEDgDAJnTfKgIcg6ckmddyV5QJJ/XHKe4QQILBYQYC02MmKBgADLKbJIQIC1SMjXCRAgQKD8PPG24VkyhyzJ8c4kt0zy+SXnGU6AAIEDCZwlyYWSvDzJ5ZdkKt+LyhtPf3XJeYYTILC3gADLGVItIMCqJmx+AQFW8y1WIAECBFYWKK+zPyLJXyT5ySVX+WaS6yV5z5LzDCdAgMAyAuXWwGut8BbUf05SnuN3QpLTljmgsQQI7FdAgOXEqBYQYFUTNr+AAKv5FiuQAAECKwvceXhmzMWXWOHEJO9PUv58OXqJeYYSIEBgVYGrDy+HuOEwje4AACAASURBVGSSEryP/fxtkocNQfupYycZR4CAAMs5MI2AAGsa15ZWFWC11E21ECBAYD0C5RfAhyf5nRWWu3eS1yX5xApzTSFAgMCqAldNcs8kRyVZ5lbnDyZ5dZIHr3pg8wgQ+K6AK7CcCNUCAqxqwuYXEGA132IFEiBAYCmB8yZ5zPCA5GUmHpfkF5K8dZlJxhIgQGCNAudLcqnh+9AyvweVq6/KrdLlDYeuxFpjQyzVlYAAq6t2T1PsMt+4p9mBVecuIMCae4fsjwABApsTuHKS5w+/AC7zM8SLktw3yRc3t1VHIkCAwAEFyq2E5U2DJdAa+ynPwfrLJL+e5FtjJxlHgMD/CAiwnAzVAsv88Fl9MAvspIAAayfbZtMECBBYu0B5mHF5M9cyn/Lw46cNr6VfZp6xBAgQmFrgyOG2wNsnKW8tHPsptxM+Mkl5g6oPAQLjBQRY462MPICAAMupsUhAgLVIyNcJECDQtkB5VsztkvzZkmW+L8mLh9sNl5xqOAECBDYm8NtJHrJkiPWFJA9N8syN7dKBCOy+gABr93u49QoEWFtvwew3IMCafYtskAABApMJnHt46PGDkpxjiaM8ffjF7gNLzDGUAAEC2xIov1iX73NXWmID307y+0kem6TcXuhDgMDeAgIsZ0i1gACrmrD5BQRYzbdYgQQIENivwHmS/HGSWyQ580ij8kvcC5PcJUm5fdCHAAECuyBQficq3/P+KMmdltjwiUl+N8mTk5y8xDxDCfQoIMDqsetrrlmAtWbQBpcTYDXYVCURIEBggcAPJ/nIkrfUlAe0/02SX6NLgACBHRZ4yRDcn2mJGsotiE9NUt626kOAwP4FBFjOjGoBAVY1YfMLCLCab7ECCRAg8D0C1x+CqMOWcHlLkt/xUOMlxAwlQGDOAk8YQqwfWmKTJfgq845eYo6hBHoSEGD11O2JahVgTQTb0LICrIaaqRQCBAjsIVB+JrhRkvL8qosuIfX64bXyn11ijqEECBCYs0D5fnjjJPcevi+O3euHhlsKy5sKfQgQ+F4BAZYzolpAgFVN2PwCAqzmW6xAAgQIfFfgukn+KskFl/AoV17dJkm5fdCHAAECLQmU35MukKRcWXW9JQo7Nsmtk7x1iTmGEuhBQIDVQ5cnrlGANTFwA8sLsBpoohIIECCwh8DBw5u3lrntpTyg/S+T3JUsAQIEOhD4WJKLJzloiVovluQzS4w3lEDrAgKs1ju8gfoEWBtA3vFDCLB2vIG2T4AAgT0Ezj8856XcNjj2Z4Lyi9wDkryGLAECBDoSKKH9zyY5fImab5jkH5KcusQcQwm0KiDAarWzG6xr7A+rG9ySQ81MQIA1s4bYDgECBNYkcGSS305y2yTnHLnmR5Pc0cPaR2oZRoBASwLnSHL7JPcZrsYaU9uXk5SfpV+W5KQxE4wh0LCAAKvh5m6qNAHWpqR39zgCrN3tnZ0TIEDgQALlF7FXJrl2krOMZPrq8Jysfx053jACBAi0JnBokssMV6D+4MjiyjMC75/kxUlOHjnHMAItCgiwWuzqhmsSYG0YfAcPJ8DawabZMgECBBYIfG2Jq67KUv81PNzdL19OLQIECCTl2YHliqqxv0uVWwjLCy/KizJ8CPQqIMDqtfNrrHvsN901HtJSOyYgwNqxhtkuAQIE9hAoDxV+bZJLjFT69nC7YLnN8PMj5xhGgACBHgTOk+Ttw/fTsb9T3SvJ85J8owcgNRI4g4AAyylRLTD2m231gSywswICrJ1tnY0TIEDgewR+PMlzklxtpMvxSZ6d5GlJPj1yjmEECBDoSaDcTviMJNcY+YbC8gbXRyQpL84ot2X7EOhJQIDVU7cnqlWANRFsQ8sKsBpqplIIEOhW4Igkr0py5SUE7pDkb5KU2w19CBAgQGD/ApcaAqnrjQQqwVUJvR4rxBopZlgrAgKsVjq5xToEWFvE35FDC7B2pFG2SYAAgT0Ejk1yviWErpLkfUlOWWKOoQQIEOhV4FxJXpTkJiMBTkzypCS/NXK8YQRaEBBgtdDFLdcgwNpyA3bg8AKsHWiSLRIgQOAAAuUtWeWtgeVZLWM+xyW5dZI3jRlsDAECBAj8j8BBSZ6S5FeSnH2ky6OT/GGScsu2D4HWBQRYrXd4A/UJsDaAvOOHEGDteANtnwCBbgXKM6+en+RKIwXKVVrlAcMvGTneMAIECBD4XoFzJ7lvkvLzc/n3RZ/TkpQQy+2Ei6R8vQUBAVYLXdxyDQKsLTdgBw4vwNqBJtkiAQIEziBQ3jb4wiUe2F5+ifrF4ZlXMAkQIEBgdYFyu/YvJ3lMkjOPWKZc+fq4JH/smYMjtAzZZQEB1i53byZ7F2DNpBEz3oYAa8bNsTUCBAgcQOCjSS45UqeEV5dN8uGR4w0jQIAAgb0FSnB1wyR/OxLq60keMLwp1rMHR6IZtnMCAqyda9n8NizAml9P5rYjAdbcOmI/BAgQOLDA2ZJ8MMmPjEQqr3Qvv2S9Y+R4wwgQIEBgvMD1k7w2yVlGTvmZJG9OcurI8YYR2CUBAdYudWumexVgzbQxM9qWAGtGzbAVAgQI7CFQHtj+rCQ/N1Lpi0numeRlI8cbRoAAAQLLCZxpeDHGE5L8wMipt0jyKm+BHall2C4JCLB2qVsz3asAa6aNmdG2BFgzaoatECBA4AAC5RXuDxoeHDzm7VffSnIH4ZXziQABApMLHJqk/OL+1JEPdv9KkrsneWmScou3D4FWBARYrXRyi3UIsLaIvyOHFmDtSKNskwCBbgUOHsKo8har84xQKL8QXcttgyOkDCFAgMB6BA5JUm4PfM3I5b6Q5I5J/m7keMMI7IKAAGsXujTzPQqwZt6gGWxPgDWDJtgCAQIE9hAoD2B/f5KDRih5YPsIJEMIECAwkUC5PfDlI9cuz8H6sSSfHjneMAJzFxBgzb1DO7A/AdYONGnLWxRgbbkBDk+AAIE9BK6+xJVUxya58/BsFagECBAgsHmBciVW+T78qCTl1u8xn59I8p4xA40hMHMBAdbMG7QL2xNg7UKXtrtHAdZ2/R2dAAECBxK4UZLnJ7nACKKvJrlbkpeMGGsIAQIECEwncN7hmYXlOVdjnln49SS3TPKm6bZkZQIbERBgbYS57YMIsNru7zqqE2CtQ9EaBAgQWK/ADZI8J8lFRy5bwq43jBxrGAECBAhMK1DeGvu4JL884jDl1u+jk9w1yQdHjDeEwFwFBFhz7cwO7UuAtUPN2tJWBVhbgndYAgQIHEDgYknel+ScI4WukuTdI8caRoAAAQKbEThHkr9PUr5HL/qckuRPk/xWkuMWDfZ1AjMVEGDNtDG7tC0B1i51azt7FWBtx91RCRAgsD+BElp9NMkRI3i+Pdw2+BdJyi8/PgQIECAwL4HyFtl/SXKFJGN+L7tHkqcnKVdl+RDYNQEB1q51bIb7HfONcobbtqUNCgiwNojtUAQIENhD4KxJHj+EUougTkzyl0kenKS8jt2HAAECBOYpUN40WP6i4aojt/erSf585FjDCMxJQIA1p27s6F4EWDvauA1uW4C1QWyHIkCAwAEEDkrym0kekeTMI5T+OcmvJPnkiLGGECBAgMB2BcoVWM9LcrkR2zg1yQOHv9AYMdwQArMREGDNphW7uxEB1u72blM7F2BtStpxCBAgcGCB8jfuT05y2Aikbya5VJL/HDHWEAIECBCYh8BFknw4SXk21qJPebPs/ZI8d9FAXycwIwEB1oyasatbEWDtauc2t28B1uasHYkAAQL7E/jpJd4gWF63fniS8jf0PgQIECCwewLHJzn7iG2/M8mdknxkxFhDCMxBQIA1hy7s+B4EWDvewA1sX4C1AWSHIECAwAEEfmT45eTQEULl4e63Hv4Gf8RwQwgQIEBghgLXTfKyJOcfsbdnJblPkhNGjDWEwLYFBFjb7kADxxdgNdDEiUsQYE0MbHkCBAgcQKDcRvI3SW4wQujjw9/Ev33EWEMIECBAYL4C5eqrBw3PPRxzJdZTk5Sf130IzF1AgDX3Du3A/gRYO9CkLW9RgLXlBjg8AQJdCpQ/n5+R5K4jqi9/837nJC/yavURWoYQIEBg/gLnHf4MuEWS8hKPRZ/yAPjy4g4fAnMWEGDNuTs7sjcB1o40aovbFGBtEd+hCRDoVuCRSX4ryZg/p9+Q5MbCq27PFYUTINCmQAmuPpbk4iPKK88/fECSckuhD4G5Cgiw5tqZHdrXmB+Md6gcW51AQIA1AaolCRAgcACB8gvLUcPr1M80Qqk8xPcaI8YZQoAAAQK7KfDeJFccsfW3JrlLkk+OGGsIgW0ICLC2od7YMQVYjTV0gnIEWBOgWpIAAQIHEDhfkleNDKXKlVf/J8mXaBIgQIBAswIXHN5Ee7kRFb4kya8nOW7EWEMIbFpAgLVp8QaPJ8BqsKlrLkmAtWZQyxEgQOAAAuXP5L9LcqMRQuVv2svr0z89YqwhBAgQILC7AgcnuW2SJyc594gyXpPkZiPGGUJg0wICrE2LN3g8AVaDTV1zSQKsNYNajgABAgcQ+Mck1x6h89Xhb9j/asRYQwgQIEBg9wUOTfLYJPcc8VD305L87yQv3f2yVdCYgACrsYZuoxwB1jbUd+uYAqzd6pfdEiCwewLlz+J7J3l4knOM2P6Lk9xmxDhDCBAgQKAtgRJK3WpESV9J8hNJPjtirCEENiUgwNqUdMPHEWA13Nw1lSbAWhOkZQgQIHAAgUsneU6Sq48QEl6NQDKEAAECDQuUl3dcbUR9Rye5w/AmwxHDDSEwuYAAa3Li9g8gwGq/x7UVCrBqBc0nQIDAgQUukKTcCni9EUjPHq7UOmHEWEMIECBAoE2ByyZ5c5LzLyiv3Er4pCQPSXJ8mxSq2jEBAdaONWyO2xVgzbEr89qTAGte/bAbAgTaEnh8kt8cUdJnhjcOvn3EWEMIECBAoF2B8vvbUUlekGTR73JfG14M8q52OVS2QwICrB1q1ly3uuib3lz3bV+bExBgbc7akQgQ6Evgwkn+c0TJ30nyh0n+YMRYQwgQIECgD4H7J3lUkjONKPdcSb4+YpwhBKYUEGBNqdvJ2gKsThpdUaYAqwLPVAIECBxA4ErDLSBjXon+uCQPIEmAAAECBPYROGeSv0hysxFXYpWreC/nVkLnz5YFBFhbbkALhxdgtdDFaWsQYE3ra3UCBPoTKL90vDDJTUeU/oEkVxgxzhACBAgQ6E/g+kleNeINtqcm+d0kf5SkPBvLh8A2BARY21Bv7JgCrMYaOkE5AqwJUC1JgEDXAuWtUE9OUm7p2Otz0hBefaRrLcUTIECAwF4C10jyzyOIyvOwytW85YUgPgS2ISDA2oZ6Y8cUYDXW0AnKEWBNgGpJAgS6Fbh6kvIg9oNGCPxkkreOGGcIAQIECPQtcJvhyt5FCn+b5G4jn7+4aC1fJ7CsgABrWTHjv09AgOWkWCQgwFok5OsECBAYJ1D+zH1pklsuGH5ykgcneWySctuHDwECBAgQ2EugvBTkZUmuNoKpXIX1xCSnjBhrCIF1Cgiw1qnZ6VoCrE4bv0TZAqwlsAwlQIDAHgLljVEllFr0+dckv5rk3YsG+joBAgQIEBgEyhW+z0ly6REiP5ekXI3lQ2CTAgKsTWo3eiwBVqONXWNZAqw1YlqKAIFuBX4xyctHvCnq+CQ/k+Qd3UopnAABAgRWFbhPkkckOfuCBf4tyaWSfGfVA5lHYAUBAdYKaKZ8r4AAyxmxSECAtUjI1wkQILC3wMFJ3pDkBiOgyq0djxsxzhACBAgQIHBGgbMkeV+SS46geVuS640YZwiBdQkIsNYl2fE6AqyOmz+ydAHWSCjDCBAgsB+BQ4fbBsv30kWfTyS5xKJBvk6AAAECBBYIHJPkBxaM+WqS+yZ5Hk0CGxIQYG0IuuXDCLBa7u56ahNgrcfRKgQI9ClQXm/+giQ/vKD8DyS5mTdD9XmSqJoAAQJrFihvsX19kvKXKHt9ylVYd07yyTUf33IE9icgwHJeVAsIsKoJm19AgNV8ixVIgMBEAuUZJK9M8tML1j9p+FvwZ3gr1ESdsCwBAgT6EjhrkkcnGXP1b3m5yEOTfKsvItVuQUCAtQX01g4pwGqto+uvR4C1flMrEiDQh8BRSV40otQScpW3Dn5txFhDCBAgQIDAGIELJyl/MXLTBYO/nuSKScqD3X0ITCkgwJpSt5O1BVidNLqiTAFWBZ6pBAh0K3CuJMeNqP4zScqrz780YqwhBAgQIEBgGYH7J3lYkrONmHRIkpNHjDOEwKoCAqxV5cz7HwEBlpNhkYAAa5GQrxMgQOB7BcozRz448oHsT0hyP4AECBAgQGAigWclucuIte+d5CkjxhlCYFUBAdaqcuYJsJwDowUEWKOpDCRAgMB3BW6b5KlJDl/g8Zzh4bnYCBAgQIDAVALnTfLvScpzGff6fCPJ7ZP89VQbsW73AgKs7k+BegBXYNUbtr6CAKv1DquPAIF1ClwrSQmmLrFg0e8MYz67zoNbiwABAgQI7Efg2kn+cYHMaUleMfwlzIkUCUwgIMCaALW3JQVYvXV8+XoFWMubmUGAQJ8C5c/UOyV59ojyb5Xk5SPGGUKAAAECBGoFDkryqCQPHBFi3TfJk2sPaD6B/QgIsJwW1QICrGrC5hcQYDXfYgUSILAmgcsnef+ItV6T5G5JPjdirCEECBAgQGAdAldIUt56e9EFi70lyR2S/Oc6DmoNAvsICLCcDtUCAqxqwuYXEGA132IFEiCwJoHnDc8P2Wu5zyf5tSQlxPIhQIAAAQKbFCh/efLYEc/DKmMWXa21yX07VhsCAqw2+rjVKgRYW+XfiYMLsHaiTTZJgMCWBcpryh8yYg+vTnLzEeMMIUCAAAEC6xY4IslLk1xzwcInJTl/kq+tewPW61pAgNV1+9dTvABrPY4tryLAarm7aiNAYB0CBw+3WvzgiMXOleTrI8YZQoAAAQIEphA4MsmHkxy2YPFjkpTAy4fAugQEWOuS7HgdAVbHzR9ZugBrJJRhBAh0KVAejFve2vTzC6ovb3e6XJJ/7VJJ0QQIECAwJ4HXJbnRgg2dkqS8cOSv57Rxe9lpAQHWTrdvHpsXYM2jD3PehQBrzt2xNwIEti1w5STPTXLZBRspz7wqtw6WIMuHAAECBAhsW+AzIx7oXl5McoskZawPgVoBAVatoPkRYDkJFgkIsBYJ+ToBAr0KlNsvHp3k7gsAjhv+pvvoXqHUTYAAAQKzE7h9kvLykb0+307ye0ke7y9gZte/XdyQAGsXuzazPQuwZtaQGW5HgDXDptgSAQKzEChXX/19knMu2M1jkvx+kvKLgA8BAgQIEJiDwDmSPDzJfRZs5gvDrYRvn8Om7WGnBQRYO92+eWxegDWPPsx5FwKsOXfH3ggQ2KbAJ5P86IINvDPJL7v9YpttcmwCBAgQOIBA+fPpmUlKmLXX5y5J/izJqSQJVAgIsCrwTP1vAQGWM2GRgABrkZCvEyDQo8DNkrxqQeHlNeR/kOQRPQKpmQABAgR2QuDpSe6apLyUZK/PRYY37u5EUTY5SwEB1izbslubEmDtVr+2sVsB1jbUHZMAgTkLnCnJiSN+2P98kgvNuRB7I0CAAIHuBa41vE33Agsk/jLJ/+leC0CNgACrRs/c7woIsJwIiwQEWIuEfJ0Agd4Enjbiwe3F5GpJPLi9t7NDvQQIENg9gfKsxgeM2PZVk/zLiHGGENifgADLeVEtIMCqJmx+AQFW8y1WIAECSwicLcmbk1x9wZwPJ7nMEusaSoAAAQIEtiVQficc83yrDyW53LY26bg7LyDA2vkWbr8AAdb2ezD3HQiw5t4h+yNAYFMC5fkgf5Tk/gsO+NUk5W+pP7WpjTkOAQIECBCoFCh/br1rxJ9v90rygspjmd6ngACrz76vtWoB1lo5m1xMgNVkWxVFgMAKApcY3sJ0zQVzn5TkwUm+ucIxTCFAgAABAtsQOGeSFya56YKDv2Z46Psx29ikY+60gABrp9s3j80LsObRhznvQoA15+7YGwECmxIoV1/dNsnzFxzwg0nulOTdm9qY4xAgQIAAgTUJ3CLJi5Icusd6X09yhyR/vaZjWqYfAQFWP72erFIB1mS0zSwswGqmlQohQKBC4NxJ/iPJYQvWKAHXHZOcUnEsUwkQIECAwDYEzpykXEX86wsO/tYkt05y7DY26Zg7KyDA2tnWzWfjAqz59GKuOxFgzbUz9kWAwCYFfnF4zfhex/y3JFdI8o1NbsyxCBAgQIDAGgXunuRRScothXt9rpHknWs8rqXaFxBgtd/jySsUYE1OvPMHEGDtfAsVQIBApcA5RoZSjxv5GvLK7ZhOgAABAgQmFXhTkhsuOEK5Zf7yk+7C4q0JCLBa6+gW6hFgbQF9xw4pwNqxhtkuAQJrF3h8kt9csGq5ZfAsSU5e+9EtSIAAAQIENitw/SR/P+KQtxxxdfKIZQzpRECA1UmjpyxTgDWlbhtrC7Da6KMqCBBYTeDw4bXiF18w/dpJ3r7aIcwiQIAAAQKzE/hokksu2FUZc+nZ7dyG5iogwJprZ3ZoXwKsHWrWlrYqwNoSvMMSILB1gfJn5LOS3HnBTr6W5EeTfHnrO7YBAgQIECCwHoFDkpyQ5OA9ljs+ya8leeF6DmmVxgUEWI03eBPlCbA2obzbxxBg7Xb/7J4AgdUFfiTJnyb5yT2WOC1Jee2414mv7mwmAQIECMxPoARXJZgqocNen9cmOWrksyLnV6UdbVJAgLVJ7UaPJcBqtLFrLEuAtUZMSxEgsDMC5c/HOyV59oIdv224QuuTO1OZjRIgQIAAgXEC10zyuiSH7TH8C0nKmwtfOW5JozoWEGB13Px1lS7AWpdku+sIsNrtrcoIEDiwwJHDA2zLrYEH+pSrr8qbBx8IkgABAgQINChQ3sL76CT3WFDbE5I8JMk3GzRQ0voEBFjrs+x2JQFWt60fXbgAazSVgQQINCRQHkr74QX1/EuS6yb5dkN1K4UAAQIECOwrcLckj01y9j1Yyl/oXC1J+XPRh8CBBARYzo1qAQFWNWHzCwiwmm+xAgkQ2I9AeXDtWRbI/EWS29MjQIAAAQKNC7wqyc0W1PjgJH/YuIPy6gQEWHV+ZicRYDkNFgkIsBYJ+ToBAq0J/EyS148o6gJJjh0xzhACBAgQILDLArdN8pwkZ15QxKFJTtrlQu19UgEB1qS8fSwuwOqjzzVVCrBq9MwlQGAXBd6f5PILNv78JHfYxeLsmQABAgQIrCDw5STn9WfjCnKmnC4gwHIuVAsIsKoJm19AgNV8ixVIgMA+AuXZV/+U5PAFKuWNTMeTI0CAAAECnQj8WJKPL6j1xCRnTVKeieVD4IwCAiznRLWAAKuasPkFBFjNt1iBBAgMAuXPxFck+YUFIuX2wpv4Ad15Q4AAAQKdCZTb5s+3R82nJvm9JI/szEW54wQEWOOcjNpDQIDl9FgkIMBaJOTrBAi0InDFJH+e5HJ7FHRykp9M8vZWilYHAQIECBAYKVBunS9/Tu71+eckN3KV8kjRvoYJsPrq9yTVCrAmYW1qUQFWU+1UDAECewjcf3hV+F5IL0lSvi9+iSQBAgQIEOhM4EeT/H2SI/eo+ytJ7pukvKnXh8C+AgIs50O1gACrmrD5BQRYzbdYgQQIJLlYkhckufoeGuWZHr+V5DHECBAgQIBAhwKHJLlfkkctqP1xSX47Sblq2YfA6QICLOdCtYAAq5qw+QUEWM23WIEECCS51vDw9r0w3pjkF5N8kxgBAgQIEOhU4FZJnrXgZScnJLlZkjd3aqTs/QsIsJwZ1QICrGrC5hf4f+ydCfx91bj/36/mpFR0KVSKuMlwTZmnzDeS9CJuCUXES0oImRqQJsqQCBUiQplnIVOulJBkTkJIlOb/67l2/g2/717rnLP3OXuv9V6vV687nGc/63nez/6d796fs9azFLCKL7EJSkACzaqqPVtIRGPadwM7SUsCEpCABCRQOYGjge0TDKJf1rFA/P10SCAIKGB5H8xMQAFrZoTFO1DAKr7EJiiB6gksn7HN4e/AA4DTqqclAAlIQAISqJ3AzsBBwOotIE4FHgRcXDss8/83AQUsb4aZCShgzYyweAcKWMWX2AQlUD2BdwLPTFD4JXCb6kkJQAISkIAEJACrAWcCGyRgbAj8SmASaAgoYHkrzExAAWtmhMU7UMAqvsQmKIHqCUST2ViF1Tbic7dBVH+rCEACEpCABBoC7we2S9D4E7COxCSggOU90BUBBayuSJbrRwGr3NqamQQkAA9umswu1wLjN8D6wpKABCQgAQlI4DoE4oed1PvkmsCFcpOAPbC8B7ogkPrC6WIOfYybgALWuOtn9BKQQDuBrwIPTEB6CvABQUpAAhKQgAQkcB0CJzSn87Zh2R94udwkoIDlPdAFAQWsLiiW7UMBq+z6mp0EaiawOXAMcLsWCNF89m7AWTWDMncJSEACEpDAMgjcEfhhgkx8fhe34Xv/KGB5D3RBQAGrC4pl+1DAKru+ZieBmgm8tvlVuG374O7Am4ErawZl7hKQgAQkIIFlELgZ8E3gti10/grsARwlweoJ2MS9+ltgdgAKWLMzLN2DAlbpFTY/CdRJYA3gUODpLelfBsRR4UfXicisJSABCUhAAkkCTwSOT1i9A3iOq7CSLEs3UMAqvcJzyE8Baw6QRz6FAtbIC2j4EpDAMgk8GjgRWKGFz9eAZwA/k6EEJCABCUhAAssk8FDgfcAtWvicAuwE/FiGVRNQwKq6/N0kr4DVDceSvShglVxdc5NAnQTib9+TgTgCfKlxNfCuZgVWnZTMWgISkIAEJJAmECuaDwe2bzGN0wp3aISutEctSiWggFVqZeeYlwLWHGGPdCoFrJEWzrAlIIElCdyk+RV43RZG5wKPymhOK2YJSEACEpBA7QSip+RLgRVbQLwSOAC4tHZYiZVZWAAAIABJREFUFeevgFVx8btKXQGrK5Ll+lHAKre2ZiaBWglE09k/JpL/KXD7WgGZtwQkIAEJSGACAmsBXwLumrhmY+DnE/jVtCwCClhl1XMh2ShgLQT7qCZVwBpVuQxWAhLIIPByYN+E3YHAnhm+NJGABCQgAQlI4F8C1kMSIO4JnCqsagkoYFVb+u4SV8DqjmWpnhSwSq2seUmgXgLR3yo1/PuYIuTnEpCABCQggf9PYEvgpASQTwJh56iTgAJWnXXvNGsf0DvFWaQzBawiy2pSEqiWwB0z+lqdB6xXLSETl4AEJCABCUxHwB+IpuNWy1UKWLVUusc8FbB6hFuIawWsQgppGhKQwP8R+CEQIlbbiKPAz5eXBCQgAQlIQAITETgZeEDiithm+JWJvGpcCgEFrFIqucA8FLAWCH8kUytgjaRQhikBCSQJrAycBtyhxfKfwPoZTd6Tk2kgAQlIQAISqIxAnEJ4WSJnVzlXdlNcK10FrHpr31nmClidoSzWkQJWsaU1MQlUR+DJwFuAtVsyPwp4PnBxdXRMWAISkIAEJDAbgRWA3wI3b3Hzh2Yl9J9mm8qrR0hAAWuERRtayApYQ6vI8OJRwBpeTYxIAhKYjsA7gJ0Tlz4B+Oh07r1KAhKQgAQkUDWBeLfcFTishUKs0DoA2LtqUnUmr4BVZ907zVoBq1OcRTpTwCqyrCYlgeoIrAYcCWzXkvmFQDxcfa46OiYsAQlIQAIS6IbAg4EvJ1x9GNi2m+n0MiICClgjKtZQQ1XAGmplhhOXAtZwamEkEpDA9AR2BN6duPxAYM/pp/BKCUhAAhKQQPUENgWOA+7UQuIbwPbAL6qnVRcABay66t1LtgpYvWAtyqkCVlHlNBkJVEkg/tY9s1mBtRSAq4A3AC+rkpBJS0ACEpCABLoj8HJg3xZ3VwC7NX0pu5tVT0MnoIA19AqNID4FrBEUacEhKmAtuABOLwEJzEwgmra/E9i6xdPZzfbBOKXQIQEJSEACEpDA9ATi/SF+FFqlxUX8YBS9sK6cfhqvHBkBBayRFWyI4SpgDbEqw4pJAWtY9TAaCUhgcgIbAz8CVmq59JvAfSd37RUSkIAEJCABCVyPwK2B44HNW8h8EYjt/XFqoaMOAgpYddS51ywVsHrFW4RzBawiymgSEqiawGbAGQkCJwJbVU3J5CUgAQlIQALdEfgU8OiEuxC4vtPdlHoaOAEFrIEXaAzhKWCNoUqLjVEBa7H8nV0CEpidwNuAXRJubgucM/tUepCABCQgAQlIADgUeB6wfAuNR3ryb1X3igJWVeXuJ1kFrH64luRVAaukapqLBOokcHUi7fh8uTrRmLUEJCABCUigFwKbAP8LrNbi/fPAI3qZXadDJKCANcSqjCwmBayRFWwB4SpgLQC6U0pAAp0RWAO4MOHtFOB+nc2oIwlIQAISkIAEgkD8/Y2/w23D99F67hUFrHpq3VumfmH0hrYYxwpYxZTSRCRQJYGPAE9IZL4iEEd6OyQgAQlIQAIS6I5ATh+smwJ/7m5KPQ2YgALWgIszltAUsMZSqcXFqYC1OPbOLAEJzE7gfOA/WtzE8d0re4z37KD1IAEJSEACErgegVWASxJU3gXsJLkqCChgVVHmfpNUwOqXbwneFbBKqKI5SKBOAjcCfgms05L+F4BoIntVnYjMWgISkIAEJNArgcuAWOm81LgcWKnXCHQ+FAIKWEOpxIjjUMAacfHmFLoC1pxAO40EJNA5gb2AVzUrrJZyHtsLP9r5zDqUgAQkIAEJSCAIfDbRqD0ErFgp/VdxFU9AAav4EvefoAJW/4zHPoMC1tgraPwSqJfACcDWifQfBJxcLyIzl4AEJCABCfRK4F7At1tmiBXQLwXe2GsUOh8CAQWsIVRh5DEoYI28gHMIXwFrDpCdQgIS6JzAckAIWFu1eP4N8DjgtM5n16EEJCABCUhAAkFgM+AHQPxdXmp8BXiIuIonoIBVfIn7T1ABq3/GY59BAWvsFTR+CdRJ4O7Au4E7taS/P/AaIPpzOCQgAQlIQAIS6J7AhsAngU1bXH8NeJh/j7uHPzCPClgDK8gYw1HAGmPV5huzAtZ8eTubBIZIYPmmAestgLsC9wdu0mGgVwO/AOIB9vtA9MOI/+L/P+3YDTgYaPs79zLgddNO4HUSkIAEJCABCSQJxEmE8fd27xbLs4HtE1sNkxNpMHgCCliDL9HwA1TAGn6NFh2hAtaiK+D8EpgPgRWANYCnA8+83pTxtyL+i1OCVgfWBMK+yxHHbEcD14sa4er6pwL+FDigEbhSR3JHXHsAB7YEeCmwJ3BYl0noSwISkIAEJCCBGxDYBXhbC5crgFcD+8muaAIKWEWXdz7JKWDNh/OYZ1HAGnP1jF0C/yIQ3/XxC2j8F/97HGd9H+AQIJb2j3nECqp4KL64Eb5i1VZsCXxF0xR2qdy+DGwD/GXMyRu7BCQgAQlIYAQEngIcAdy4JdYQr+Jvt6NcAgpY5dZ2bpkpYM0N9WgnUsAabekMvGIC8d2+PnBHILb/rQxsCzy+WUVVMpq/AW8CdgLWbUn0E8BjSwZhbhKQgAQkIIGBELgtcBTwgJZ4QuB6EfD3gcRsGN0TUMDqnml1HhWwqiv5xAkrYE2MzAsksBACsb3vacBGjWh1Z+ChzWqrhQQ04EljldZHGlFvwGEamgQkIAEJSKAYAkc3fa6WSuhnwHbAqcVkbCLXJ6CA5T0xMwEFrJkRFu9AAav4EpvgiAlEP6pYbh/bAWOlVay46rK5+ojRJEOPpvHR6D1WYl2/31byYg0kIAEJSEACEpiIQKzA2jFxuMpjgE9P5FXjMRFQwBpTtQYaqwLWQAszoLAUsAZUDEORALAq8A7gqQ0Nv8envy2ufcphrFg7c8aTD6ePxCslIAEJSEACZROIg1OiUfuNWtJUwCr7HlDAKru+c8nOF5+5YB71JApYoy6fwY+cQDRbjy2BNwXuDRw08nzGEP7XgX2bExF/CZw/hqCNUQISkIAEJDBwAqsBP0wcHvNKIA5niVMJHeURUMAqr6Zzz0gBa+7IRzehAtboSmbABRBYB9gBWAPYGrjTAHOKbXdXNtvvzgP+CfyhEX7+sUS8t2wayq8F3ApYodn6uFxiS8Ei0o98Ynvhd4FvAScvIgjnlIAEJCABCRRE4Jzmh7mlUorP7wIs9RxREIoqU1HAqrLs3SatgNUtzxK9KWCVWFVzGiKB+D6+b3MCT/SxevACRZ3YWncpcFrT7Dwaq15/hIAV/4XtX4DLgAubh864dllj7aapfPwKe7NGvIq8lyVgRU+vODXxCY3oFf/3osbZwI+aX44PAOKkQ4cEJCABCUhAApMRiB+ENk9cEs9A/p2djOtYrBWwxlKpAcepgDXg4gwkNAWsgRTCMIolEN/DIYrECYIrN6uu5plsCE/fB14IXFuoCmEqPrt4gUv5o09G/Hftv1WrNE1gnwvcfM4i3+XNQ/UlwO2aVWfzrJVzSUACEpCABMZMYG/gtYkE1mx+EBtznsa+bAIKWN4ZMxNQwJoZYfEOFLCKL7EJLoBA9LT6D+ApzSmCfYYQ2/xia99FzSR/bub8Yp+Tztl3rOZ6KfDoZlti9A67RdPwvs9QYqtDCGkh/P2q2VLZ53z6loAEJCABCYydwLUPUFlWLtsAJ4w9SeNfJgEFLG+MmQkoYM2MsHgHCljFl9gE50hgU+Cezba4x/U0bzwYhpjy7Wb1VCzD/0Dzf/c05eDcRg+xnYGNm22KdwDu0fzvfQQbWyjjZKVzgY8pZPWBWJ8SkIAEJFAIgZSAdWrzrFRIuqZxLQIKWN4OMxNQwJoZYfEOFLCKL7EJzoHAqsBhwB2b3g9df/dGL6o4Pe/Ypi9VnJ73zUbAmkN6g54i+mv9Z/MwHE3jQ9TaHViph6hDLPwI8FHg0wvcetlDarqUgAQkIAEJdELgj00fzDZnXT8ndRK4TmYmoIA1M0Id+OXgPZAioICVIuTnEliawI2BI4G7AZv0AOo3wCObRurRQD1OA3S0Ewgxcf2mcfx2jZgVTeW7HPFwfkHTkP+TXTrWlwQkIAEJSGDkBN7T9P1UwBp5IacIXwFrCmhecl0CCljeESkCClgpQn4ugesSiNPy4rS92MK2X4dwrmgaiIc4shvwmQ596+pfQuPWTSP9ELS6+vsY/bGeD3zNY8G9zSQgAQlIQAKsC/wuwWED4NeyKo6AAlZxJZ1/Ql09oM8/cmecFwEFrHmRdp6xE4jtaXcG7gMc3lEysTXwbOCnwI+aRuUdudbNEgTieO84kXGtpm9WiJFdjM8320hPA2LlnEMCEpCABCRQI4EcASt+qHtTjXAKz1kBq/ACzyM9Bax5UB73HApY466f0c+HwC2BPYBHNf2WZp01Vlvt26zYOQWI/xzzJRCrsB4P3Ap4XvM/u4jgU8D7gY8Df+/CoT4kIAEJSEACIyIQpwT/NnGwSvTxvO+IcjLUPAIKWHmctGohoIDl7ZEioICVIuTnNROI7YJx1HP0VLprByBiZc4bgO8D37EJeAdEu3FxF2BN4InArh1sL/wTcE5zGmVqG0U3GehFAhKQgAQkMAwCcVLw94Bbt4RzRrOqfRgRG0VXBBSwuiJZsR8FrIqLn5m6AlYmKM2qIxB9jQ4CVuwg80uBaC4eI3W8dAfT6WIGAvF3M04YjOb5s46odfTIilMSr5zVmddLQAISkIAERkAgnnfix7p4jlpqKGCNoJBThKiANQU0L7kuAQUs74gUAQWsFCE/r4lAiFX3aLb3PXTGxKOvVfwXD3Ffn9GXly+GwO5APIzFCZPRM2vaEeLV65oTK21aOy1Fr5OABCQggbEQiBXNx7cEGz/uPKTZajiWnIwzTUABK81IiwQBBSxvkRQBBawUIT+vhcADgC2AvYHlZkg6Tg/8IXAMcPoMfrx0GARWAp4KbNo0f49tpdOOLwEfA97qiqxpEXqdBCQgAQmMgEBKwIqt9s8BPjyCXAwxn4ACVj4rLZcgoIDlrZEioICVIuTnpRMIgWJPYIdmpc20+Z4FvASIU+hilY1bBaclOczr4u/pY5tfjGNbxLRC1uXAJ4H3NI3eh5mtUUlAAhKQgASmJ7BNQpyKU5jf3PwwNP0sXjk0AgpYQ6vICONRwBph0eYcsgLWnIE73aAIrAJEY/U1gBCyphmxPSwalV4C/HUaB14zKgJxz6wOfBG40wyRxwmFT/fX5xkIeqkEJCABCQyVwCOADwBrtwT49mYV1lBzMK7JCShgTc7MK65HQAHLWyJFQAErRcjPSyQQJ87tD+w0ZZP2+OUwTpk7EHhHiYDMKYvATYBvAOsmHtLbnIUAelsgTiu8LGtWjSQgAQlIQALDJhCHl7wTuK8C1rAL1XF0ClgdA63RnQJWjVWfLGcFrMl4aT1+Ak8C/hvYfspUTm56XO0GxHYwhwRiq8SWwNOAaf7uhngVWyni12qbvHs/SUACEpDA2AnESYTxdy1+KFxqHAXs4rPU2Et9nfgVsIoq52KSmeZBejGROuuiCChgLYq8886bwArNiYDPBlabYvLzgfc2J8nF6TkOCVybQDT+3xG4T+KBfSlq0TMttiWGMHqmaCUgAQlIQAIjJ3BwosfVScCzgN+PPE/D//8EFLC8G2YmoIA1M8LiHShgFV9iEwTihMHXAvcHQsiadMRpgls3D1kXT3qx9lURiH5qsbrvVcA6U2QePdm+D2w1xbVeIgEJSEACEhgKgZSA9VPgGc1W/KHEbByzEVDAmo2fV0+5lUFwdRFQwKqr3rVlGyfFPQz4zBSJx/bAi4Do4/CHKa73Egn8AFgfiJ5rk44PAs9tDgaInmsOCUhAAhKQwJgIHNSswGpbUBEnQB8zpqSMtZWAApY3yMwEXIE1M8LiHShgFV/iahO8O3Bv4PApCIRg9TbgLcAfp7jeSyRwDYENgOOAuwJxguEk4+zmsIH3THKRthKQgAQkIIEBENgTeDVwo5ZYFLAGUKgOQ1DA6hBmra4UsGqtfH7eClj5rLQcD4FHAoc0q6cmjToetn4EHD/phdpLYAkCtwEeDbwSuPkUlOKe3BeIEwsdEpCABCQggTEQiANzjmxO6l0qXgWsMVQyP0YFrHxWWi5BQAHLWyNFQAErRcjPx0QgGmk/plk9dasJA78QiF8L3w1cMeG1mksgh8DdgF2bnh859tfYxP34UeD1wP9OcqG2EpCABCQggQURuDEQJzf/V8v8ClgLKk5P0ypg9QS2JrcKWDVVe7pcFbCm4+ZVwyRwIrDlFP3/PtVcFyfBOSTQN4G4R+NenfRvdAhZD7bhbd/l0b8EJCABCXRE4NvAvVp8vQh4MxB9Rx3jJ6CANf4aLjyDSR+OFx6wAcydgALW3JE7YQ8ENgY+B2w0oe84XfB7U6yImXAazSVwAwLRE+sVwBOmELLiVM1vAAqu3lgSkIAEJDBkAikB68Dm1F5PeB5yFfNjU8DKZ6XlEgQUsLw1UgQUsFKE/HzIBGLLYGzLikbtm08QaJzqFoLXs4DfTHCdphLomsAbgJ2AtSd0HCcUxiqucye8TnMJSEACEpDAvAikBKyvNz/keGDOvCrS7zwKWP3yrcK7AlYVZZ4pSQWsmfB58YIJbNP8cnenCeKIXlevAz4A/HqC6zSVQF8EHg5EH5D/mWCC+LU6HvxfCnx/gus0lYAEJCABCcyLwCnAfVomuwTYFPjlvAJynl4JKGD1ircO5wpYddR5liwVsGah57WLJBAn22wHrDZBELHlah3gb/ZbmICapvMgEMeMHwc8doLJ4n7+C7AJcMEE12kqAQlIQAISmAeBjwFbJSaKNhA/n0cwztE7AQWs3hGXP4ECVvk1njVDBaxZCXr9vAmsBbx3wmbtsVrlbOChwJ/nHbDzSWACAns3Pdk2nOCaMI3+b7+Y8BrNJSABCUhAAn0SiBYPcfpu21DA6rMC8/WtgDVf3kXOpoBVZFk7TUoBq1OcOuuZQKyeitNqnjzBPNFX4YBG9LLHwgTgNF0YgVsB7weiWXvuOB+IB8ev2dw9F5l2EpCABCTQM4GnAe9RwOqZ8nDcK2ANpxajjUQBa7Slm1vgClhzQ+1EMxKI77NYiv64CfzEFqtYun7SBNdoKoEhELgd8BZgCyAOK8gZscrwecAXgDiowCEBCUhAAhJYJIHbZGwPdAXWIivU7dwKWN3yrNKbAlaVZZ8oaQWsiXBpvCACKzSNqjebYP5YkRIv/2dOcI2mEhgSgf9oGrsfNEFQfwDiF+/PTHCNphKQgAQkIIE+CMS7aOoHldsDP+1jcn3OnYAC1tyRlzehAlZ5Ne06IwWsronqr0sC8R0WPa8+Cdw70/HlwInAbsBvM6/RTAJDJnBL4MfA6hMEuXOzbTb+PTgkIAEJSEACiyIQq+HbRvzY+KVFBee8nRJQwOoUZ53OFLDqrPskWStgTUJL23kTiMbUb2oatufMHS/r+wP7AlfkXKCNBEZC4F7AsUBsLcwZ/wRe3lwTq7IcEpCABCQggUUQSAlYIXocv4jAnLNzAgpYnSOtz6ECVn01nzRjBaxJiWk/LwI3B94F/PcEE74QOHQCe00lMCYCDwSOAqJfSM74G3Ak8DrggpwLtJGABCQgAQl0TCAlYL2kOWyn42l1twACClgLgF7alApYpVW0+3wUsLpnqsfZCawNfB64W6arK4Edm9UmmZdoJoFREog+cF8F4t9IzrioEb1iS61DAhKQgAQkMG8CKQHrOGC7eQflfL0QUMDqBWtdThWw6qr3NNkqYE1DzWv6JBA9r04B7pA5yaXALhnHNGe600wCgycQf9s/BTxqgkhD4H3vBPaaSkACEpCABLogkBKwzprgma+LePTRHwEFrP7YVuNZAauaUk+dqALW1Oi8sAcC6wHvmGDb4O+AfYC39xCLLiUwZAKxAutlQDRrXyMz0Oc0q7Euy7TXTAISkIAEJDArgfibs2LCie+ss1IexvUKWMOow6ij8Mtg1OWbS/AKWHPB7CQZBNYEjgDij1/OiFPZXgvE0nOHBGokcBNgp+bQglUyAJwHPB/4GBDbbh0SkIAEJCCBvgnEj43rKmD1jXkQ/hWwBlGGcQehgDXu+s0jegWseVB2jhSB+K76LPDwlGHz+enNi/jJmfaaSaBUAis1KxZPyEzwF8D2wDcy7TWTgAQkIAEJzELgB8CdFbBmQTiaaxWwRlOq4QaqgDXc2gwlMgWsoVSi7jh+CNwxE8G3gV2B/wVSfRUyXWomgVETiL/1DwK+nJlFNHaPkwz/mGmvmQQkIAEJSGBaAvG36cEKWNPiG9V1ClijKtcwg1XAGmZdhhSVAtaQqlFfLLFtMLYAPjIz9TOAZwHfyrTXTAK1EFgOeFLTDy63J9ZGQKzIckhAAhKQgAT6InASsKUCVl94B+VXAWtQ5RhnMApY46zbPKNWwJonbee6NoHo37N/c4JgvHynxtnA7sAnUoZ+LoFKCSwPPBt4XWZj998D2wJfr5SXaUtAAhKQQP8EDmqe39pm8p21/zrMYwYFrHlQLnwOvwwKL3AH6SlgdQBRF1MReDpwCBBCVmr8Cnga8NWUoZ9LoHICKwM7NKd55qCIwxCiEfwpOcbaSEACEpCABCYk8ELg4MQ1vrNOCHWg5gpYAy3MmMLyy2BM1VpMrApYi+Fe+6zrAdGI/aYZIC4AQuyKlVf2vMoApkn1BFYAXgAcmEEi/k3F9o4QseyJlQFMEwlIQAISmIjAjsC7FbAmYjZWYwWssVZuQHErYA2oGAMNRQFroIUpOKxYcRUvyitm5BjNpl80wWqSDJeaSKAKAqsBHwQeDeRs0Q27z1RBxiQlIAEJSGCeBO4GfE8Ba57IFzaXAtbC0JczsQJWObXsKxMFrL7I6ndZBO4AHA9sloHncuC1wL4ZtppIQAI3JBAne8av3vfMhKOIlQlKMwlIQAISyCaggJWNavSGClijL+HiE1DAWnwNhh6BAtbQK1ROfOsCbwG2zkxpN+BNmbaaSUACyybwQOA9wG0yAF3SNIE/JsNWEwlIQAISkEAOgWgbcW7C0HfWHJLDt1HAGn6NBh+hXwaDL9HCA1TAWngJqgggtjBt12wFvFFGxtGE2pfoDFCaSCCDwJ2AHwA5zwQ/A54FfDnDryYSkIAEJCCBFIFoGXGZAlYKUxGfK2AVUcbFJpHzsLrYCJ190QQUsBZdgTrmXxP4c+YL9N7AARkPO3WQM0sJdEMgROQrM13F1t19gCsy7TWTgAQkIAEJLEVAAauee0MBq55a95apAlZvaItxrIBVTCkHm8imwJkZ0cVpaCcDuwA/ybDXRAISmIzA5sDHgZtnXPYc4O0ZdppIQAISkIAE2ggoYNVzfyhg1VPr3jJVwOoNbTGOFbCKKeUgE4kTB+Nks3tnRBcnEz4N+HSGrSYSkMDkBFYFXgnsCSyfuDwE5djKe+zk03iFBCQgAQlI4N8EFLDquRkUsOqpdW+ZKmD1hrYYxwpYxZRykInsAbwGWC0juocBX8yw00QCEpieQDRzfx9wnwwXse13HeCqDFtNJCABCUhAAssioIBVz32hgFVPrXvLVAGrN7TFOFbAKqaUg0tkW+BoYJWMyDbL3GaY4UoTCUggQWAN4OfATTNIxYrIx2TYaSIBCUhAAhJQwKr7HlDAqrv+nWSvgNUJxqKdKGAVXd6FJbcucELG1sFY2RF9dmJL08ULi9aJJVAfgZWA84C1E6nHVsJDgJfY1L2+m8SMJSABCXRA4MbARQk/vrN2AHoALhSwBlCEsYfgl8HYK9h//ApY/TOucYZXA6/KSPx7wDOA0zNsNZGABLolsBNwZIbL/wWe7r/TDFKaSEACEpDA9QncDYjnvbbhO2sZ940CVhl1XGgWfhksFP8oJlfAGkWZRhXki4A3ZkT8C2A74NsZtppIQALdE4hDFg5uROSU988D22T8ip7y4+cSkIAEJFAXAQWseuqtgFVPrXvLVAGrN7TFOFbAKqaUg0gktiOdBtw6I5q49w7LsNNEAhLoj0D8m30nsHXGFHEgQ6yudEhAAhKQgARyCcSPle9PGPvOmktz2HYKWMOuzyii88tgFGVaaJAKWAvFX9Tk0VPnQ8BWGVlFA+mNM+w0kYAE+ifwxKYXXU5T97WAv/YfkjNIQAISkEAhBHK2q/vOWkaxFbDKqONCs/DLYKH4RzG5AtYoyjT4IOO7JnrkHAqsnoj2u8B9bQg9+JoaYF0E3gI8NyPlc5rDGf6UYauJBCQgAQlI4CBg9wQG31nLuE8UsMqo40Kz8MtgofhHMbkC1ijKNPggNwCOBh6YiDROoYkVWl8efEYGKIH6CBzVCNFtmcdpoXFAw4H14TFjCUhAAhKYgsD7gKcoYE1BbnyXKGCNr2aDi1gBa3AlGVxACliDK8koA9oXeHlG5IcDewF/z7DVRAISmC+BEKLjcIXUs8N5QGwJ+dR8w3M2CUhAAhIYIYHPAQ9XwBph5SYPWQFrcmZecT0CqYdQgUlAAct7oAsCV2c4iQeYxwKXZdhqIgEJLIZA/Bs9MWPqFwCx7fDKDFtNJCABCUigXgLROuIeClhV3AAKWFWUud8kFbD65VuCdwWsEqq4uBxWAf4GrJgIIUSrlzQ9shYXrTNLQAIpAjcCDgaenTIEtgQ+mWGniQQkIAEJ1EvgV8D6ClhV3AAKWFWUud8kFbD65VuCdwWsEqq4uByi6fNhwHKJEKJfzp6LC9OZJSCBCQg8BjgCuFXimthuuNEEfjWVgAQkIIH6CETbiNUUsKoovAJWFWXuN0kFrH75luBdAauEKi4mh02BDwKbJaa/ALglcOliwnRWCUhgCgLR0y5626XGezIav6d8+LkEJCABCZRL4KpEb8VzM34wKZdOWZkpYJVVz4Vko4C1EOyjmlQBa1TlGlSwcRLZ3sDyiajuD3xjUJEbjAQkkCKwMnBJRkP3EKjXAXL64KXm9HMJSEARapXZAAAgAElEQVQCEiiPQOrvwyeaHqnlZV5fRgpY9dW884wVsDpHWpxDBaziSjqXhB7WNHpeNTHbUcAewF/nEpWTSEACXRIIEevijC3C0Qfr8cAVXU6uLwlIQAISKIJASsDaB3hlEZmahAKW98DMBBSwZkZYvAMFrOJL3HmCKwHR0+r5Cc/nADsBX+k8Ah1KQALzIvBhYJvEZD9r/q1/dV5BOY8EJCABCYyGQErAeirw/tFkY6BtBBSwvD9mJqCANTPC4h0oYBVf4s4TjKbNIU61jSubJtC7dj67DiUggXkS2Bh4H7B5YtIPNaL2H+YZnHNJQAISkMDgCaQErEcBnx18FgaYQ0ABK4eSNq0EFLC8QVIEFLBShPz8+gTi5LENE1h+A9wD8GXW+0cC4yYQPe72AmKLR9uIflkPBb417nSNXgISkIAEOiaQErDuDJzR8Zy6WwwBBazFcC9qVgWsosrZSzIKWL1gLdZprMLIeUHdD3hFsRRMTAJ1EVgR+EhGk91fN+J26mWlLnpmKwEJSKBeAvH347JE+rHS9+f1IioqcwWsosq5mGQUsBbDfUyzKmCNqVqLjfVGwHeBTRNhxK9o8WuaQwISKIfAy4A4eTR64LWNLYAvlZO2mUhAAhKQwAwEtgVii3nbUMCaAfDALlXAGlhBxhiOAtYYqzbfmBWw5st7zLPtCBwCrJlI4iE2bh9zmY1dAssksBzwe2CdBJ8LgJvJUAISkIAEJADEivz4AUQBq47bQQGrjjr3mqUCVq94i3CugFVEGXtP4iZNU/YnJWZ6PfBq4NLeI3ICCUhg3gTuBXw7Y9L4DnhNhp0mEpCABCRQNoEPAiFqKGCVXedrslPAqqPOvWapgNUr3iKcK2AVUcbek9geODoxy1VALBU/ofdonEACElgUgXOB9RKTnwLcb1EBOq8EJCABCQyGQPw9uI8C1mDq0XcgClh9E67AvwJWBUWeMUUFrBkBVnD5jYEDgWcncj0MeCFwZQVMTFECtRK4HfAjYIUWABc1W0YOrxWSeUtAAhKQwP8RiFW7sXp3qRF/Tx4GnCevIggoYBVRxsUmoYC1WP5jmF0BawxVWmyMm2Ucbxy9cXYBPr7YUJ1dAhLomcDawDuAbRLzvA+Ivy9/7jke3UtAAhKQwHAJpASsI4AXAX8fbgpGNgEBBawJYGm6bAIKWN4ZKQIKWClCfn4y8IAEhnhAuS8Q2wgdEpBA2QS2A44CVmlJM5q5R8+8L5aNwuwkIAEJSKCFQErAigbvBwGXSbEIAgpYRZRxsUkoYC2W/xhmV8AaQ5UWF+PywBUZ098G+GWGnSYSkMD4CawMHAlEb7y2sRPwboXt8RfcDCQgAQlMSSAlYD0to8fqlFN72QIIKGAtAHppUypglVbR7vNRwOqeaUkeTwXunkjoV8CGJSVtLhKQQJLA3k2fq7ZVWFcDNwf+mPSmgQQkIAEJlEbg/sCxwAYtie0AHFNa4hXno4BVcfG7Sl0BqyuS5fpRwCq3trNmtj4QAtY6CUcbAb+YdTKvl4AERkUgni+i+e4dElE/H7CZ+6hKa7ASkIAEOiHwAmBfIA4DWmooYHWCejBOFLAGU4rxBqKANd7azStyBax5kR7fPK8D9gBWbAn9q8AWnjw4vuIasQQ6IBA9ro5L+Im+eLEV2SEBCUhAAnURiOfIPRN/AxSwyronFLDKqudCslHAWgj2UU2qgDWqcs0t2DWbF9NHJmZ8HHDS3KJyIglIYEgE4hkj5+CGaNIbLzIOCUhAAhKoh8DBwAtb0j0f2BH4TD1Iis9UAav4EvefoAJW/4zHPoMC1tgr2E/88cARDx5t4yxgW+CMfkLQqwQkMAICdwR+mPFdkdpqOIJUDVECEpCABCYgkBKwPgvsDPxmAp+aDpuAAtaw6zOK6BSwRlGmhQapgLVQ/IOcfFXg1cCLW6KLVRexquINg8zAoCQggXkRWAs4G7hpy4TnAlsCp80rKOeRgAQkIIGFElgBOAR4XksU0bz92cAlC43UybskoIDVJc1KfSlgVVr4CdJWwJoAViWmsaLiU0A0cV9q/KRZ9h3HIzskIIF6CawExImEr0ggeBewU72YzFwCEpBAVQTiGfII4FEtWb8deE5VVMpPVgGr/Br3nqECVu+IRz+BAtboS9h5Ao9uBKw2x9Gv4DHA1Z3PrkMJSGBsBKIX3scTQX+3EbBOH1tyxisBCUhAAhMTeBBwLHArBayJ2Y35AgWsMVdvILErYA2kEAMOQwFrwMVZUGgXA7GNcKlxGfAi4LAFxee0EpDAsAjEKYMHALsnwooVWLESyyEBCUhAAmUTeCJwfCJFV2CVdw8oYJVX07lnpIA1d+Sjm1ABa3Ql6zXgNYALEzNcANys1yh0LgEJjI1AbCGMrYSxpXCpsS+wH/DPsSVnvBKQgAQkMBGBlIB1EfByfwydiOkYjBWwxlClgceogDXwAg0gPAWsARRhQCEcDuyaiOf1wF4DitlQJCCBxRPYDPgQ8J8toYRwdRfgp4sP1wgkIAEJSKBHAikB6xdNK4roqeooh4ACVjm1XFgmClgLQz+aiRWwRlOquQQa2wNXTMx0Y+Afc4nGSSQggTER+Bpw/0TAIXD5wjKmqhqrBCQggckIxErc+KEzTrReapwJ3B24dDLXWg+cgALWwAs0hvAUsMZQpcXGqIC1WP5Dmv3eQLyAxtHHS42zgDsMKWhjkYAEBkPgzsBpQNuzx3nAeoOJ2EAkIAEJSKBrAjcFvgLEytylxhlA/M1wlEVAAausei4kGwWshWAf1aQKWKMqV6/Bfgl4SGKGeNiIhw6HBCQggWURuCohYMU1Ppt470hAAhIol8AtgF8nVvTHjx3/VS6CajNTwKq29N0l7kNidyxL9aSAVWplJ8trdeAzwH1bLovm7rFKy+0/k7HVWgI1EXgvsEMi4e2A42qCYq4SkIAEKiKwLvC7RL5HALtUxKSWVBWwaql0j3kqYPUItxDXCliFFHLGNOKF8xBg7RY/0eD9ZUCcHOOQgAQksCwC0UMveum1jT8ANxefBCQgAQkUSSBHwLoncGqR2dedlAJW3fXvJHsFrE4wFu1EAavo8mYntw/wioT1c4C3Z3vUUAISqJXA1YnELwBuVisc85aABCRQOIGcZ8po9H554RxqTE8Bq8aqd5yzAlbHQAt0p4BVYFEnTClWXR0KbN9y3bnAzsCnJ/StuQQkUB+BLYAvtKR9BfBmYI/60JixBCQggeIJRP+rWyey9B21zNtAAavMus41K78c5op7lJMpYI2ybJ0G/TDgJGCVFq/HZPS16TQonUlAAqMlEL30vpGI/kRgq9FmaOASkIAEJLAUgdQq3PhR9FbiK5KAAlaRZZ1vUgpY8+U9xtkUsMZYtW5j3rIRsJbyemWzdfB53U6rNwlIoFACtwXeD0SPk6VGrNB6IhCHQzgkIAEJSKAcAikBa/em72o5GZvJNQQUsLwXZiaggDUzwuIdKGAVX+LWBKPh8n7Ani1WvwceA3y/blRmLwEJZBJYoTnw4TUt9iFc7Qa8J9OnZhKQgAQkMHwC2wIfSoR5y4xTCoefqREui4AClvfFzAQUsGZGWLwDBaziS9ya4BoZKyB+DmxcNyazl4AEJiQQovgBiWteCrxhQr+aS0ACEpDAcAl8GXhwIrybAH8bbgpGNgMBBawZ4HnpvwgoYHknpAgoYKUIlf35OkAcad82vglETxuHBCQggVwC/91sPW7rc/J64NXApblOtZOABCQggUETOAfYqCXCWH0bDd4vGnQWBjctAQWsacl53b8JKGB5M6QIKGClCJX9+Y7AuxMpPgr4bNkYzE4CEuiYwHLAR4HHtfiNF52tgTM6nlt3EpCABCQwfwLLA2cDt2mZ+ggg3j0um394zjgHAgpYc4Bc+hQKWKVXePb8FLBmZzhmD78C1k8k4PfImCts7BJYHIEQsB7fMn00+n1AxomFi8vAmSUgAQlIIJdAnCwbP4qu1XJBHN5xApBq9J47p3bDIqCANax6jDIaXzxHWba5Bq2ANVfcg5ss9QDxR+A/Bhe1AUlAAmMg8EzgMGDVlmBDwPr6GJIxRglIQAISaCUQq6t2AmIF7lIjDgX6tByLJaCAVWxp55eYAtb8WI91JgWssVZu9rhj5VWswGobewAHzz6VHiQggQoJxHaS84DotbfUiFMIn+Gv8RXeHaYsAQmURuBoYPuWpP7RbCv/UmmJm8+/CShgeTPMTEABa2aExTtQwCq+xEsmeCAQAlXbWK95Aa2XkplLQAKzEIhDItoErCuBFRWwZkHstRKQgAQWTmBt4L3Ali2RHNf0v4rV/Y4yCShglVnXuWalgDVX3KOcTAFrlGXrJOjTgTu1eLq86Y/1+05m04kEJFAjga8AD0okHttNUtuZa2RnzhKQgATGQiBOnj0SWLcl4Dh59uXAVWNJyjgnJqCANTEyL7g+AQUs74kUAQWsFKFyP08JWN8B4gTCv5SLwMwkIIGeCWwI/EIBq2fKupeABCSwWALPAt4OtL177gvsvdgwnb1nAgpYPQOuwb0CVg1Vni1HBazZ+I316o2AzwEbtySwLfDhsSZo3BKQwGAIpFZXRT+ULQYTrYFIQAISkMAkBOJ9c9fm0I6lrot+iM8BPj6JY21HR0ABa3QlG17ACljDq8nQIlLAGlpF5hPP7sBrgdUUsOYD3FkkUDGBlIAVfbBWqJiPqUtAAhIYM4HYNnhM4oeIU5pV/ReNOVFjTxJQwEoi0iBFQAErRcjPFbDqvAfeBuzSkvo/gScBJ9aJx6wlIIEOCXwVeGDCn88rHQLXlQQkIIE5EtgU+B6wSsuc0Q/xIXOMyakWQ0ABazHci5rVB8KiytlLMgpYvWAdvNOUgPUj4GnAqYPPxAAlIIGhE4jtgV9QwBp6mYxPAhKQwFQE4kCg6Ku61IhVuAcBe07l3YvGREABa0zVGmisClgDLcyAwlLAGlAx5hRKbBs8Anhqy3yHAi+cUzxOIwEJlE3g9sBPEimGYH502RjMTgISkECRBN4CPLclsyuAONDj3CKzN6lrE1DA8n6YmYAC1swIi3eggFV8iW+Q4GbAu4B7taR+CBB9shwSkIAEZiWQI2CdDDxo1om8XgISkIAE5k7gksT2wcuBleYelRMugoAC1iKoFzanAlZhBe0hHQWsHqAO3OUTgfcCN2qJ82Bgj4HnYXgSkMA4CMRpp98F1moJNxr83m8c6RilBCQgAQlci0DqoI5vAveVWBUEFLCqKHO/SSpg9cu3BO8KWCVUcbIctk9s1YkG7vsA+0/mVmsJSEACyySwBvBG4FkKWN4hEpCABIoi8GrgVYmM4seJ+JHCUT4BBazya9x7hgpYvSMe/QQKWKMv4cQJpASs3wLPAD4/sWcvkIAEJHBDAvEsEuLV2xWwvD0kIAEJFEXgAmDtREbLA1cVlbXJLEVAAct7Y2YCClgzIyzegQJW8SW+ToLxEPEc4LCWtL8DbF4XFrOVgAR6JhCiePTeW2qcBcSDb9tJVj2HqHsJSEACEpiAwI2B3wGrt1xzPnCLCXxqOm4CCljjrt8golfAGkQZBh2EAtagy9N5cNH3aj9gNwWsztnqUAISWJpASsC6rNm6vK8QJSABCUhgFATiHSK2h7c1aH8y8MFRZGOQXRBQwOqCYuU+FLAqvwEy0lfAyoBUkMnNgU8A91DAKqiqpiKB4RNICVjRBDhehF4y/FSMUAISkIAEgI8BWyVIxIr+WNnvqIOAAlYdde41SwWsXvEW4VwBq4gyZidxG+CnwAotV3icfTZODSUggUwCj2u2EN6sxT4ErBdn+tNMAhKQgAQWR2BV4CRgi5YQzgSe0Dx3Li5SZ54nAQWsedIudC4FrEIL22FaClgdwhyBq42AcxJxHg08bQS5GKIEJDAeAus1AtajFLDGUzQjlYAEJLAEgWcDBwGrtRDaG3g9cIUUqyGggFVNqftLVAGrP7aleFbAKqWSeXnkCFixheeAPHdaSUACEsgisFwjYO2ogJXFSyMJSEACQybwcqCtZ2FsC38h8KYhJ2FsnRNQwOocaX0OFbDqq/mkGStgTUps3PY5AtbGwM/HnabRS0ACAyMQzyPvBKIX1lLDLYQDK5rhSEACElgGgVhR+zYgtoYvNaJdxU7A1yRYFQEFrKrK3U+yClj9cC3JqwJWSdVM53Jn4AcJM7830hy1kIAEJicQAtYzWy77FLAL8JvJXXuFBCQgAQnMicD9gS8AK7fMFw3eQ8y4fE4xOc0wCChgDaMOo47CF9FRl28uwStgzQXzYCbZsmm62RaQ3xuDKZeBSKAoAikB65fAU4FTisraZCQgAQmUReDBwJcTKX0Y2LastM0mg4ACVgYkTdoJ+CLqHZIioICVIlTW588F3pJIye+NsmpuNhIYCoGUgBWNfuPEqjjZyiEBCUhAAsMjEKdYx+mCm7SE9ifg3hmHBg0vOyOalYAC1qwEvR5fRL0JUgQUsFKEyvr8yKYnQVtWfm+UVXOzkcBQCKQErKsaAevjQwnYOCQgAQlI4DoEVgQuSzA5D4g+WY76CChg1VfzzjP2RbRzpMU5VMAqrqStCZ0K3D2Rst8bdd0TZiuBeRF4KxBHr8eJhEuNxwMKWPOqiPNIQAISmIzA/sBeiUteAew3mVutCyGggFVIIReZhi+ii6Q/jrkVsMZRp66ijC06y7c4uxBYs6vJ9CMBCUjgWgTiSPV9gNVaqGwNRPNfhwQkIAEJDI9ArL6KVVhtI5q7p1ZpDS8zI+qCgAJWFxQr96GAVfkNkJG+AlYGpIJMrk7kcnair0FBKExFAhKYM4E4ROIoYB0FrDmTdzoJSEACsxNYF/hdws35wC1mn0oPIyWggDXSwg0pbAWsIVVjmLEoYA2zLn1FlRKwvgfco6/J9SsBCVRNYH3gq8CGClhV3wcmLwEJjJNArI7dKhG628DHWduuolbA6opkxX4UsCoufmbqCliZoAoxSwlYJwMPKiRX05CABIZFYCXgjMQqT7cQDqtmRiMBCUggCKwCfD2jj+rGwM9FVi0BBaxqS99d4gpY3bEs1ZMCVqmVXXZeKQHrbcBz60JithKQwJwIRN+UELBu3zKfAtaciuE0EpCABCYgEO8L0Zj9xi3XvB3YE/j7BH41LYuAAlZZ9VxINgpYC8E+qkkVsEZVrpmDTQlYBwN7zDyLDiQgAQnckMAKwA8VsLw1JCABCYyKQBz+cwjw/ETU2wPHjiozg+2agAJW10Qr9KeAVWHRJ0xZAWtCYCM3TwlYrwZeM/IcDV8CEhgmgXgJOlMBa5jFMSoJSEACSxD4L+A9wJ1bCP0aeDrwJSlWTUABq+ryd5O8AlY3HEv2ooBVcnVvmFtKwIqHj3hIcUhAAhLomoACVtdE9ScBCUigfwJPBI5PTBPPjrsAl/YfjjMMmIAC1oCLM5bQFLDGUqnFxamAtTj2i5hZAWsR1J1TAhIIAgpY3gcSkIAExkXgJsAHgUe2hH0JsA/wunGlZrQ9EFDA6gFqbS4VsGqr+OT5KmBNzmzMVyhgjbl6xi6BcROwifu462f0EpBAfQTWBX6XSDu2ht8NuKw+PGZ8PQIKWN4SMxNQwJoZYfEOFLCKL/F1ElTAqqveZiuBIRFQwBpSNYxFAhKQQJrA84DDEmYnAlulXWlRAQEFrAqK3HeKClh9Ex6/fwWs8ddwkgxSAlYcf3zgJA61lYAEJJBJQAErE5RmEpCABAZCIFZVxXd329gEOHsg8RrGYgkoYC2WfxGzK2AVUcZek1DA6hXv4JynBKyDgT0GF7UBSUACJRBYCTgDiJedpcbWwMdKSNYcJCABCYycwIuANyZyiKbtq4w8T8PvjoACVncsq/WkgFVt6bMTV8DKRlWEoQJWEWU0CQmMkoAC1ijLZtASkEClBM5K/OAQWO4NfLtSPqZ9QwIKWN4VMxNQwJoZYfEOFLCKL/F1EkwJWF8EHlYXErOVgATmRGBl4HRXYM2JttNIQAISmJ7AA4EPA+u0uPgrsD5w0fTTeGVhBBSwCivoItJRwFoE9XHNqYA1rnrNGm1KwIpf0eLXNIcEJCCBrglsCHwZiP+51HALYdfU9ScBCUhgcgJHA9snLtur6Zt6xeTuvaJQAgpYhRZ2nmkpYM2T9jjnUsAaZ92mjTolYP0Y2HRa514nAQlIoIXAzs3LzhoKWN4nEpCABAZLIH7IfCdwx5YIo7n7lsDnB5uFgS2CgALWIqgXNqcCVmEF7SEdBaweoA7YZUrAugC42YDjNzQJSGC8BA4AdkucaOUKrPHW18glIIEyCMSPDW8HlmtJ5yhgd+DCMlI2i44IKGB1BLJmNwpYNVc/L3cFrDxOpVjFCqs7JJLxe6OUapuHBIZFIH7Rf2YiJAWsYdXMaCQggboIbACcBNypJe3YMvgaYN+60JhtBgEFrAxImrQT8EXUOyRFQAErRaisz98PbKeAVVZRzUYCIyGQErBihWgIWB8fST6GKQEJSKA0AlsAX0gk9V3gscD5pSVvPjMTUMCaGaEOFLC8B1IEFLBShMr6fI+mB01bVn5vlFVzs5HAUAikBKwrgScAJw4lYOOQgAQkUBmBrwJxAuFSI35oOAJ4TmVcTDePgAJWHietWgj4IurtkSKggJUiVNbnTwSOT6Tk90ZZNTcbCQyFQErAugTYBvj0UAI2DglIQAIVEVgT+Esi39g+GCfJnlsRF1PNJ6CAlc9KyyUI+CLqrZEioICVIlTW5/cCvq2AVVZRzUYCIyGQErB+CTwVOGUk+RimBCQggZII/B64eSKhvwJrlZS0uXRKQAGrU5x1OlPAqrPuk2StgDUJrfHbbgSck0gjfoHzVJnx19oMJDA0Au8CntES1JuBFwGXDy1w45GABCRQOIFNgO8BN07kGZ//o3AWpjc9AQWs6dl5ZUNAActbIUVAAStFqKzPcwSsaPJ+XFlpm40EJLBgAssDsQJrx5Y43gi8eMFxOr0EJCCBGglEe4nYwt327hinEz6uRjjmnE1AASsblYZLEVDA8t5IEVDAShEq6/McAetw4PllpW02EpDAggnE0eyxAitOuFpqKGAtuEhOLwEJVEngkU1j9viebhsPAb5SJSGTziWggJVLSrslCShgeXOkCChgpQiV9XmOgPU5IB5mHBKQgAS6IvCkRsBaTQGrK6T6kYAEJNAJgb2A/RKrr+IHiNjiHT2wHBJYioAClvfGzAQUsGZGWLwDBaziS3ydBNcD4ojk27ak/R1g87qwmK0EJNAzgeh9FS9AbcMVWD0XQfcSkIAErkfgnkBsDWxr3v5P4AXAO6QngQQBBSxvkZkJKGDNjLB4BwpYxZf4OgmuDhwIPEsBq67Cm60EFkwgJWBdDbwBiJUADglIQAIS6J/Acs137r6JqU4G/gf4Tf8hOcPICShgjbyAQwhfAWsIVRh2DApYw65P19Gt0PS3OlgBq2u0+pOABFoIpASsC4DdgGOlKAEJSEACcyGwIvBH4CYts13abC/cZy4ROcnYCShgjb2CA4hfAWsARRh4CApYAy9QD+HtALy3xe85wLbA93uYW5cSkEB9BOJZZOemSfBS2cfW5WgQfHF9eMxYAhKQwEIInABsnZj5fGAT4G8LidBJx0ZAAWtsFRtgvApYAyzKwEJSwBpYQeYQzvbA0S3z/AN4JdC2SmsOYTqFBCRQCIEbAa9pGgAvldIpwP0Kydc0JCABCQydQLSUyBGl7E049EoOKz4FrGHVY5TRKGCNsmxzDVoBa664BzHZdo2AFdsJlzWuavpkvWQQ0RqEBCQwdgK3A84AVm5JRAFr7FU2fglIYEwEPgxskwj498C6Y0rKWBdOQAFr4SUYfwAKWOOvYd8ZKGD1TXh4/u8LvLtZEr5UdIcAuw8vdCOSgARGSOD2wE8ScX8deMAIczNkCUhAAmMjsEXzHHjrROCx9fudY0vOeBdKQAFrofjLmFwBq4w69pmFAlafdIfp+6bNUchPaAlPAWuYtTMqCYyRQI6A9X7gqWNMzpglIAEJjIzAAcAeQJxCuNQ4E3g4cN7IcjPcxRJQwFos/yJmV8Aqooy9JqGA1SvewTp/G7BLS3TfBJ4J/HiwGRiYBCQwFgJ3zTgUIl6krh5LQsYpAQlIYKQEHgt8CFglEX8c+HPMSHM07MURUMBaHPtiZlbAKqaUvSWigNUb2kE7TglYfweeDHxy0FkYnAQkMAYC3wBi63Lb8HllDJU0RglIYMwEVgL2BPZNJHFq8yPm6WNO1tgXQkABayHYy5rUB8Ky6tlHNgpYfVAdvs/XAtGkPR5mlhrbAtHk0yEBCUhgFgI5K6t8XpmFsNdKQAISSBO4IxCiVNvWQU+iTnPUYmkCCljeHTMT8IFwZoTFO1DAKr7Ey0xwc+B4oK2BpwJWnfeGWUugawIpAStWfMaR7g4JSEACEuiPQM5q2J82B2r8ob8w9FwwAQWsgos7r9QUsOZFerzzKGCNt3azRL48cBqwWYuTjwPbAxfNMpHXSkACVRNYFbg4QSCOaY/j2h0SkIAEJNAPgTgk49gM11sBJ2bYaSKBZRFQwPK+mJmAAtbMCIt3oIBVfImXTDCWkd+pJf0Qrm4HnF8vIjOXgARmJPAD4M4JHzZwnxGyl0tAAhJoIRCnT38P2CBB6dcZNoKWQBsBBSzvj5kJKGDNjLB4BwpYxZd4yQRjC+ETE+mv5xHK9d4gZi6BDgjENpR1WvzE9sJYEZraZthBKLqQgAQkUCWBNwAvBFZMZH+XpkdWlZBMuhMCClidYKzbiQJW3fXPyV4BK4dSmTZxKlj0Q2gb2wAnlJm+WUlAAj0TCGHqvISA9TNgEwWsniuhewlIoFYC9wPeCdwhAeBI4PnApbWCMu9OCChgdYKxbicKWHXXPyd7BawcSmXarABcnkjtjIztP2XSMSsJSGBWArsCBwKrtDjaGvjYrBN5vQQkIAEJ3IBA/IgQz/kHAf/EdPMAACAASURBVKl3wscBJ8lQAjMSUMCaEaCXp7+sZCQBBay674H4pW2lBILUQ0/dBM1eAhJYisBHgccn8DwA+LoIJSABCUigcwL3BL6dEK9i+/Z+wCtdCds5/xodKmDVWPWOc/bFs2OgBbpTwCqwqBOkdAiwW8J+Y+DnE/jUVAISkEA8f4SAFSdaLTX+CTwE+Ja4JCABCUigcwKfBx6W8PorYCfgC53PrsMaCShg1Vj1jnNWwOoYaIHuFLAKLOoEKW0I/CJhH8cubz+BT00lIAEJxMqq6LsS/a2WGh9qeq5Eo3eHBCQgAQl0R2D3Zutgm8ergFcAr+tuWj1VTkABq/IboIv0FbC6oFi2DwWssuubym4N4MKE0dmJl9DUHH4uAQnUR2AP4I2JrSsvBeJ0LIcEJCABCXRHIFpD/DZxgEbMFn1Qbwb8rbup9VQ5AQWsym+ALtJXwOqCYtk+FLDKrm8qu2iu/IFEn5pfAv8JxHYfhwQkIIEcAi9OiFPRd+UljciV408bCUhAAhJIE4h3v08Aj0mbcivg3Aw7TSSQS0ABK5eUdksSUMDy5kgRUMBKESr78/iO2AY4viXN+IXuUCBeSB0SkIAEUgQ2AN4DPLjF8DRgByBOOnVIQAISkEA3BLYD3tysrGrz+B1g826m1IsE/k1AAcubYWYCClgzIyzegQJW8SVOJvhI4FPAci2WxzQvm0lnGkhAAtUTuC/wjQSFExMN3quHKAAJSEACExK4NXAE8OjEdecAjwV+PKF/zSWQIqCAlSLk50kCClhJRNUbKGBVfwtwG+AdiZNqvg88A4hVEw4JSEACbQRi5dWXWwxi++CHgXjQdUhAAhKQwOwE4p3v+UCcLt32g2TMtD+wj60hZoeuhxsQUMDyppiZgALWzAiLd6CAVXyJkwnG98R+wF4tlnFSzS7AkUlvGkhAArUTiIbAq7dA+DMQ2wz/Xjso85eABCTQEYEVm0N5Vk34+zwQ2wwv6Ghe3Ujg2gQUsLwfZiaggDUzwuIdKGAVX+KsBKOZ8muBOLlmqREnhh0EXJHlUSMJSKBGAvHL/5WJxP+UcTpWjezMWQISkMA0BOLZ7RfAeomLL2sOznjFNJN4jQQyCChgZUDSpJ2AApZ3SIqAAlaKUB2fx2qIjwL/1ZJu9Ex4BPDzOpCYpQQkMAWBXYHDE9fFFpfdp/DtJRKQgAQkcEMCO2WukD+uWX0lQwn0RUABqy+yFflVwKqo2FOmqoA1JbgCL/sS8JBEXnf21LACK29KEuiOQGw3Tj17LA+EnUMCEpCABGYjsGXTx3TdDDe3BH6XYaeJBKYloIA1LTmv+zeB1EOkqCSggOU9cA2BZzYPQW3NP08CHicyCUhAAssgsBHws4SAdXliq7JgJSABCUggj0D0u4oVrc/K+OEgTpz+XJ5brSQwNQEFrKnReeE1BBSwvBdSBBSwUoTq+Ty+Ly4FohFo2wiBK04Rc0hAAhK4NoGvAfdPILkT8EOxSUACEpDATATiWWwH4N0ZXt4HxPbuCzNsNZHALAQUsGah57X/R0AByxshRUABK0Wors+/Cdw7kfJjgE/XhcVsJSCBBIENgY8Dsc14qRHbBjcFzpKmBCQgAQnMROB2wHeBmyS8/Ap4BhBtIhwS6JuAAlbfhCvwr4BVQZFnTFEBa0aAhV1+e+AniZx+C9y6sLxNRwISmI3AXsCrgJVb3EQD4VgF8OfZpvJqCUhAAtUT+AjwhASFS4B9gdfbd7D6+2VeABSw5kW64HkUsAoubkepKWB1BLIgN6ntgfFA9Cjg5IJyNhUJSGB6AtGU/Q3AHgkXcVLWu6afxislIAEJSAA4FnhqBomfNtu6/5hhq4kEuiCggNUFxcp9KGBVfgNkpK+AlQGpMpN4KIqHo7YRWwhjK6FDAhKQwGOBExMY/gbEQREfFpcEJCABCUxNIA7Sib5Xayc8xI+RNwYunnomL5TA5AQUsCZn5hXXI6CA5S2RIqCAlSJU3+d3A6IZ841aUj8F2NbjmOu7Ocy4KALRBDj6p9wKWA2I/zv+y312iBekK4H7AW9MkDmqEbCKAmgyEpCABOZI4BaNeBWr4FPj1cBrUkZ+LoGOCShgdQy0Rne5D6E1sjHnfxFQwPJOuD6BdYDDgCe1oLkceClwsPgkIIFREAiRKlZKhVC1QhNxbP3bGHgAsF7z/4/PQsTKGSFexXdBjFVaLoiTr14AvDfHqTYSkIAEJHADAmsChwA7ZrA5odli+M8MW00k0CUBBawuaVbqSwGr0sJPkLYC1gSwKjLdHTgoke9ngZ2B31TExVQlMBYCdwde1AhWEXNsN4nVldFkPVeg6irX2MLyDeBPTZ+s87pyrB8JSEAClRC4P/A5YNVEvt9vRK7TK+FimsMioIA1rHqMMhoFrFGWba5BK2DNFfdoJtug6YMVD0xLjVh98VCbuY+mpgZaNoFYWfVi4FnASsCKTf+TIT0HxJbD6IUV3x2XAfsDb23+77KrY3YSkIAEZiMQ352rZ7iIAzVe5qmDGaQ06YOAAlYfVCvzOaQH18rQjyZdBazRlGrugb4H2D6xWiO2EO7pg9Lca+OEEtgEiC2AIVrFv9P438c6QtiKLS97A1cAP1fUGmspjVsCEuiYQLR1+DFw04Tf+B79ELAdkDpNuuMQdSeBfxNQwPJmmJmAAtbMCIt3oIBVfImnTjD64sTJYtF3oW2sAVw09SxeKAEJ5BK4ExBbA2N11aGJgxZyfQ7NLr5LXtGs1DoNiP8cEpCABGokEKtpDweekfEjxV+AzTxcp8bbZFA5K2ANqhzjDEYBa5x1m2fUCljzpD2+uX4FrJ8I+33A/4wvNSOWwGgIPKRZZRUvJ9HHasyrrXKhxzbDHzQCVoh1Z+ReqJ0EJCCBQgg8AXgLEKcPpsYTgY+kjPxcAj0TUMDqGXAN7hWwaqjybDkqYM3Gr/Sr75KxAiKWqs+7KXTp3M1PAkFgL2CHpgH7f1SM5HfNiqzjPBa+4rvA1CVQF4F7AZ8EbpaRdvyIGD8mOiSwaAIKWIuuQAHzK2AVUMSeU1DA6hlwAe5jWXpqG+EXgIcXkKspSGCRBOJvdvQ5uT3w5War4LzjCUH60qav3eXN5CFQXyNSx5aWWAG2KNE6YtsaOBX447zhOJ8EJCCBORCIQzliBerGGXOFsB/P8n4fZsDSpHcCCli9Iy5/AgWs8ms8a4YKWLMSLP/6BwJfTaT50+al8kfl4zBDCXROIMSgEK1ie2BsF7lJ5zNc1+F5zZa8fy6jWfo/gDiG/QIg/l3HiJOvrhGx79GIbBHj9UWsELfWAu49B4ErthjGlpmzgTN75qV7CUhAAvMk8HrgJRkTxurUXYCTMmw1kcA8CChgzYNy4XMoYBVe4A7SU8DqAGLhLmL5epxsE314lhpXAQdmPnAVjsv0JDARgRWAOPb8Ps1/E12cYRyrqD4I/PBaYlWIPl8B/t7xaX+rNL1aHg9EXjFuBGwJ3DMj1mlMvtPk8logxDeHBCQggTETeD7w5owE4vv76cCHM2w1kcC8CChgzYt0wfMoYBVc3I5SU8DqCGTBbmKVxU7AEYkcf9M0cz+5YBamJoEuCcRLSvQ5CXGnyy15cfjCs5u+USEu/wz484KOVg8hawPgmh5esUWy69UCse3xe8DpwDO7LJC+JCABCcyRwHOB1wFxunNq7NP0BIzVqA4JDIWAAtZQKjHiOBSwRly8OYWugDUn0COfJl5Aj8zoc7V900g0XigdEpDADQnE3+UtgOMzesvl8It/a/Hfr4GHAr/IuWgANtFHK1YPxMva2kBw6eKZJfrAhOB+4gByNAQJSEACuQQe1Dw/3TLjgouB6JPlkMDQCChgDa0iI4yni4fBEaZtyBMQUMCaAFblpq9qTkVbuYXDFcAmI3qJrrykpj9nAtHjKvo2xemCs47oUxVbSEIA+syCVlfNmsO1rw8mjwE2BOIFbtbnlziVK7ZKxhZDhwQkIIEhEwgx6u3NKvZUnPG9Fi0dzk0Z+rkEFkBAAWsB0EubctYHwNJ4mM8NCShgeVfkEoiXyjgZ7XaJC2KrYTQVdUhAAv8icOtGnHkNcPMZoFwCfAT4LXB4gS8w8czyaOB+wPqZL3NtOC8Edmu2LEZTeocEJCCBIRLYF3h5RmAhXu0MRKsGV7pnANNk7gQUsOaOvLwJFbDKq2nXGSlgdU20bH/RVyd+JUyN2MoUYpdDArUTWK85BOGuM2z5iNMCo99J9Hn6btPPqnSusa0whKwdga2A2HI4zQgR61TgecBPpnHgNRKQgAR6JBA/+j0rw3/8HTio+VtwaYa9JhJYBAEFrEVQL2xOBazCCtpDOgpYPUAt2GU0ZI5TzVIjjrXfLGXk5xIonMCuwH7ATWbI87+BbzbbBXP+7c0w1SAvjVMM43TDNwLPmCHCvwF3AM6bwYeXSkACEuiSQHyvvQBYMcPpj4C7AyFkOSQwVAIKWEOtzIjiUsAaUbEWFKoC1oLAj3ja+wLfSMQfvw7Gg9neI87T0CUwLYE4ae8Y4FFT9HKKbYJxomc0IY8tJZdNG0SB18VJhq8EngCsO2V+XwGeBPxhyuu9TAISkMCsBGJFabzoH3qtE1rbfMbWwegv6pDA0AkoYA29QiOITwFrBEVacIgKWAsuwAinXxX4ZNNEtC38U5oVE2eNMEdDlsC0BB7R9IDbegoH0XD8jKZvUzRodyybwAOAOPF0O+DGU0D6LLA78GP7yExBz0skIIFZCcRq0PiR4x4Zjr7V/BgS26EdEhg6AQWsoVdoBPEpYI2gSAsOUQFrwQUY4fTxvRI9aT6aiP0q4BVNzwZXkYyw0IY8MYForP7YpgH5JBf/A/gA8CYgtonEvx1HmkCc6Lhts5IhbX1di3gpjJWkL5r0Qu0lIAEJzEjgc8DDM3z8sumP9QXF9gxamgyBgALWEKow8hgUsEZewDmEr4A1B8gFThFHPh+YcdrgX4DYcmjz5AJvAlO6DoH3N0LKpM3Gr2x6M8WWtujT5JiMwFrARsAXp+g1Fj3FPg9EnzGHBCQggXkQiMM47pYxUfyQEU3b44dAfwTMAKbJIAgoYA2iDOMOQgFr3PWbR/QKWPOgXOYc0YfmLcAtEun9ELhTmQjMSgKEmBv93p4zIYvYIvg04IQJr9N8aQJfB+4MrD4hpFj9Fg3ibY48ITjNJSCBbAJxIMXHgYdlXvExYJqt6JnuNZNALwQUsHrBWpdTBay66j1NtgpY01DzmmsIHAbESWup75otm75ZkpNASQRu15wgFf8Gcsc1q37e0bzM5F6nXZpAfA9FD7JDgNsDy6Uv+bdFiPF7ARdNcI2mEpCABHIIrA0cDOyQ8bwU/qJFwzZuG8xBq83ACChgDawgYwwn9VI5xpyMuVsCCljd8qzNW6y+ihPTVkgkfnHTG+hLtQEy32IJhFDy0ozDDK4N4OpG8Ho3YJP2/m6N2Lb8QOB1E04RdYmTU8+d8DrNJSABCSxFIIT0EMh3ynhWCh/HAk8HrhCpBEZIQAFrhEUbWsgKWEOryPDiUcAaXk3GFtGDgDiavm3Ei/uHgCePLTnjlcAyCDwVeDVw2wnonA68HPjEBNdoOj2B6EUWW3U+M6GLOAlyDyC2IzokIAEJzErg0GaL+UoZjqInX2xHPyfDVhMJDJGAAtYQqzKymBSwRlawBYSrgLUA6AVOGad5xaqHlIgVzUj3LzB/U6qHQJx8d9SEfZaiwXv0WLq0HkyDyTRExiOBB08Q0c+AnTOE+QlcaioBCVRIYE/ggMy8z2vEq+iT5ZDAWAkoYI21cgOKWwFrQMUYaCgKWAMtzMjCumOz0uFWibh/DkTz9x+MLD/DlUAQeDQQYtSamTjihMFYefiUTHvN+iGwCvCm5jj63BlOa/r7nZJ7gXYSkIAEGgIrNs86sfoqddBNXBKnDO4HvFaCEhg5AQWskRdwCOErYA2hCsOOQQFr2PUZS3TxsPYiYB8gtu60jWheHUvk44hohwTGQiAa6oYIcsvMgH8FHNf0ycq8RLOeCURPrOhbljtiZemOQKzIckhAAhLIIXDN9uU4nTb3BOZYnR4ClkMCYyeggDX2Cg4gfgWsARRh4CEoYA28QCMKbwPgGOABGTFHQ9PnZdhpIoEhEIh7Ou7tuMdzxteal5Ev2og3B9dcbUJoDyErdfDENUFFT6zo8/fPuUbpZBKQwFgJxAmoJwKbZCbwbCB+2HNIoAQCClglVHHBOShgLbgAI5heAWsERRpRiHcB4qTBODK6bcTWqth2eNaIcjPUOgmsB7wX2CLz+PPvA48E/uQR6IO8YUK42hY4CFg3M8LPAo/KtNVMAhKol0Cs0P3xBD0SdwWOAOKZyCGBEggoYJVQxQXnoIC14AKMYHoFrBEUaWQhxsveIzJiPgN4OHB+hq0mElgEgdWblVTPz5w8Xlzu2vQzybxEswURiFVVbwU2zZw/GvfvBlyUaa+ZBCRQD4F439oQOBlI9QINKnGgR4jor1S8qucmqSRTBaxKCt1nmgpYfdItw7cCVhl1HFoWn2oaXrfFdTUQp+08F4jTdxwSGBqBNwAvzgzqk8Dj3TKYSWsYZrcB3gk8NDOc2PocWxDdTpgJTDMJVEAg3rWi11WcdnqvzHwPBl7mybSZtDQbEwEFrDFVa6CxKmANtDADCksBa0DFKCiUzYDoA5Q6re1iIFa3xBYtl9AXdAMUkEq8jOyUmcdHmvtYITYT2IDMol/NgcCWmTGF4LVzpq1mEpBA+QQ2ak6n3Twz1QOa0wb/kWmvmQTGREABa0zVGmisClgDLcyAwlLAGlAxCgol+sxEk/ZDMnKKXkHRD+sPGbaaSGAeBF7dbO3I+Rv6VSAe2Lx/51GZ7ueIGkfvvrcB985wH0L7w4CvZNhqIgEJlE0geiR+C7h1ZpqHNyuv3IqcCUyz0RFQwBpdyYYXcM7D9/CiNqJ5ElDAmiftuuaKo6QPbbYILpdIPbYT3gz4c12IzHaABNZvTpAKUSM1fg7cGfCX9BSp4X/+FODNwE0zQv0ZcHfgbxm2mkhAAuURiOebjYFTMxu2h/B9LLAn8MfycJiRBP5NQAHLm2FmAgpYMyMs3oECVvElXmiC/wmc1DzopQL5adM3K0QBhwQWQSBOpYs+R1tnTH42cH9XXmWQGo/Jfs3qiJyIvwg8E/hVjrE2EpBAMQRWbQ6geSOwSUZW8QPdicBLPHk5g5YmYyeggDX2Cg4gfgWsARRh4CEoYA28QAWE9z/AMRl5XA68q3nIc2VDBjBNOiWwChDbO0KUSI1YcbUDcELK0M9HRyBOBXtNRtTxUhqCV/xnU/cMYJpIoAAC8V71rOZwj+h9lTPi78RLgfjRwyGB0gkoYJVe4Tnkp4A1B8gjn0IBa+QFHEn4WwEfy4j1r83D4fEZtppIoEsCGzS/jq+ccHoVsA/weoWLLvEPxlf079sdiBMoUyO2AkXfLFeNpkj5uQTKIBAHPjytaXmQk9EHmu+T3+cYayOBAggoYBVQxEWnoIC16AoMf34FrOHXqIQIV2xWNeyVmUz0FToj01YzCcxKIHq05Z6C+W7gGbNO6PWDJhD3QwhYL8qMMuxjRZZDAhIok0C8T8V3f4hXuSNWXj0XOD/3Au0kUAABBawCirjoFBSwFl2B4c+vgDX8GpUS4X8B7wOiL1ZqxMvgfYBvpwz9XAIzEohmvN8B7pbh59PAlkCswnKUTWCSZv6fbO6LsomYnQTqJBAHO+wP7AislIEgfgz5RNOw3W2DGcA0KYqAAlZR5VxMMgpYi+E+plkVsMZUrfHH+gjgSCBeDlMj+mDFyWDxcuiQQF8EHt/ck3EKZtuIPkebAef0FYh+B0dgZ+AdGVFFT7RYmfGRDFtNJCCB8RBYDXgr8FQgfuzIGUc3gtdZOcbaSKAwAgpYhRV0EekoYC2C+rjmVMAaV71KiHYL4LMZD4OxCiseAJ8HxIlfDgl0TWBz4Chg0wzHTwI+lGGnSVkEYsVdnKSaGl9vBPffpAz9XAISGA2BzwEPA3Lfpw5reiRGfzyHBGokoIBVY9U7zjn3C7fjaXU3IgIKWCMqViGhxvdSrHrJOcEtRKzvNie++WtmITfAQNKI+zB6WcWKwNTfyrB7r1sHB1K5+YcRIufTE9PGtqHomXXo/MNzRglIoAcC/wtE64PcEX3z4lTSi3Iv0E4CBRJQwCqwqPNOKfVQPu94nG94BBSwhleTWiKKrTk7ZYgHweODzUqsP9UCxzx7JxCrrs7MmOUHTe+T0zJsNSmTQLzERv+zmyfSuxx4EPDNMjGYlQSKJxCnkMbfhhCiH5KZ7aXAW4BXArGd2CGBmgkoYNVc/Y5yV8DqCGTBbhSwCi7uwFPbADgWuH9mnHEcddyviliZwDRrJXAIsFuC0R8a4fR4WVZPYDsgtgdFQ+e2cQDwkuppCUAC4yQQP6rFSsrbTxB+rLraF4g+iQ4J1E5AAav2O6CD/BWwOoBYuAsFrMILPPD04pfO2Jp1j8w4Y9XW3kAICw4JTEvgMZmHA3yqOV0utrI66iawFhBCZvTwS43lAO+ZFCU/l8CwCMSPGrFdfI0JwooenW9ze/kExDQtnYACVukVnkN+ClhzgDzyKRSwRl7AAsK/JfB9YJ2MXC5rmm6/HPhzhr0mElgWgeintkkGmnWB32fYaVIHgbgfYttpiFlt4+zM+6sOamYpgeETOKIRr2ILYe54VvM8Ev3vHBKQwL8IKGB5J8xMQAFrZoTFO1DAKr7Eo0hwZeC8jBfDa5KJbTr7AxeOIjuDHBKBfYAXAyslgtoss0fWkHIzlv4JfBu4V8Y0dwFOz7DTRAISWByBmwDxg9ieE4QQPa9e2zyDTHCZphKogoACVhVl7jdJBax++ZbgXQGrhCqWkUOsiPkIEMJBzngX8BrAY+tzaGkTBGK13/uBByZwfAV4qNvAvGmWIBCN/e+coBNCVzSBvkSKEpDAIAk8HHgh8OgJovsZ8HbgoAmu0VQCNRFQwKqp2j3lqoDVE9iC3CpgFVTMkacSfWPiBK9olHzHzFxC8IqVWHHctUMCKQI7N6dL3ajFMLaphnj1jZQzP6+WwCOBzySy/2Nz6MRx1VIycQkMl0D0roofwNaeIMSTgOiT9eUJrtFUArURUMCqreI95KuA1QPUwlwqYBVW0JGns2IjYkVj9/UyconeEyFe7QF8LcNek3oJxOqrdwKPSiA4HNgL+Hu9qMw8QWC15uU3vnfaxqHN1qQrJCoBCQyCwPLAC4BXA6tPEJErvieApWnVBBSwqi5/N8krYHXDsWQvClglV3e8uT0C+DQQq7JyRpxKGKu3fpJjrE2VBO4DnJLIPESr3YEjqyRk0pMQeDoQL7Wp56zHAx+fxLG2EpBALwTidME4yfhJE3qPld7xUn7VhNdpLoEaCShg1Vj1jnNOPVh1PJ3uRkhAAWuERask5OhLEScD3Toz32isGj1nvplpr1ldBGI1TPzyvtS4GvgosE1dWMx2SgIhroeAtWPi+mgQ/Ubg8inn8TIJSGB2AvcEPjvBQTExYzxTxA9pW88+vR4kUA0BBaxqSt1fogpY/bEtxbMCVimVLC+PWOq/JbDfBD2xomFyvFB+qDwcZjQDgVUymmnHvfPURsSaYSovrYhArOR4W8ZL8TrAnyriYqoSGAqB2Cb4301vzZtNENSZwPHNVuEJLtNUAtUTUMCq/haYHYAC1uwMS/eggFV6hcedX/TEilVV8ZK4UWYqsZ3wFcDRzS+omZdpVjCBTzQvMW0p/hrYoGAGptY9gRDZfwTECaptI1aS7tL99HqUgARaCKwLvAl4MBAicu44uemD+F1XTuYi004C/yaggOXNMDMBBayZERbvQAGr+BKPPsHYqnN74HRghcxsYul/9K3YAYhG7466CUQT7RAb2saawIV1YzL7KQhsAXwhcV18B+V+d00RgpdIQALLIPAXIPpe5fbSDBdnAbHdMPohxrZyhwQkMBkBBazJeGm9DAIKWN4WKQIKWClCfj4UAjcFTgU2nCCgWI21OfDLCa7RtCwCz2yasrf9PTw7YxVNWVTMpksC0d8qJVDFKq24zxwSkEB/BNYGntBsGYyt47njIuBc4D9zL9BOAhJYJgEFLG+MmQkoYM2MsHgHCljFl7ioBG/XbA289wRZnQPEiWHR3N3j7CcAV4Bp/PL+FeABiVzifvp2AfmawmIIHA7smpg6Tkj15Xgx9XHWOgjcCjiwOYgjJShfm8iPmwNj3uqWwTpuFLPslYACVq9463D+/9q7E7D/1rle/O/LNs8bme2wzUKiwRihIxL91V9CVDSoc2QooskxJXWQzEMqSdORUEeGRiWhgwjJHEJs88y5Pp31O/32bv+e73B/13e479e6rn2xPeu+1/q8PsvzPN/3s9a9BFhj9LmlSgFWi56xuxC4epJnJrnuCgevOx9+O8kjknxqhXF2PWyBWvvkVxfctfe+KeCqoNNGYB2BWhz6gwsG1vV1vSX2W+f4xhAYXeB+Sb45yS1WhKhHBr8vySv9gWtFObsTOHMBAZYro1lAgNVM2P0EAqzuW9xlgbU4a/3CWX9xXXb7TJK3J7nasgPsd/ACD54W9D9qDZSfSPIYf3k/+F7vsoC62+Ne090fJzqPesywFpT+8V2eqGMT6FCg/jhVbyw+94q11Ys7bpDkPSuOszsBAicWEGC5OpoFBFjNhN1PIMDqvsVdF/i8JDdf8RfX+mW1xtS6WLXYu61PgVr/pB4nOerRrur/PZL8Rp8EqtqiwG2T/MGC49XdgLUmm8Wht9gYh+pSoP4oUXc0PnpadH2VImuB9h9L8vRVBtmXAIGlBARYSzHZ6SgBAZbrY5GAAGuRkK/vs0CFFHeZ7rI5ZYUT/ViSJyZ5eJL677b+BG6Y5HeS1N16J9peNK2PVo8R2gi0CNSby5614GUAr5gCrDe2HMhYAoML1J3X9ajgU5d4u+zxVBUcH8kfsQAAIABJREFU1x+u7pOk/vglSB78QlL+LAICrFlYx5pUgDVWv9epVoC1jpox+yRQj+/U2hf119SLr3Bi9cvrryf5zSQvXmGcXQ9D4DZJ/vCIU63+PyPJ3Q+jHGd5AAKPTFKPpB611R1Ydd3ZCBBYXeA7k9w1ya1XH5r/keSPk7xkjbGGECCwnIAAazknex0hIMByeSwSEGAtEvL1QxG4ZpK/SHKBFU/43Umes8QHzxWntfsOBSrUrEV9a9H+E20fnu6GWfTY1w7LcOgDE1gmwKrA1KNLB9ZYp7tzgfq5XuFw/f/nomuczR2SvDDJJ9cYawgBAssLCLCWt7LnCQQEWC6NRQICrEVCvn5IAmef1sT44SSrfv/78+mX47ceUsHO9UwFTk5SAdVRW72Z8kr8CGxQ4KQpRL/+EXOeNr1B1VsvNwhvqm4F6ud4rXf16SRnW6PKenFLhV4vW2OsIQQIrC4gwFrdzIgzCKz6AQ7geAICrPF63nvFdffNDyZ52Bp3Y31xWlvjnUne1jtUx/VdJMkHF9T3qjUW/+2YTGkbEvir6c1mR013lSRv3tDxTEOgV4HLJHnQdKds/VxfZftSkt9KUn/M+vgqA+1LgECTgACric/gEhBguQ4WCQiwFgn5+qEK1Nvl7pzkxmsUUB9CHzqtlVGhlu2wBBatf1XV1C9Zv3tYZTnbAxB45rRGz1GnetUkbzqAWpwigV0I1GeXenvstyb5L2ucQK1xVS9M+Ok1xhpCgECbgACrzc9oAZZrYAkBAdYSSHY5WIErTkFFhVGrbnUX1t9Njx98dNXB9t+pwFuSVO+P2vyBZ6ct6vbgpyZZ9BhyvQHtdt0KKIzA+gLXTvKQJDdLUm8ZXnWrP0o8IEk9Ougtg6vq2Z9Au4AAq91w+Bn8gj78JbAQQIC1kMgOBy5Qjx7cK8nDk9QaWats9Qvwx5I8IckDVxlo350KLPrgUuupnHunZ+jgPQssuv7q67Wuj40Agf8Q+Lkk90lyvjVQ6k7pumOr1rKs7+82AgR2IyDA2o17V0cVYHXVzlmKEWDNwmrSPRQ4ZXrb4PXWPLd6w2GFWLV20mfXnMOw+QUqpFzUn8clqe99NgJzCNQdm+dfMLHfz+aQN+ehCVRYdY3pce5LrnHy9f+19ye5WpJa98pGgMBuBQRYu/Xv4uh+QeqijbMWIcCaldfkeyZQ3xPrFfbXnX5pXvX06s6JByepN9g9e9XB9t+KwK2TvGDBkS6W5ANbORsHGVGgFo6uuzaP2urxqEVB64h2ah5DoO5ArPUpv2Na72qdqt8xrVX520k+sc4ExhAgsHEBAdbGScebUIA1Xs9XrViAtaqY/Q9doB4prHU2fiHJTdYs5pPTG47qF+daMNa2PwL1uvSbCrD2pyGDnsmixwgfm+THBrVR9tgCl0hSjwvWOle1Ztw6W42vu6L/dJ3BxhAgMJuAAGs22nEmFmCN0+t1KxVgrStn3KELXHS6E+uFaxZSH1A/NC3YfKMk3la4JuSGh71hepzkRNPWX+ovN/Vuw4c2HYH/J7AowKo7AOtOQBuBkQTqzuUbJLn0muvAfT7JLZO83B2MI102aj0gAQHWATVrX09VgLWvndmf8xJg7U8vnMluBGoNjnrl9mUbF/b+4yR3S1Jrcng0aDe9rJ95/7AgwPq9qU91F52NwFwC9UG77vY80Vbh91fMdXDzEtgjgXphxq2S/FKSWotyna2+X/96kvtapH0dPmMIbE1AgLU16n4PJMDqt7ebqkyAtSlJ8xyyQH3QvEuSH0jy9UnW/d75uemX9L+d1mFyV9Z2r4rzJHl1kisfcdjbJ/mf2z0tRxtQoO40uaMAa8DOK/mYQL1Qo94MWP98bwNL3SVdj+v/RsMchhIgsB0BAdZ2nLs+yrofwrpGUdzpBARYLggC/yFwhSTfNi0Me64GmC9Mizi/ZfrFu+62sM0vUOHj7ye51BGH+v+SPHf+U3GEwQXqMam/WhBg1SOE3pw2+IXSYfm1QPttktwiyT0b/iBUfwj6wySPSfKpDp2URKBHAQFWj13dck0CrC2DH+DhBFgH2DSnPLvA1yW56/TLd8vBPp7kn5O8acHdGC3HMPY/BB6Z5N5JzibAclnsWGBRgFWPRNUdWs/f8Xk6PIFNCpw8XdOXT1KLta+z1fpxT0vy80neaX3JdQiNIbAzAQHWzuj7ObAAq59ezlWJAGsuWfP2IFB38tQjabVWTf1VuWWrX8pflORO0zpZHi9s0TzzsU9Jco8jpq11ieoRQqHB5u3NeHqBRQFWfT/4nSTfBY7AgQvUZ436+fiaJNdsqKX+P1F3JJ4zSd3FbCNA4PAEBFiH17O9O2MB1t61ZO9OSIC1dy1xQnsocOskD05ypSS16Hvr9u4k3zM9FlGPGZ7WOqHx/y6wKMD6cJI7JHkJLwIzCywKsOrwz0tyu5nPw/QE5hKo0Or6Sern4/0WvLTgqHOosKreHvu4aaH2+kODjQCBwxQQYB1m3/bqrAVYe9WOvTwZAdZetsVJ7aFArVdT6yfVD+ebbOj8KriqNZvenKTeYlhv0LOtL7AowPrLJHdPUqGhjcCcAvXBvtbAOur3MAHWnB0w91wC9Yj2tye5SpKfbgiu6vz+JclTk/xaknfMdcLmJUBgawICrK1R93sgAVa/vd1UZQKsTUmaZxSBU5NcK8lPTG8s3ETd9djE65LUnVn1GMYTk/zrJiYebI5FAdbjk9wnSb0t0kZgToHrJvmTJLUm0Ik2AdacHTD3pgXqM0W95OQHk9T1XY/Wr7vVI/SPnd4I+/J1JzGOAIG9ExBg7V1LDu+EBFiH17Ntn7EAa9vijteDQH1vPU+SGyepUOSyGyyqHp+oNy5VyPKkJD+zwbl7nqoeZ6m/5H/fEUX+YpIf7xlBbXsjcJlpIepvFmDtTU+cyPoCP5zkYdP6VC1v6K0zqDtg6y7mf/PHhPUbYiSBPRUQYO1pYw7ptARYh9St3ZyrAGs37o7al0Ctd1N3/1w0yUVmKO1jU/BSf6muu7U+MP3yP8OhDnLKs04hYgVUtxVgHWQPezvp+v3r/kkeIcDqrbXD1FOPCNajsI9KcqHGqj+S5P1JvjXJ2xrnMpwAgf0VEGDtb28O5swEWAfTqp2dqABrZ/QO3JlArQtSi9nWL+i1VtZRjw61lP6Z6S16tRB5vbXpvUn+LMknWyY9sLH1s60e5fyGJHU3wPmnta1qkf2j3hbpDqwDa/SBn249ZvxIAdaBd3Gs06+XlNSdxZdM8pgk524sv35G/W6SF0xv3fxs43yGEyCw3wICrP3uz0GcnQDrINq005MUYO2U38E7FDhpCrEunuROSW40c431V+1aLLoCrPpwUGtp1d1gvb3J6TpJbj99sKqfbZeb1mFZ5XEWAdbMF6PpTyewKMD6w+kthPUh30Zg1wIPn960W3ddXWIDJ/Ob0zpwf5Ck7iK2ESDQv4AAq/8ez16hAGt24oM/gADr4FuogD0VqDuB6nHC+iDwW0muuoXzrMcLa/2sWgC+PhTXv9cdWo9OUh+WD2X7yiT3nu4EqDsCajvv9BjL2RuKEGA14Bm6soAAa2UyA7YsUH8AqMXUb5rklCQt31+Pnfqrp5dlvDbJR7dcj8MRILBbAQHWbv27OLoAq4s2zlqEAGtWXpMT+H8C9Yjh/ZLca1oAvgKZXW2nJXl9kmcmqUcRz/hYRwVfFYDVm6JqMfn697qjq/590d0iFdxVrfWf9WGo1qeq/14/j874M+kc0wedeuTyYhv68HSUqQBrV1fcmMcVYI3Z932uuu4QvkCS+t5bb8n8qg2d7CemP55UEPbGDc1pGgIEDk9AgHV4Pdu7MxZg7V1L9u6EBFh71xIn1LlAhTn1KNwdklw4yddP6zjtS9kVUtXjiJ+eFov/h+mv6P+U5D1JvrDgRC+Y5PLTK9avNv33+it//XPOHRcpwNpxAwY7vABrsIbvcbn1x4SbJ6m3Y9Z1Wd+jN7FVcFVrMP7qdJfvop8PmzimOQgQ2F8BAdb+9uZgzkyAdTCt2tmJCrB2Ru/ABP798cJa9L0eNbxjkmswmVVAgDUrr8nPICDAcknsWqDWYPyW6a6ru053/27qnB6a5O1Jnp2kXi5iI0CAgADLNdAsIMBqJux+AgFW9y1W4AEI1F1ZV5juyKo36d1/S2tmHQDNRk9RgLVRTpMtEBBguUR2JfBjSeqDZP2RpNa2OurtrKucYwVVT07ynCR/fyaPn68yl30JEOhPQIDVX0+3XpEAa+vkB3dAAdbBtcwJDyRQb96rdUpqzZL6fr6pDyEDEZ6uVAHWqJ3fTd2LAqznTW8h3M3ZOWovAsd+Nlw5ydOnx9I3+fv/sReC/HSSR/SCpg4CBGYREGDNwjrWpJv8ATaW3DjVCrDG6bVKD1eggqu6M+uJU4hVC/BecXor3+FWtbkzf8O0Ttep02LwJ5pZgLU5czMdLVBrDtUH/p86YjcBlqtoXYFzT3ft1h83vinJA2d4CUa90fY101t0Kxg748s+1j134wgQ6FdAgNVvb7dWmQBra9QHeyAB1sG2zokPKlDf18+XpN7cV6FWhVuXTnKzJBcfxOTlSf5uWmi+Sv6NJO9I8oQkdzvCQIA1yAWyB2VebroubyDA2oNu9HMKt0ly9eklGd+e5LJn8nbX1mrrDwJ15++7kjx+egNt65zGEyAwhoAAa4w+z1qlAGtW3i4mF2B10UZFDCxQ3+cvNK2ZdexRwwqyvi3JN0+vSz9knroL4NHTeivHFgquNyLW4sGfP66wcnhKkrsLsA653d2cez3+++IkJx9R0b8m+eMkD54C2G6KV8hGBa6V5CeTnDfJVye51EZn/4/J/iXJvZPU99d6+6w3Cs4EbVoCHQsIsDpu7rZKE2BtS/pwjyPAOtzeOXMCJxKou7LqMcN6jKl+Dpw0/cX+9kkelORce0r3B0kenuR9Ser17LXV+isVYtWHqfrvR20VYN3jiB3+Z5J7JqngwEZgToHrJ/mrJe6O+VKSTyb5YpL/naQW337tnCdm7oMQuFWSX5jCqrNObw+c63f6ZyZ5wHRH68eX+D57EIBOkgCBnQgIsHbC3tdB5/ph15fS2NUIsMbuv+oJnHN6+2E9inK7JN+YpNZXmWN7XZI/S/IXU4j0kQ0fZFGA9c9J7pLkbzZ8XNMROKNAPTpYAda6W90N891J/m0Kb+sRWWsQrau5v+PqDr2LTX9kuEmShyy4a28TldS1dVqSv5zuuDp2Z+sm5jYHAQJjCwiwxu7/RqoXYG2EsetJBFhdt1dxBIYSWBRg1Qe170jywqFUFLsLgdYA6/hz/miSxyR57/TY7Ounu7SOf4R2FzU65uoCdWfs9ZJcPkndWVXXSd0Ze57Vp1ppRF0rL03y7iTPSPKKlUbbmQABAssJCLCWc7LXEQICLJfHIgEB1iIhXydA4FAEahH3Hzrisa16XKs+LNajijYCcwpsMsA6/jzrUdo3TmsUVShRodbvTmvEzVmPudcTqMe3bzrd3VprWFWA9bXT4uv1tbm3Ws/qSUneP935+p65D2h+AgSGFhBgDd3+zRQvwNqMY8+zCLB67q7aCIwlUHdX1Ye1Cx9Rdr298bljsah2BwJzBVhnLOVz02OGtY5Wbf84rSPnDpsdNH065C2T3C/JV05h+vmnF21sI7A6VvXvJ/m56VHBCq8syL6768GRCYwkIMAaqdsz1SrAmgm2o2kFWB01UykEBheotzC+MsmVBFiDXwm7L/++SX5x96fx74+MPTbJs6ZzqRchVJhRL0mo8Mu2vED9Tl13UNXjfvX4X221hlWFVXVn5wWXn2qje9ZLLqqfb53OpcLLRS+82OgJmIwAAQKTgADLpdAsIMBqJux+AgFW9y1WIIFhBOpDZS0Uf9UjKq63MD5qWktoGBiFbl3gY0nOt/WjLj5gve2wgo5nT48h1ogKOz6dpB4ve7P/b/w7Yt0tdY0kl5xCq/p9+mzT+lX1sotTlnjD5OJurL/Hh5O8agquXpDkN9xltT6mkQQIbExAgLUxynEnEmCN2/tlKxdgLStlPwIEDkHgDUmudsSJvm1ag6Y+ANoIzCVwSHfA1NpwdQdPhVd/e9zbDo/97/W20D89LvCay2zb89aaVNdM8vXTnVTHv321wqobT3dznmvHYdUxl3oJRS3AXt/D3pfkj5Ns+k2u2+6B4xEg0JeAAKuvfu6kGgHWTtgP6qACrINql5MlQGCBwKIAqz6UXyLJB0gSmFFgUYD18CTPT1Khyd2T3HHGc1l36qqhFor/7BSYnDH0rbu56k6z06Y7H+vx3borqP63XW/1ON91knxNkm+YHvs7/tG/Or8KqS6U5KLTXVbHHgvc9bmf8fg/k+Rl0yOfFTLug+++GTkfAgT2Q0CAtR99OOizEGAddPu2cvICrK0wOwgBAlsSqA97D15wrIsJsLbUjTEPU4+fLVo0u/apMPX4re70qUdca02lClPqd7izdEZYoVcFYrX+Vv1n/XvdWXTUVla19lR51F1TZVP/3ttW10OFhh9K8lPTY4FlZCNAgMChCAiwDqVTe3yeAqw9bs6enJoAa08a4TQIENiIQC3kXneEHLXdNskfbuRoJiHwnwXeMb2B7iibZX4/qzcZPmyapMKtr05yduDdCHxwWo+swrx6U2At+l93sNkIECBwqAICrEPt3B6d9zK/IO3R6TqVHQgIsHaA7pAECMwqsOjxrfrgWI8N2QjMIbDo+qtjrvr72YWT3GNaGP6c0+Nx3zjHyZtzVoHfTfL26Q69ety5HiP9+KxHNDkBAgS2JyDA2p51t0da9RekbiEUdkIBAZaLgwCB3gQWBQj19d4ezeqth4dcz6Lr7wlJfqShwFq76SuTXHmao+46vEuSW0xvz2uY2tANCtR1UIuu/0mST07z1h1WFaCf8fHRDR7WVAQIENiZgABrZ/T9HFiA1U8v56pEgDWXrHkJENiVwPck+bUFB68FnT+1qxN03G4FnpTkBxdUd40Nv9GvfterRwyPPV54LND6iemOrW6x96ywCqnqd6oXHRdYfXpa72tRqLlnpTgdAgQIrCUgwFqLzaDjBQRYrodFAgKsRUK+ToDAoQnU44H/uuCk/yrJjQ6tMOe79wJ1XdXaVUdtV0lSb5Pb1lbB1qlTsHbz6aD1++Gxt/DV44m2EwtU+FRvLf3o9OjfsTDqt6Y7rOqOqkWL9vMlQIDACAICrBG6PHONAqyZgTuYXoDVQROVQIDA6QROTvLhBSb/lORK3AhsUKCuuxdP61OdaNrXJrl1kn/Z4HHXmare5HehJDdJcrPjJqj/vd70d8UkFbTVnV2jbB9L8rok757uoDr2mN/nkzxvWmC9QiyP/41yRaiTAIFVBQRYq4rZ/z8JCLBcFIsEBFiLhHydAIFDE6hFrp+Y5G5HnHjdUXHHJC87tOKc794K1KODj0xSj/CdaLt3kl/Z4zt2KsCqx2svP4VYxwdYdcfW+af1t647vRXx3Hvbjf98YhVqvz7JS5NUWPWJM/ShFlP/hyTvnQIsj/0dUHOdKgECeyEgwNqLNhz2SQiwDrt/2zh7AdY2lB2DAIFtC9w2yR8ccdC6i+IpSX542yfmeN0KVHhV604dtX3/9NjZISLU75QnJTnHdJdWBV1n9jKECpDPNwVh9Z+nJKnAq+7qunSSSzUWX+tK1V1Sb5qCplckecv03z87BVOfO5Nj1GN+te5d3UX1xekfIVVjMwwnQIDAcQICLJdDs4AAq5mw+wkEWN23WIEEhhS45fTYz7GFrc8M4dlJvndaZHlIJEVvTOASSertgrc7YsZ3JqkAq+4AshEgQIAAgd4EBFi9dXQH9QiwdoB+YIcUYB1Yw5wuAQJLCVwsyeOT3P6IvWuh93skef5SM9qJwIkFFt3xVyOfMQVYHAkQIECAQI8CAqweu7rlmgRYWwY/wMMJsA6waU6ZAIGlBB6R5AEL9qwA62lLzWYnAmcuUHf5/WySBx4BVI+s1rpsPwqRAAECBAh0KiDA6rSx2yxLgLVN7cM8lgDrMPvmrAkQWCxwmyk0OGrNnVq0ud4K967F09mDwJkK1Nv83pqk3kJ4ou0d0xv/6jFCGwECBAgQ6FFAgNVjV7dckwBry+AHeDgB1gE2zSkTILCUQP0M/LMkN16w91clecNSM9qJwH8WuHiS9y2A+cckV4NHgAABAgQ6FhBgddzcbZUmwNqW9OEeR4B1uL1z5gQILBZ48rTO1VE/D38vyXcunsoeBM5UoN5od2Zv4zt+53rb5ZP4ESBAgACBjgUEWB03d1ulCbC2JX24xxFgHW7vnDkBAosFLpDk35KctGDX8yT51OLp7EHgdAL1koAKQBdtfh9bJOTrBAgQIHDoAgKsQ+/gHpy/X5j2oAl7fgoCrD1vkNMjQKBZoB4PXPT4lruwmpmHnOBVSa6zoPLvn95AOCSQogkQIEBgGAEB1jCtnq9QAdZ8tr3MLMDqpZPqIEDgRAIXTPKRBTz19VqM20ZgWYFvS/L0JBdZMOCiST647KT2I0CAAAECByogwDrQxu3TaQuw9qkb+3kuAqz97IuzIkBgswL19rdTjpjyy0mem6QeCbMRWCRwjiRPS3LnBTv+VpK7ezx1EaevEyBAgEAHAgKsDpq46xIEWLvuwP4fX4C1/z1yhgQItAvcPMmLF0zz2iTfk+R17YczQ+cC3zjdfXXqEXV+Kcntkjy/cwvlESBAgACBEhBguQ6aBQRYzYTdTyDA6r7FCiRAIMmlpjtmbnmERt2F9YAkv0CMwBEC9UjqY6ew8yioFySptw++hyYBAgQIEBhAQIA1QJPnLlGANbfw4c8vwDr8HqqAAIHFAvXz8CeS/PyCXWutom9J8urFU9pjUIErTnfpnXNB/RWE3n9QI2UTIECAwHgCAqzxer7xigVYGyftbkIBVnctVRABAicQuGSSZyepx7+O2ip0eFSSuiPLRuCMAh9OcvIClpcnuSE6AgQIECAwkIAAa6Bmz1WqAGsu2X7mFWD100uVECCwWOCh051YZ1uw602S/Pni6ewxmMC3Lrmm1cOTPGgwG+USIECAwNgCAqyx+7+R6gVYG2HsehIBVtftVRwBAmcQuHCSNyW5yAKZdy94ayHY8QTqmnlzkgstKP2zSRY9XjienooJECBAoHcBAVbvHd5CfQKsLSAf+CEEWAfeQKdPgMDKArdK8sIlRj1pWoR7iV3tMoDALye5Z5KTFtT6tUleNYCHEgkQIECAwPECAizXQ7OAAKuZsPsJBFjdt1iBBAicicAXlggi3prkuyzo7vpJUj8rfzHJokdP/zLJjYkRIECAAIEBBQRYAzZ90yULsDYt2t98Aqz+eqoiAgQWC1w1yWuXCCSek+RHk/zb4int0alALdhe4dX3LajvPUlqjay6rmwECBAgQGA0AQHWaB2foV4B1gyonU0pwOqsocohQGApgQolnpjkDgv2/lKS+yV5XJK6a8s2nsCvJPmRJcp+SJL65/NL7GsXAgQIECDQm4AAq7eO7qAeAdYO0A/skAKsA2uY0yVAYGMC10jy9CS1ZtFR27uSXDvJhzd2ZBMdisA1k7xmicdNX5HkTknediiFOU8CBAgQILBhAQHWhkFHnE6ANWLXV6tZgLWal70JEOhHoH5GPjXJ9y9R0mlJ6q4t21gCH09y3gUlfy7JzyR55Fg0qiVAgAABAqcTEGC5IJoFBFjNhN1PIMDqvsUKJEDgCIGzJHlZkm9cQumvk3xzkk8usa9dDlvgK5L8ryRfs0QZL09ywyX2swsBAgQIEOhZQIDVc3e3VJsAa0vQB3wYAdYBN8+pEyCwEYEKKV69xEx1N06th/WUJfa1y+EKnH+6m+oeSzw6+MEkF09Sa6XZCBAgQIDAyAICrJG7v6HaBVgbgux4GgFWx81VGgECSwvcM8njl9j7n5PcPcmfLbGvXQ5PoH5vunmSX5+CqUUV1LVQ66jZCBAgQIDA6AICrNGvgA3UL8DaAGLnUwiwOm+w8ggQWErg7NM6Rg9aYu8PJLl+kgqzbH0JXDDJm5JcbImyfjLJL3nr4BJSdiFAgACBEQQEWCN0eeYaBVgzA3cwvQCrgyYqgQCBjQjUOka/k+QSS8xW62Cd4s2ES0gdzi4XSVKPBC6z/dG0+P/7l9nZPgQIECBAYAABAdYATZ67RAHW3MKHP78A6/B7qAICBDYncOckj0ly4SWm/Mckt09S/2k7bIFrJ3l+kkstUcbHprXQ6g2WNgIECBAgQOD/CgiwXAnNAgKsZsLuJxBgdd9iBRIgsIJA/dz8oWk9rEU/Q2vh7npT3X2SvHmFY9h1vwRqEf9amL/+c1HP68y/N8kz96sEZ0OAAAECBHYuIMDaeQsO/wSW+UXs8KtUQYuAAKtFz1gCBHoUOEeS5yS53RLFfTbJs5LUekjLPn62xLR22ZLApZPU44BXT3KWJY55x+naWGJXuxAgQIAAgaEEBFhDtXueYgVY87j2NKsAq6duqoUAgU0KfCLJeZac8AlJ6vvpF5fc3267FzgpyTuSVIi1zPabSX4gyaeW2dk+BAgQIEBgMAEB1mANn6NcAdYcqn3NKcDqq5+qIUBgcwJ1V84fJrn8klPWvvdO8rYl97fb7gSumuRFSS6z5Cm8Mcldkrxmyf3tRoAAAQIERhMQYI3W8RnqFWDNgNrZlAKszhqqHAIENipw4yS1WPeVlpz1pUkemOSVS+5vt+0LfP205tU1llzz6j1J7jGtd7b9s3VEAgQIECBwGAICrMPo016fpQBrr9uzFycnwNqLNjgJAgT2VKB+jl5vWifpAkucYz1C+Pop8HjVEvvbZbsCV0vye0nqDqxlt+sn+Ztld7YfAQIECBAYVECANWjjN1m2AGuTmn3OJcDqs6+qIkBgcwL1s/SKK7xp8MtJav2sevTwQ5s7DTM1ClQfP5bkvCvMc3KS01bY364ECBAgQGDuOzroAAAgAElEQVRUAQHWqJ3fYN0CrA1idjqVAKvTxiqLAIGNC9SjZ7XO1UVXmPkq00Lh9bZC224ELpTk2klessLh35/kVkn+foUxdiVAgAABAiMLCLBG7v6GahdgbQiy42kEWB03V2kECGxU4KxJbpPkUUlOXXLmunvnkUmeMwVZSw6z24YETkny0CTfkeRcS85Zbyb8wSR/suT+diNAgAABAgQSAZaroFlAgNVM2P0EAqzuW6xAAgQ2KHC2JLdI8owkF1ty3rr76uXTW+zeu+QYu7ULnC/JHyS5SZKzLDldPfr5bUn+dMn97UaAAAECBAj8XwEBliuhWUCA1UzY/QQCrO5brEACBDYscNK0CHgt1r7K9u4k35nkb1cZZN+1BB6S5M5JLrvi6Mu5U25FMbsTIECAAAEBlmtgQwICrA1BdjyNAKvj5iqNAIFZBWotrDclqYW+l92+lOR3kvzAtNB7Lfhu24xA3WV1wSS/nOROK0750STXTfLWFcfZnQABAgQIEBBguQY2JCDA2hBkx9MIsDpurtIIEJhdoEKPZyW58opHel6SX0/y3CRCrBXxTrD79yW5T5KrrzDdF5K8bhr35yuMsysBAgQIECBwegGPELoimgUEWM2E3U8gwOq+xQokQGBmgRsmeViSG694nM8keWKS3/ZY4Ypyp9/9tklulOS+a8zyC9MC+942uAaeIQQIECBA4DgBAZbLoVlAgNVM2P0EAqzuW6xAAgS2IPCVSSpIeewax3pbkl+ZHn374hrjRx1SjwvWHVf3mBbUX/V3nurXS5N8clRAdRMgQIAAgQ0KCLA2iDnqVKv+Mjeq08h1C7BG7r7aCRDYtEDdhVVvsFv2rXfHH7+ClFOTfCiJIOvEnalF9Cu8Kqd1trL99iTPX2ewMQQIECBAgMCZCgiwXBjNAgKsZsLuJxBgdd9iBRIgsGWB70jyk0mulaTCllW3V053Fr0lyQdXHdzx/hdK8lVJ/keS66xZ5wuTPCqJ9a7WBDSMAAECBAicQECA5dJoFhBgNRN2P4EAq/sWK5AAgR0IXDbJ3ZL87JrHrvWxaoH3V0yPFq45TRfDzp7k3kmuNr1dcJ1QsBbKf/j0z6e6UFEEAQIECBDYLwEB1n714yDPRoB1kG3b6kkLsLbK7WAECAwkUI8RfleSByS5xpp1V5D1siR1V9Yjk9S/j7JdOsm9klwzyc3XfCyzrP44ydOT/P4ocOokQIAAAQI7EBBg7QC9t0MKsHrr6ObrEWBt3tSMBAgQOCZQP4fPn+QJSb67geULSerOoVpfq9ZvqjuKet7+NslVk5x7zccwj9n8UZJ6pLOCv97Ner4e1EaAAAEC+y8gwNr/Hu39GQqw9r5FOz9BAdbOW+AECBAYROD2SR6a5CobqPf1Se6b5D1J3pHk0xuYc1dTXCDJpZJ8TZL/nuRyjSfy2cnkW5K8vXEuwwkQIECAAIHlBARYyznZ6wgBAZbLY5GAAGuRkK8TIEBgcwLnTfLYJN8wrenUOnO9ufAxSd6V5L1JXp7kI62TbmH8RZLcNMnJSb4uyfckOdsGjvvmJL8zmXx4A/OZggABAgQIEFhOQIC1nJO9BFiugQYBAVYDnqEECBBYQ+CsSa6b5NZJHpRkE39sqsfj/nVaK+u0KdB6WpJ3rnF+cw2pNwjWY5R1t1W9UfCGSS64wYPdJ0k9evg3HhfcoKqpCBAgQIDAcgICrOWc7CXAcg00CAiwGvAMJUCAQIPAOacw59FJbtMwz5kN/VySDySpx+lq7ay/S/LAKeTa8KFOON1XTo9MVlhXd1fVelYXTlJvFdzk9ktJnprkn5PUWmE2AgQIECBAYPsCAqztm3d3xE38Vbc7FAWdTkCA5YIgQIDA7gXqLXv1lsErJanHDOfe3p/kDUkeN921dKLj1Z1d9U/9PnGi3ykqmLpZkjsludaG76o60XnV44G1DtjdpvWu5vYyPwECBAgQIHC0gADLFdIsIMBqJux+AgFW9y1WIAECByRwhyR3THL1JFfYg/OuO7nqrqZzNL4NcFOlvCXJG5P8bJLXbWpS8xAgQIAAAQLNAgKsZkITCLBcA4sEBFiLhHydAAEC2xWox+1uMK0Rda8kteD56FvdMVaPCh5b48qjgqNfEeonQIAAgX0TEGDtW0cO8HwEWAfYtC2fsgBry+AOR4AAgSUFarH3uhOrFjr/uSQ3WXJcT7v9VpInJ6lHBv/B4uw9tVYtBAgQINCZgACrs4buohwB1i7UD+uYAqzD6pezJUBgXIHzJXlGktsmOcuePNK3yW7UWltfnEKqxya5f5IvbfIA5iJAgAABAgRmExBgzUY7zsQCrHF6vW6lAqx15YwjQIDA7gSul+Qnk5ycpN72d5ndnUrzkf8pyXuTvDPJY5L8b3daNZuagAABAgQIbFtAgLVt8Q6PJ8DqsKkbLkmAtWFQ0xEgQGCLArW4+k2n9bLOleTGSa6953dn1fpVf5HkNUk+m+QFSV7pbqstXjUORYAAAQIENi8gwNq86XAzCrCGa/nKBQuwViYzgAABAnspUIu/XzHJKVOAddUkd03yVXtwtrV+Va1l9Y7prYb1NsF3Tf99D07PKRAgQIAAAQKNAgKsRkDDEwGWq2CRgABrkZCvEyBA4DAFTkpyziS1GHxtF09yqyT3SXLpGUt6T5KHJHnxtPh6HaruuvrMtMbVjIc2NQECBAgQILAjAQHWjuB7OqwAq6duzlOLAGseV7MSIEDgUAQq5LpQkksludb0n6cmqUcSL5ekHlP84BRG1SN/9ejfG5JUUPWhJB9N8ulDKdZ5EiBAgAABArMICLBmYR1rUgHWWP1ep1oB1jpqxhAgQIAAAQIECBAgQIDAMQEBlmuhWUCA1UzY/QQCrO5brEACBAgQIECAAAECBAjMKiDAmpV3jMkFWGP0uaVKAVaLnrEECBAgQIAAAQIECBAgIMByDTQLCLCaCbufQIDVfYsVSIAAAQIECBAgQIAAgVkFBFiz8o4xuQBrjD63VCnAatEzlgABAgQIECBAgAABAgQEWK6BZgEBVjNh9xMIsLpvsQIJECBAgAABAgQIECAwq4AAa1beMSYXYI3R55YqBVgtesYSIECAAAECBAgQIECAgADLNdAsIMBqJux+AgFW9y1WIAECBAgQIECAAAECBGYVEGDNyjvG5AKsMfrcUqUAq0XPWAIECBAgQIAAAQIECBAQYLkGmgUEWM2E3U8gwOq+xQokQIAAAQIECBAgQIDArAICrFl5x5hcgDVGn1uqFGC16BlLgAABAgQIECBAgAABAgIs10CzgACrmbD7CQRY3bdYgQQIECBAgAABAgQIEJhVQIA1K+8YkwuwxuhzS5UCrBY9YwkQIECAAAECBAgQIEBAgOUaaBYQYDUTdj+BAKv7FiuQAAECBAgQIECAAAECswoIsGblHWNyAdYYfW6pUoDVomcsAQIECBAgQIAAAQIECAiwXAPNAgKsZsLuJxBgdd9iBRIgQIAAAQIECBAgQGBWAQHWrLxjTC7AGqPPLVUKsFr0jCVAgAABAgQIECBAgAABAZZroFlAgNVM2P0EAqzuW6xAAgQIECBAgAABAgQIzCogwJqVd4zJBVhj9LmlSgFWi56xBAgQIECAAAECBAgQICDAcg00Cwiwmgm7n0CA1X2LFUiAAAECBAgQIECAAIFZBQRYs/KOMbkAa4w+t1QpwGrRM5YAAQIECBAgQIAAAQIEBFiugWYBAVYzYfcTCLC6b7ECCRAgQIAAAQIECBAgMKuAAGtW3jEmF2CN0eeWKgVYLXrGEiBAgAABAgQIECBAgIAAyzXQLCDAaibsfgIBVvctViABAgQIECBAgAABAgRmFRBgzco7xuQCrDH63FKlAKtFz1gCBAgQIECAAAECBAgQEGC5BpoFBFjNhN1PIMDqvsUKJECAAAECBAgQIECAwKwCAqxZeceYXIA1Rp9bqhRgtegZS4AAAQIECBAgQIAAAQICLNdAs4AAq5mw+wkEWN23WIEECBAgQIAAAQIECBCYVUCANSvvGJMLsMboc0uVAqwWPWMJECBAgAABAgQIECBAQIDlGmgWEGA1E3Y/gQCr+xYrkAABAgQIECBAgAABArMKCLBm5R1jcgHWGH1uqVKA1aJnLAECBAgQIECAAAECBAgIsFwDzQICrGbC7icQYHXfYgUSIECAAAECBAgQIEBgVgEB1qy8Y0wuwBqjzy1VCrBa9IwlQIAAAQIECBAgQIAAAQGWa6BZQIDVTNj9BAKs7lusQAIECBAgQIAAAQIECMwqIMCalXeMyQVYY/S5pUoBVouesQQIECBAgAABAgQIECAgwHINNAsIsJoJu59AgNV9ixVIgAABAgQIECBAgACBWQUEWLPyjjG5AGuMPrdUKcBq0TOWAAECBAgQIECAAAECBARYroFmAQFWM2H3Ewiwum+xAgkQIECAAAECBAgQIDCrgABrVt4xJhdgjdHnlioFWC16xhIgQIAAAQIECBAgQICAAMs10CwgwGom7H4CAVb3LVYgAQIECBAgQIAAAQIEZhUQYM3KO8bkAqwx+txSpQCrRc9YAgQIECBAgAABAgQIEBBguQaaBQRYzYTdTyDA6r7FCiRAgAABAgQIECBAgMCsAgKsWXnHmFyANUafW6oUYLXoGUuAAAECBAgQIECAAAECAizXQLOAAKuZsPsJBFjdt1iBBAgQIECAAAECBAgQmFVAgDUr7xiTC7DG6HNLlQKsFj1jCRAgQIAAAQIECBAgQECA5RpoFhBgNRN2P4EAq/sWK5AAAQIECBAgQIAAAQKzCgiwZuUdY3IB1hh9bqlSgNWiZywBAgQIECBAgAABAgQICLBcA80CAqxmwu4nEGB132IFEiBAgAABAgQIECBAYFYBAdasvGNMLsAao88tVQqwWvSMJUCAAAECBAgQIECAAAEBlmugWUCA1UzY/QQCrO5brEACBAgQIECAAAECBAjMKiDAmpV3jMkFWGP0uaVKAVaLnrEECBAgQIAAAQIECBAgIMByDTQLCLCaCbufQIDVfYsVSIAAAQIECBAgQIAAgVkFBFiz8o4xuQBrjD63VCnAatEzlgABAgQIECBAgAABAgQEWK6BZgEBVjNh9xMIsLpvsQIJECBAgAABAgQIECAwq4AAa1beMSYXYI3R55YqBVgtesYSIECAAAECBAgQIECAgADLNdAsIMBqJux+AgFW9y1WIAECBAgQIECAAAECBGYVEGDNyjvG5AKsMfrcUqUAq0XPWAIECBAgQIAAAQIECBAQYLkGmgUEWM2E3U8gwOq+xQokQIAAAQIECBAgQIDArAICrFl5x5hcgDVGn1uqFGC16BlLgAABAgQIECBAgAABAgIs10CzgACrmbD7CQRY3bdYgQQIECBAgAABAgQIEJhVQIA1K+8YkwuwxuhzS5UCrBY9YwkQIECAAAECBAgQIEBAgOUaaBYQYDUTdj+BAKv7FiuQAAECBAgQIECAAAECswoIsGblHWNyAdYYfW6pUoDVomcsAQIECBAgQIAAAQIECAiwXAPNAgKsZsLuJxBgdd9iBRIgQIAAAQIECBAgQGBWAQHWrLxjTC7AGqPPLVUKsFr0jCVAgAABAgQIECBAgAABAZZroFlAgNVM2P0EAqzuW6xAAgQIECBAgAABAgQIzCogwJqVd4zJBVhj9LmlSgFWi56xBAgQIECAAAECBAgQICDAcg00Cwiwmgm7n0CA1X2LFUiAAAECBAgQIECAAIFZBQRYs/KOMbkAa4w+t1QpwGrRM5YAAQIECBAgQIAAAQIEBFiugWYBAVYzYfcTCLC6b7ECCRAgQIAAAQIECBAgMKuAAGtW3jEmF2CN0eeWKgVYLXrGEiBAgAABAgQIECBAgIAAyzXQLCDAaibsfgIBVvctViABAgQIECBAgAABAgRmFRBgzco7xuQCrDH63FKlAKtFz1gCBAgQIECAAAECBAgQEGC5BpoFBFjNhN1PIMDqvsUKJECAAAECBAgQIECAwKwCAqxZeceYXIA1Rp9bqhRgtegZS4AAAQIECBAgQIAAAQICLNdAs4AAq5mw+wkEWN23WIEECBAgQIAAAQIECBCYVUCANSvvGJMLsMboc0uVAqwWPWMJECBAgAABAgQIECBAQIDlGmgWEGA1E3Y/gQCr+xYrkAABAgQIECBAgAABArMKCLBm5R1jcgHWGH1uqVKA1aJnLAECBAgQIECAAAECBAgIsFwDzQICrGbC7icQYHXfYgUSIECAAAECBAgQIEBgVgEB1qy8Y0wuwBqjzy1VCrBa9IwlQIAAAQIECBAgQIAAAQGWa6BZQIDVTNj9BAKs7lusQAIECBAgQIAAAQIECMwqIMCalXeMyQVYY/S5pUoBVouesQQIECBAgAABAgQIECAgwHINNAsIsJoJu59AgNV9ixVIgAABAgQIECBAgACBWQUEWLPyjjG5AGuMPrdUKcBq0TOWAAECBAgQIECAAAECBARYroFmAQFWM2H3Ewiwum+xAgkQIECAAAECBAgQIDCrgABrVt4xJhdgjdHnlioFWC16xhIgQIAAAQIECBAgQICAAMs10CwgwGom7H4CAVb3LVYgAQIECBAgQIAAAQIEZhUQYM3KO8bkAqwx+txSpQCrRc9YAgQIECBAgAABAgQIEBBguQaaBQRYzYTdTyDA6r7FCiRAgAABAgQIECBAgMCsAgKsWXnHmFyANUafW6oUYLXoGUuAAAECBAgQIECAAAECAizXQLOAAKuZsPsJBFjdt1iBBAgQIECAAAECBAgQmFVAgDUr7xiTC7DG6HNLlQKsFj1jCRAgQIAAAQIECBAgQECA5RpoFhBgNRN2P4EAq/sWK5AAAQIECBAgQIAAAQKzCgiwZuUdY3IB1hh9bqlSgNWiZywBAgQIECBAgAABAgQICLBcA80CAqxmwu4nEGB132IFEiBAgAABAgQIECBAYFYBAdasvGNMLsAao88tVQqwWvSMJUCAAAECBAgQIECAAAEBlmugWUCA1UzY/QQCrO5brEACBAgQIECAAAECBAjMKiDAmpV3jMkFWGP0uaVKAVaLnrEECBAgQIAAAQIECBAgIMByDTQLCLCaCbufQIDVfYsVSIAAAQIECBAgQIAAgVkFBFiz8o4xuQBrjD63VCnAatEzlgABAgQIECBAgAABAgQEWK6BZgEBVjNh9xMIsLpvsQIJECBAgAABAgQIECAwq4AAa1beMSYXYI3R55YqBVgtesYSIECAAAECBAgQIECAgADLNdAsIMBqJux+AgFW9y1WIAECBAgQIECAAAECBGYVEGDNyjvG5AKsMfrcUqUAq0XPWAIECBAgQIAAAQIECBAQYLkGmgUEWM2E3U8gwOq+xQokQIAAAQIECBAgQIDArAICrFl5x5hcgDVGn1uqFGC16BlLgAABAgQIECBAgAABAgIs10CzgACrmbD7CQRY3bdYgQQIECBAgAABAgQIEJhVQIA1K+8YkwuwxuhzS5UCrBY9YwkQIECAAAECBAgQIEBAgOUaaBYQYDUTdj+BAKv7FiuQAAECBAgQIECAAAECswoIsGblHWNyAdYYfW6pUoDVomcsAQIECBAgQIAAAQIECAiwXAPNAgKsZsLuJxBgdd9iBRIgQIAAAQIECBAgQGBWAQHWrLxjTC7AGqPPLVUKsFr0jCVAgAABAgQIECBAgAABAZZroFlAgNVM2P0EAqzuW6xAAgQIECBAgAABAgQIzCogwJqVd4zJBVhj9LmlSgFWi56xBAgQIECAAAECBAgQICDAcg00Cwiwmgm7n0CA1X2LFUiAAAECBAgQIECAAIFZBQRYs/KOMbkAa4w+t1QpwGrRM5YAAQIECBAgQIAAAQIEBFiugWYBAVYzYfcTCLC6b7ECCRAgQIAAAQIECBAgMKuAAGtW3jEmF2CN0eeWKgVYLXrGEiBAgAABAgQIECBAgIAAyzXQLCDAaibsfgIBVvctViABAgQIECBAgAABAgRmFRBgzco7xuQCrDH63FKlAKtFz1gCBAgQIECAAAECBAgQEGC5BpoFBFjNhN1PIMDqvsUKJECAAAECBAgQIECAwKwCAqxZeceYXIA1Rp9bqhRgtegZS4AAAQIECBAgQIAAAQICLNdAs4AAq5mw+wkEWN23WIEECBAgQIAAAQIECBCYVUCANSvvGJMLsMboc0uVAqwWPWMJECBAgAABAgQIECBAQIDlGmgWEGA1E3Y/gQCr+xYrkAABAgQIECBAgAABArMKCLBm5R1jcgHWGH1uqVKA1aJnLAECBAgQIECAAAECBAgIsFwDzQICrGbC7icQYHXfYgUSIECAAAECBAgQIEBgVgEB1qy8Y0wuwBqjzy1VCrBa9IwlQIAAAQIECBAgQIAAAQGWa6BZQIDVTNj9BAKs7lusQAIECBAgQIAAAQIECMwqIMCalXeMyQVYY/S5pUoBVouesQQIECBAgAABAgQIECAgwHINNAsIsJoJu59AgNV9ixVIgAABAgQIECBAgACBWQUEWLPyjjG5AGuMPrdUKcBq0TOWAAECBAgQIECAAAECBARYroFmAQFWM2H3Ewiwum+xAgkQIECAAAECBAgQIDCrgABrVt4xJhdgjdHnlioFWC16xhIgQIAAAQIECBAgQICAAMs10CwgwGom7H4CAVb3LVYgAQIECBAgQIAAAQIEZhUQYM3KO8bkAqwx+txSpQCrRc9YAgQIECBAgAABAgQIEBBguQaaBQRYzYTdTyDA6r7FCiRAgAABAgQIECBAgMCsAgKsWXnHmFyANUafW6oUYLXoGUuAAAECBAgQIECAAAECAizXQLOAAKuZsPsJBFjdt1iBBAgQIECAAAECBAgQmFVAgDUr7xiTC7DG6HNLlQKsFj1jCRAgQIAAAQIECBAgQECA5RpoFhBgNRN2P4EAq/sWK5AAAQIECBAgQIAAAQKzCgiwZuUdY3IB1hh9bqlSgNWiZywBAgQIECBAgAABAgQICLBcA80CAqxmwu4nEGB132IFEiBAgAABAgQIECBAYFYBAdasvGNMLsAao88tVQqwWvSMJUCAAAECBAgQIECAAAEBlmugWUCA1UzY/QQCrO5brEACBAgQIECAAAECBAjMKiDAmpV3jMkFWGP0uaVKAVaLnrEECBAgQIAAAQIECBAgIMByDTQLCLCaCbufQIDVfYsVSIAAAQIECBAgQIAAgVkFBFiz8o4xuQBrjD63VCnAatEzlgABAgQIECBAgAABAgQEWK6BZgEBVjNh9xMIsLpvsQIJECBAgAABAgQIECAwq4AAa1beMSYXYI3R55YqBVgtesYSIECAAAECBAgQIECAgADLNdAsIMBqJux+AgFW9y1WIAECBAgQIECAAAECBGYVEGDNyjvG5AKsMfrcUqUAq0XPWAIECBAgQIAAAQIECBAQYLkGmgUEWM2E3U8gwOq+xQokQIAAAQIECBAgQIDArAICrFl5x5hcgDVGn1uqFGC16BlLgAABAgQIECBAgAABAgIs10CzgACrmbD7CQRY3bdYgQQIECBAgAABAgQIEJhVQIA1K+8YkwuwxuhzS5UCrBY9YwkQIECAAAECBAgQIEBAgOUaaBYQYDUTdj+BAKv7FiuQAAECBAgQIECAAAECswoIsGblHWNyAdYYfW6pUoDVomcsAQIECBAgQIAAAQIECAiwXAPNAgKsZsLuJxBgdd9iBRIgQIAAAQIECBAgQGBWAQHWrLxjTC7AGqPPLVUKsFr0jCVAgAABAgQIECBAgAABAZZroFlAgNVM2P0EAqzuW6xAAgQIECBAgAABAgQIzCogwJqVd4zJBVhj9LmlSgFWi56xBAgQIECAAAECBAgQICDAcg00Cwiwmgm7n0CA1X2LFUiAAAECBAgQIECAAIFZBQRYs/KOMbkAa4w+t1QpwGrRM5YAAQIECBAgQIAAAQIEBFiugWYBAVYzYfcTCLC6b7ECCRAgQIAAAQIECBAgMKuAAGtW3jEmF2CN0eeWKgVYLXrGEiBAgAABAgQIECBAgIAAyzXQLCDAaibsfgIBVvctViABAgQIECBAgAABAgRmFRBgzco7xuQCrDH63FKlAKtFz1gCBAgQIECAAAECBAgQEGC5BpoFBFjNhN1PIMDqvsUKJECAAAECBAgQIECAwKwCAqxZeceYXIA1Rp9bqhRgtegZS4AAAQIECBAgQIAAAQICLNdAs4AAq5mw+wkEWN23WIEECBAgQIAAAQIECBCYVUCANSvvGJMLsMboc0uVAqwWPWMJECBAgAABAgQIECBAQIDlGmgWEGA1E3Y/gQCr+xYrkAABAgQIECBAgAABArMKCLBm5R1jcgHWGH1uqVKA1aJnLAECBAgQIECAAAECBAgIsFwDzQICrGbC7icQYHXfYgUSIECAAAECBAgQIEBgVgEB1qy8Y0wuwBqjzy1VCrBa9IwlQIAAAQIECBAgQIAAAQGWa6BZQIDVTNj9BAKs7lusQAIECBAgQIAAAQIECMwqIMCalXeMyQVYY/S5pUoBVouesQQIECBAgAABAgQIECAgwHINNAsIsJoJu59AgNV9ixVIgAABAgQIECBAgACBWQUEWLPyjjG5AGuMPrdUKcBq0TOWAAECBAgQIECAAAECBARYroFmAQFWM2H3Ewiwum+xAgkQIECAAAECBAgQIDCrgABrVt4xJhdgjdHnlioFWC16xhIgQIAAAQIECBAgQICAAMs10CwgwGom7H4CAVb3LVYgAQIECBAgQIAAAQIEZhUQYM3KO8bkAqwx+txSpQCrRc9YAgQIECBAgAABAgQIEBBguQaaBQRYzYTdTyDA6r7FCiRAgAABAgQIECBAgMCsAgKsWXnHmFyANUafW6oUYLXoGUuAAAECBAgQIECAAAECAizXQLOAAKuZsPsJBFjdt1iBBAgQIECAAAECBAgQmFVAgDUr7xiTC7DG6HNLlQ+jxwQAABVZSURBVAKsFj1jCRAgQIAAAQIECBAgQECA5RpoFhBgNRN2P4EAq/sWK5AAAQIECBAgQIAAAQKzCgiwZuUdY3IB1hh9bqlSgNWiZywBAgQIECBAgAABAgQICLBcA80CAqxmwu4nEGB132IFEiBAgAABAgQIECBAYFYBAdasvGNMLsAao88tVQqwWvSMJUCAAAECBAgQIECAAAEBlmugWUCA1UzY/QQCrO5brEACBAgQIECAAAECBAjMKiDAmpV3jMkFWGP0uaVKAVaLnrEECBAgQIAAAQIECBAgIMByDTQLCLCaCbufQIDVfYsVSIAAAQIECBAgQIAAgVkFBFiz8o4xuQBrjD63VCnAatEzlgABAgQIECBAgAABAgQEWK6BZgEBVjNh9xMIsLpvsQIJECBAgAABAgQIECAwq4AAa1beMSYXYI3R55YqBVgtesYSIECAAAECBAgQIECAgADLNdAsIMBqJux+AgFW9y1WIAECBAgQIECAAAECBGYVEGDNyjvG5AKsMfrcUqUAq0XPWAIECBAgQIAAAQIECBAQYLkGmgUEWM2E3U8gwOq+xQokQIAAAQIECBAgQIDArAICrFl5x5hcgDVGn1uqFGC16BlLgAABAgQIECBAgAABAgIs10CzgACrmbD7CQRY3bdYgQQIECBAgAABAgQIEJhVQIA1K+8YkwuwxuhzS5UCrBY9YwkQIECAAAECBAgQIEBAgOUaaBYQYDUTdj+BAKv7FiuQAAECBAgQIECAAAECswoIsGblHWNyAdYYfW6pUoDVomcsAQIECBAgQIAAAQIECAiwXAPNAgKsZsLuJxBgdd9iBRIgQIAAAQIECBAgQGBWAQHWrLxjTC7AGqPPLVUKsFr0jCVAgAABAgQIECBAgAABAZZroFlAgNVM2P0EAqzuW6xAAgQIECBAgAABAgQIzCogwJqVd4zJBVhj9LmlSgFWi56xBAgQIECAAAECBAgQICDAcg00Cwiwmgm7n0CA1X2LFUiAAAECBAgQIECAAIFZBQRYs/KOMbkAa4w+t1QpwGrRM5YAAQIECBAgQIAAAQIEBFiugWYBAVYzYfcTCLC6b7ECCRAgQIAAAQIECBAgMKuAAGtW3jEmF2CN0eeWKgVYLXrGEiBAgAABAgQIECBAgIAAyzXQLCDAaibsfgIBVvctViABAgQIECBAgAABAgRmFRBgzco7xuQCrDH63FKlAKtFz1gCBAgQIECAAAECBAgQEGC5BpoFBFjNhN1PIMDqvsUKJECAAAECBAgQIECAwKwCAqxZeceYXIA1Rp9bqhRgtegZS4AAAQIECBAgQIAAAQICLNdAs4AAq5mw+wkEWN23WIEECBAgQIAAAQIECBCYVUCANSvvGJMLsMboc0uVAqwWPWMJECBAgAABAgQIECBAQIDlGmgWEGA1E3Y/gQCr+xYrkAABAgQIECBAgAABArMKCLBm5R1jcgHWGH1uqVKA1aJnLAECBAgQIECAAAECBAgIsFwDzQICrGbC7icQYHXfYgUSIECAAAECBAgQIEBgVgEB1qy8Y0wuwBqjzy1VCrBa9IwlQIAAAQIECBAgQIAAAQGWa6BZQIDVTNj9BAKs7lusQAIECBAgQIAAAQIECMwqIMCalXeMyQVYY/S5pUoBVouesQQIECBAgAABAgQIECAgwHINNAsIsJoJu59AgNV9ixVIgAABAgQIECBAgACBWQUEWLPyjjG5AGuMPrdUKcBq0TOWAAECBAgQIECAAAECBARYroFmAQFWM2H3Ewiwum+xAgkQIECAAAECBAgQIDCrgABrVt4xJhdgjdHnlioFWC16xhIgQIAAAQIECBAgQICAAMs10CwgwGom7H4CAVb3LVYgAQIECBAgQIAAAQIEZhUQYM3KO8bkAqwx+txSpQCrRc9YAgQIECBAgAABAgQIEBBguQaaBQRYzYTdTyDA6r7FCiRAgAABAgQIECBAgMCsAgKsWXnHmFyANUafW6oUYLXoGUuAAAECBAgQIECAAAECAizXQLOAAKuZsPsJBFjdt1iBBAgQIECAAAECBAgQmFVAgDUr7xiTC7DG6HNLlQKsFj1jCRAgQIAAAQIECBAgQECA5RpoFhBgNRN2P4EAq/sWK5AAAQIECBAgQIAAAQKzCgiwZuUdY3IB1hh9bqlSgNWiZywBAgQIECBAgAABAgQICLBcA80CAqxmwu4nEGB132IFEiBAgAABAgQIECBAYFYBAdasvGNMLsAao88tVQqwWvSMJUCAAAECBAgQIECAAAEBlmugWUCA1UzY/QT/NckjkpzniEp/JMkTupdQIAECBAgQIECAAAECBAisI3CnJE9Kct4jBv/3JD+7zuTGjCEgwBqjzy1VVlL+uCQXFWC1MBpLgAABAgQIECBAgACBYQW+L8kTk5z9BAJfSvLgJBVi2QicqYAAy4WxSODmSZ6a5LICrEVUvk6AAAECBAgQIECAAAECZyJwzySPP0Lmk0nuv2AfsIMLCLAGvwCWKP+aSZ6d5OoCrCW07EKAAAECBAgQIECAAAECZxRYFGC9L0ktTfNcdAROJCDAcm0sErjk9E3k6wRYi6h8nQABAgQIECBAgAABAgTORGBRgPWPSe6S5NX0CAiwXAPrClTI+ZIk33TEBA9K8qgkn1/3IMYRIECAAAECBAgQIECAQJcC9ZnyR5P88hHV/W2Sb0vygS4FFLURAXdgbYSx+0kqwLrZEVW+NMn3JHlv9xIKJECAAAECBAgQIECAAIFVBM43vdm+HhE80fayJLX+8pdXmdi+YwkIsMbq97rVLgqwPpbk+knesO4BjCNAgAABAgQIECBAgACBLgVOTfLCJFc+orq6KaICLBuBEwoIsFwcywg8LUm99vSo6+Wrk7x2mcnsQ4AAAQIECBAgQIAAAQLDCNSLwV6T5CQB1jA9n6VQAdYsrN1NepMkf5LkbEdUdoMkf91d5QoiQIAAAQIECBAgQIAAgRaB6yR51RETfDHJT07rKrccx9jOBQRYnTd4Q+WdI8lpSc55xHwvSHKbDR3PNAQIECBAgAABAgQIECDQh0C99OuhR5Ty2enxwnf2Ua4q5hIQYM0l29+8n14QYH0uSQVdNgIECBAgQIAAAQIECBAgcEzg/UkudgTHZ5KcCxeBRQICrEVCvn5M4NemNw0eJXKZJO9BRoAAAQIECBAgQIAAAQIEJoFFbxZ8R5LL0SKwSECAtUjI148JfEWSDyzgqOeavxYZAQIECBAgQIAAAQIECBBIUi8E+/4FErdIUm++txE4UkCA5QJZRaCeTT77EQM+meQSST6+yqT2JUCAAAECBAgQIECAAIHuBM6S5KNJzrugMrlEd62fpyAXyjyuvc76G0nufERxn09y/ySP7hVAXQQIECBAgAABAgQIECCwlMBtk/z2grWSX57khkvNZqfhBQRYw18CKwHcOMmfLxjxv5J8y0qz2pkAAQIECBAgQIAAAQIEehN4bpIKsY7KHb41yQt7K1w98wgIsOZx7XXWqyd56YI3SNQtovdN8vReEdRFgAABAgQIECBAgAABAkcK3DLJk5OcssCp1lCutZRtBBYKCLAWEtnhOIGzJvnxJA9foPLYJA9M8il6BAgQIECAAAECBAgQIDCUwDmSPGT67HhU4fW58aeSfGIoHcWuLSDAWptu2IHfnuSJC+7C+kiSuhX0r4dVUjgBAgQIECBAgAABAgTGFPjqJL+X5NQjyq8Xf/1okl8fk0jV6wgIsNZRG3vM+ZM8O8mtFzDU887/f5IvjM2legIECBAgQIAAAQIECAwjcFKSxyX54QUV19I0d0nyvmFkFNosIMBqJhxygv+W5BFJzn1E9V+cnnd+75BCiiZAgAABAgQIECBAgMB4AvX4YK2LXP95oq0+Kz51iZBrPD0VHykgwHKBrCvwliRXXDC4vjGdnKRuD7URIECAAAECBAgQIECAQL8CFVq9P8kFF5T4runxQk/r9HstzFKZAGsW1iEm/e4kv7lEpbUw372TfHmJfe1CgAABAgQIECBAgAABAocp8F+T/PISp14vBXvQEvvZhcDpBARYLogWgT9JcosFE3wgyT2T/H7LgYwlQIAAAQIECBAgQIAAgb0VuE2SpyS5+IIzfGeSyyf50t5W4sT2VkCAtbetOYgTu26Sv1viTF+f5HuTvHqJfe1CgAABAgQIECBAgAABAocjUG8bfFKSmyVZlDF8U5I/PZzSnOk+CSy6uPbpXJ3L/gmcLcmPJfmFJU7tMdNtop9aYl+7ECBAgAABAgQIECBAgMD+C5x1Wox9mUcHn5zkfkk+sf9lOcN9FBBg7WNXDuucbpjkV5NcYYnT/v4kz1hiP7sQIECAAAECBAgQIECAwP4L3CHJc5Y4zX9JcrckL1liX7sQOFMBAZYLYxMCd03y6OmNg4vm+29JHrdoJ18nQIAAAQIECBAgQIAAgb0W+KEkT1jiscG64+pnk9RTOda+2uuW7vfJCbD2uz+HcnbnSfL8JDdd4oTrEcL65vWLS+xrFwIECBAgQIAAAQIECBDYP4EfSfKwJBdY4tT+Yfqs+KEl9rULgRMKCLBcHJsSOGeSTy852WenNxN6nHBJMLsRIECAAAECBAgQIEBgTwS+O8kTk5x/yfM59wqfFZec0m4jCgiwRuz6fDV/RZLXLfHq1DqDLySpb3y/O9/pmJkAAQIECBAgQIAAAQIENijw7UmelaRCqUXbaUlulKTuwLIRaBYQYDUTmuA4gbMkuWOSxya58JIy9dz0M5PUXVk2AgQIECBAgAABAgQIENg/gfqsd/ckj09Sbx5ctH1mesTw56ebFxbt7+sEFgoIsBYS2WFFgQsmeUiSH0xytiXG1p1Y9U2wQq+3L7G/XQgQIECAAAECBAgQIEBgewIXSnLvJA9YMrz68vRmwnsl+eD2TtORehcQYPXe4d3Ud75pUfdvXPLwn0/y1iR3TvKaJcfYjQABAgQIECBAgAABAgTmFbhKkicn+fok51jyUH+d5FZJPrrk/nYjsJSAAGspJjutKVCh1Kkrjq1vjG9JUs9L2wgQIECAAAECBAgQIEBg+wJ1U8Ilk7wxST0+uOz2z0musOzO9iOwioAAaxUt+64j8KIkt0iyyrX2R0kenuTVSerZaRsBAgQIECBAgAABAgQIzC9Q61tdJ8kPJ7nriod7cZJbJvnSiuPsTmApgVVChaUmtBOBMwhcdFrf6juTnLSCTiX3L03yM0n+dYVxdiVAgAABAgQIECBAgACB1QXOn+TBSf5LkquuOPz3k/yIz24rqtl9JQEB1kpcdl5T4CJJHjWtcbXMGyuOHaYW//vH6bWrd0nyuTWPbxgBAgQIECBAgAABAgQInFjgKUm+IcnVVrzxoD6zvWB6Q+EHABOYU0CANaeuuc8oUHdTPSjJ2degqdtQfzHJI5N8PEkt/G4jQIAAAQIECBAgQIAAgdUF6saCc0+PCtZb5Jd5g/wZj1KfyerOqzuufngjCKwuIMBa3cyINoEbJnlSkqs3TPN705swPjzdofXphrkMJUCAAAECBAgQIECAwAgC9RbBeqtgPSHzXdNdU+vW/aYkD0vyrHUnMI7AqgICrFXF7L8Jga+eFmm/2Zp3Yx07h7cned70xsL6BvpnnrneRHvMQYAAAQIECBAgQIBAJwIXSnKjJPUZrN4seOskV17xJVvHU3wxyV8lud/00q16hNBGYCsCAqytMDvImQhcJsn1kvz2hnTqeeu3TY8X1pSvS/IXSV6R5INJfGPdELRpCBAgQIAAAQIECBDYS4EKq2odqxsk+drpDOsxwcslueSGzvhe05pX9dnLRmCrAgKsrXI72BkE6vo7eXrbYP1FYJNbrZn1hST1FwLh1SZlzUWAAAECBAgQIECAwD4K1OerevP7sX82eY7vne7i+rck9VnLRmDrAgKsrZM74JkI1DfYH50WELxSw+2scAkQIECAAAECBAgQIEBgMwJ1I0At21JvKHxsks9sZlqzEFhPQIC1nptR8wickuS+Sa6f5LrzHMKsBAgQIECAAAECBAgQILBA4I1JXpLkaUleT4vAPggIsPahC87hjALXSPLNSX4oyRXwECBAgAABAgQIECBAgMBWBN41vfG9wqtXbuWIDkJgSQEB1pJQdtu6wNmSXDjJ5ZO8KMl5t34GDkiAAAECBAgQIECAAIExBGr94O+YQqta5+pzY5StykMSEGAdUrfGPterJHlUkmslueD0CtixRVRPgAABAgQIECBAgACB9QQ+meQjSd6S5H5J/n69aYwisD0BAdb2rB1pMwJnSXLnJN8y3ZV19SSXtfD7ZnDNQoAAAQIECBAgQIBAtwL/kuS1ST6W5M+n9a3qzisbgYMQEGAdRJuc5AkEzp/k65LU3VkVbF06yU2SXDvJWakRIECAAAECBAgQIEBgUIEvJnldkr+Y3iRY/15vFPzr6c6rQVmUfcgCAqxD7p5zP6PAuZNcNMnJZ7gjq4Kui0xral0gydnRESBAgAABAgQIECBA4MAFvjSFUR9P8oEkHzquni8nOS3JB5PU44L17zYCBy0gwDro9jl5AgQIECBAgAABAgQIECBAgED/AgKs/nusQgIECBAgQIAAAQIECBAgQIDAQQsIsA66fU6eAAECBAgQIECAAAECBAgQINC/gACr/x6rkAABAgQIECBAgAABAgQIECBw0AICrINun5MnQIAAAQIECBAgQIAAAQIECPQvIMDqv8cqJECAAAECBAgQIECAAAECBAgctIAA66Db5+QJECBAgAABAgQIECBAgAABAv0LCLD677EKCRAgQIAAAQIECBAgQIAAAQIHLSDAOuj2OXkCBAgQIECAAAECBAgQIECAQP8CAqz+e6xCAgQIECBAgAABAgQIECBAgMBBCwiwDrp9Tp4AAQIECBAgQIAAAQIECBAg0L+AAKv/HquQAAECBAgQIECAAAECBAgQIHDQAgKsg26fkydAgAABAgQIECBAgAABAgQI9C8gwOq/xyokQIAAAQIECBAgQIAAAQIECBy0gADroNvn5AkQIECAAAECBAgQIECAAAEC/QsIsPrvsQoJECBAgAABAgQIECBAgAABAgctIMA66PY5eQIECBAgQIAAAQIECBAgQIBA/wICrP57rEICBAgQIECAAAECBAgQIECAwEELCLAOun1OngABAgQIECBAgAABAgQIECDQv4AAq/8eq5AAAQIECBAgQIAAAQIECBAgcNACAqyDbp+TJ0CAAAECBAgQIECAAAECBAj0LyDA6r/HKiRAgAABAgQIECBAgAABAgQIHLTA/wH/3zjcscLqCAAAAABJRU5ErkJggg==;fontStyle=2;fontFamily=Georgia;fontSize=20;" parent="1" vertex="1">
          <mxGeometry x="400" y="-130" width="130" height="130" as="geometry" />
        </mxCell>
        <mxCell id="ozY22NEEOmjd52IIhUNE-106" value="" style="whiteSpace=wrap;html=1;" parent="1" vertex="1">
          <mxGeometry x="320" y="120" width="600" height="220" as="geometry" />
        </mxCell>
        <mxCell id="7Zm9qxxtv7ryHVOUGnMJ-2" style="edgeStyle=orthogonalEdgeStyle;rounded=0;orthogonalLoop=1;jettySize=auto;html=1;entryX=0;entryY=0.5;entryDx=0;entryDy=0;" edge="1" parent="1" source="ozY22NEEOmjd52IIhUNE-113" target="ozY22NEEOmjd52IIhUNE-114">
          <mxGeometry relative="1" as="geometry" />
        </mxCell>
        <mxCell id="7Zm9qxxtv7ryHVOUGnMJ-7" style="edgeStyle=orthogonalEdgeStyle;rounded=0;orthogonalLoop=1;jettySize=auto;html=1;" edge="1" parent="1" source="ozY22NEEOmjd52IIhUNE-113" target="JUDbLiN2Od7CmGKuxI0P-16">
          <mxGeometry relative="1" as="geometry" />
        </mxCell>
        <mxCell id="7Zm9qxxtv7ryHVOUGnMJ-8" value="TCP&lt;font face=&quot;Times New Roman&quot;&gt;8090&lt;/font&gt;" style="edgeLabel;html=1;align=center;verticalAlign=middle;resizable=0;points=[];fontSize=18;fontFamily=Georgia;fontStyle=2" vertex="1" connectable="0" parent="7Zm9qxxtv7ryHVOUGnMJ-7">
          <mxGeometry x="-0.0333" y="2" relative="1" as="geometry">
            <mxPoint as="offset" />
          </mxGeometry>
        </mxCell>
        <mxCell id="ozY22NEEOmjd52IIhUNE-113" value="Search Head" style="shape=image;verticalLabelPosition=bottom;verticalAlign=top;imageAspect=0;image=data:image/png,iVBORw0KGgoAAAANSUhEUgAAAVIAAAG0CAYAAABgyK9wAAAACXBIWXMAAA7DAAAOwwHHb6hkAAAAGXRFWHRTb2Z0d2FyZQB3d3cuaW5rc2NhcGUub3Jnm+48GgAAIABJREFUeJzt3XecnWWd9/HPTCa9kgDSQlPUNYoNsNCWLkgVBKOrrrqgLMquHXRtqI/4sIKIj6LISxAWXQIICBIQRIqNYpAiGkhCSCGFEFJJnXn++M285syZMzPn+l13P9/363VDZnKu677ukzm/ufrVRrp2Az4FnA6MTvleIiL1NgH/C5wHPJ3WTdpSyvflwOeADwHDU7qHiEizNgO/AL4FPJl05kkH0tcDXwZOBNoTzltEJFYncB3wdeDxpDJNKpDuCnwR+AgwLKE8RUTS0glcD5wDzI3NLDbojcGqylcD+6FaqIiUQxswDfgoMAH4PbAlJjOv/YArgVdH5CEiUgRzgX8F7vMk9tRI27F+0CuB7T03FREpmG2A9wMjgHuBrpDEoTXSkcBPgemB6UREymImcBqwutkEIYF0CvBL4MDAQomIlM2jwHHAs828uNlAOhmr7k5zFkpEpGzmAQcAi4d6YTOj7GOAm1EQFZHWsgdwB9YaH9RQgbQDa87vn0ChRETKZhpwK1ahdPsWNnqVxPUC8Hm05l5E0jUCOANYSnLx60fewhyCTVCNLcBG4GJseoGISFbGA18F1pNMMA2erbQdsCSBG98A7BJ6cxGRBE3FYlFsPFvZnVfTfhx5w4XAKZ4nFhFJybHAM8TFtmuavdnriWvSXwmMdT+qiEh6xmF7g3jjWyfwtmZudFfEDT4b+5QiIhk4B4tZnlj3R4aYg7+/M+Mu4KzEHlFEJH2fwB/vDh0s4xnOTL+R4MOJiGTlfHwx75cDZbgrth1/aIZ3on1IRaSc2vF1Z27FVj71c54jszUETgcQESmYXYG1hMe/rzfK7HFHRl9I5bFERLL1ZcLj32P1mbzckckKbCqBiEjZjQWWEx4H94Levs0THDf+IVYdFhEpu3XYQqRQx0FvIPVs1jzTkUZEpKg8Ma1P7HySsOrsJmCUv7wiIoUzmvCZS0/0JO7AAmNI4qa23xcRKZlFhMXCjcCwdmAHYHjgzVYkU2YRkUJ5PvD1I4Dt24GJjpstc6QRESm65Y40E7yBNDRqi4iUgSe2TWwHJjgSrnSkEREpOk9sm+Stkb7kSCMiUnSe2OZu2iuQikgVeWLbxHZ8u9lvcKQRESk6TyAd145vYr1qpCJSRZ5K4sh2bB5UKAVSEakiTyAd0U74ZHxQIBWRavLEtuHtwMiMbiYiUnSe2DbC27Tf6EgjIlJ0mfaRbnGkEREpuq2ONCO8TXsFUhGpIk9sczftFUhFpIoUSEVEImUaSD39CCIiRbfZkWZkO7ZDfijVSEWkijyVxI52YJgjoQKpiFSRJ7a1K5CKiPTyxLZh7fQeyZz2zUREis4dSFUjFRExmQZSjdqLSBW5+0jVtBcRMZn2kapGKiJVlGnTvtORRkSk6LocadzTnzw3ExEpOk9sc9dIFUhFpIrcgdTTR6pAKiJVlGmNVH2kIlJF7j5S1UhFRIynkqg+UhGRGhpsEhGJpMEmEZFIrj7SDqAto5tJMY0HdgG26b4mA6OBccDwBq9fjx3HvQZYWXMtwHcmuEiRePpI2z2744MCaRlNAfYB3gy8CdgT2A0LnElZjgXUecAj3dcsYFGC9xBJkzu2PdOdOOSaFFdWyUA7cADwDeAhbH+E0H/npK7ZwPeB47EasEhRbUP4z/c88AXSCZk8knjsB1yE1QLzCpyDXRuBm4H3YF0IIkUyCWcgne9IqFpFsUwAzgIeI/9AGXKtBq4A9k38HRHxmUj4z/Ez4Auk4zJ5JBnKLsB3sYGfvINi7PV74FR8p9qKJGU8zkD6rCPh2EweSQayB3AZ1kzOOwAmfc0DPohvfrNIrHGE/8zOBxtlDU2ovq18TAHOx6YZ5R3w0r6eBN6Nb3qeiNdYMgyko7J5JunWAXwKWEX+AS7r635g7/i3UKQpYwj/GX0WfKO7I7J5JsHmfT5I/gEtz2szcDEa5JT0jcYZSBc6EiqQpm80cCH5zv8s2jUfOCTmTRUZwkjCfy4XgK9GqpHVdO0D/I38A1cRr63At9Evc0nHCMJ/Jhe2AYuBHQNv1oFOEk3L2cAF5BMongeew5oqK4AN2Dr6WlNqrl2AXcnnF+tfgNOAp3O4t1TXcGBTYJpFWmtfHOOBn2BzKbPwD2zu5gNY7fdx+gfNZgzH1uzvja3hfzOwP+n3Z74J+DO2Quo3Kd9LWocntrWB1UBCq7KakpKs3Ul/VdJK4OfA+4DtU36eDuBtwJeAh1N+ri3AJ1N+Hmkd7YT/DC4CXyCV5LwVWEI6QWYDcC1wLI23xMvKHsA5WC04rYD6YzSJX+K1Ef6ztxjCP8TqG03O8aQzuX4+8FlsJ5siaQMOBGZgNcmkn/taNAgl8UJ/7p6D8EC6JaunqbjpWKd2koHkcWwApgyzKl4O/JDkl7nOREuYJU4njkC6NDDR5qyepsI+QrLzQ5/C+j49x8bkbQ/gZyT7ftyNljGLX+jP4hKAZYGJNmb1NBV1Csk1a18CvopNIi67NwJ/ILlgejvVeF8ke6GfT1cg3ZDV01TQiViNPolA8VvgFdkWP3XtwMewfUqTeI9+gQagJFxol9tSsHN2QmtBEu5tJDOwtAWbVlTGZnyz9gDuIZlgenHGZZfyC+23dwXS9Vk9TYXsQXhfdKNrEXBwxmXPSzvwZZLpOz0947JLuW0g7OdrGdiywJBE67J6mooYDzxBfDD4C7BzxmUvgqMI/xmtvzYCB2VdcCmt0JbjcrA11SGJ1mT1NBXxC+KD6E209vEur8BmJsS8h8tozV9EEm4dgYHUM9+wK5GitoZPYPM6Y/wIO9iudiHEdthofVHni3YCZyaY39NYH/PN3f/32A64CjgcK5/IQEJjXBvAC4RF31UJFbbq9iZ+svlF9N/XYALF3+g5rbnGY7E5ojFlOzelskl1hB4m+TyEB9IXs3qaEhsBzCLuA//NBvmOwqY95R0o8wqkYEdB3BlRtk3AfimWT8ovdPrdCrBdgUISebZaazXnEReILmiQZwdwY2S+VQikYDXTP0WU7zHy3cRFii30bLQVYDXM4EQyoL0Inz5Re11B/+Z8G3B5RJ5VC6RgG0vHnCKgJr4MJDQmvuBJ9HxWT1NSd+D/cM+g8UqciyLyrGogBZuf650atR7bOEWkXmh350oIr8Yuz+ppSugk/MHnIRpvtHFuRJ5VD6Rgo/DeZbe3ZFhOKY/QKaGuQLosq6cpmWH4J94vxs4/qvcewrf0KsKV9Q5hn48o68EZl1WKL7SV8yKEj1AtyeppSuZf8H2QN2G75Nd7C+ls+lzFQNoO3OUs6x/R0TnSV+hGTq5A+lxWT1Miw4DZ+D7IjQY9pmC73OcdEMsSSMFq9KFNsp7rpBzKK8UVui/GKgiffKpA2t8p+D7Av6P/Lk5twK+d+RXlymvz7w8HlLH2eiSPwkphuQLp2sBECqT9/ZnwD+867Bjjev/uyKtoV16BtA375eQp8xHZF1cKKjSQri7qWu1tgPNTyHcD1u+4AfsFshrr3/g78Kgzz4PxrZS5AGu+19oD+LazHGI/1Gdi/5ahP9ufAX6TeIma8z20m3+zziH9RUFdga9vg/CdThYnVNjBTA0sUxLXF51lvdlxr/nYUsdabZRj+WeRa6Q9LiW8zJ3Y/gh5CO1ea+VrqvM9DhF6IOiadjRi2aO+dtiMqcAxjnT/h/4bZJ8FHOLIS/r7MuHbPbYBZ6RQFimf4JhY5eMqQnRih6WFOoPwM4GWYqdm1toT+Jbj/tLYMqxWGmo6amKL1TJDtCmQmgcJX7E1HDtWOdQl9D/36iJae+PmNFxE+Im3k4FjUyiLVFubmvbmNkeaI4AdA9OsBX5Q972DgeMd95fBPQdc6Uj3waQLItWnQGp+7UjzHkeaGfQdcWwD/tuRjzTn+440R2LnbEnrcjXtQwNp6E2KbjnwcGCaUfhqkfU1pPcB+zjykeY8hu1bGmIkmlPa6jTY5HAn4Wf4HAlMDEzzDHBvzdcjgW8E5iHhfuxI45mJIdWhwSaH3znSeGosV9H3H+gUGq9skmTdQPig0ztRl5c0T4NN2GFqoTyB9Ka6rzVnMRurCF+xtAPwmhTKIhXV6oF0EXZeeohdgFcFplmKHYbXox37sIbWlMTnOkeatydeCqmqtqKutV8JfDSD+yxwpNnXkeZ2+vbDdtIbjCdigXUcNjd1FH13yh+LnUo6kAkMvihgEtn/sizaufG3Y90qIe/D24HL0ilOP2ejw/ialcXhm64B9S2ErStdlERJS+zrhK8Pnp5LSaXWY4T9mz2RTzGlABYT9rOySYNN4d7oSBM6BUeSd1fg61+JtQ5EhtRO+BSoqs0jDfXqwNevAOalURAJ8ofA13cA/5RGQaRy2tpRYAzRTuND6gYTOtlf0vGQI820xEshVaTpT4FeRvjuQLOGfolkYB52XnmI3VMohxRfcOVSgTTMzo40cxIvhXh0AX8LTLN7CuWQ6tHKpkCTHGk8G0ZLOkKnu2nlmTRFgTRM6Pp6UCAtktBAul0qpZCqUY00kCeQeib9SzpC/y0mp1IKqRxPIG3lUf7QgaYt9D+bSfKzMPD1U1IphVSOaqRhQs9nWpdKKcSr/oiXoWhCvjSjS4E0TOj7pdposYTuAeBZsCItSD8kYUKniml3p2LxbKYy2IYxUk2ueaSp36RCQgOjPoTF4vnZ3Zp4KaRqujxLRFt5Av/qwNePTaUU4hVacegENqdREKkUHX4XaE3g68ekUgrxelng6zekUgqpGleNtJWFBtKejZqlGHYIfP3aVEohRZdJH2krCw2kEL5blKRnp8DXL0ulFFJ0Oo45ZZ5AunvShRC3HQNfvzyVUkjRhdZI1bQP5PlgaeOL4nh54OuXpFIKqRzVSMOsxHa8D/GKNAoiwYYDewem0ckG0hTNIw33dODr35RKKSTUNMIH/rSXrDTFE0hbeR4pwFOBr98HvWdF4Dm0MPSXplSDa9Q+uGM19CYVExpIJwN7plEQCbJv4Ou7gL+mURCpHvWRhgsNpAD7J14KCXVU4OvnAavSKIhUTldH3iUYwBTghwGvXwl8NKWy1As99wfgGOBnSRek26gU8y6r/wCeq/l6GuGtgr847jsO2BUY3f318O7vgVVaajcGn0Rvl8947PhnsNVwPfvejqR3dVxH9+t68vog6W/T+BNgQsr3CHUm4QO+mdiCNWOavbI4OmNqYJkWZVCmHsOw+aQh5XuB3g9K0sYFlqXq14v03zf2XEc+Zzfx3tf7WobP6TmtIdSyDJ+n2Wtqqk9sng0s0ybNIw23lfCz6rcB3p5CWaS/e+m/Y9OxznxCHepII8UTHBPVR+pznyPNaYmXQhq5o+7r3YG3BuaxEng0MM04YL/ANFIN2iHfqf7D2ozp9PadSTo6gV/Wfe90wisMMwnfBPoAtP9sy9KEfJ8/Eb436TbASSmURXrNpG9/+XDgw458bnGkUbO+hamP1Gcz9qEN9ZGkCyJ9XFz39YmEb523GbjNce8DHWmkItS095vhSHMottJJknc3/btcPu7I53asjzTEaLQUuEo02JSh2/DN4/tC0gUROoFP133vMOAgR17XONLsg/pHW5kGmyKsA65zpDsBmyAuyfkZMKvue1935LMGuMmRTlPbWpz6SONc5kjTjk3clmSsA75Y971jgLc58roKWO9IpyXALU410ji/B55wpDsZOCThsrSqzwCLa74eBnzDkU8X8ANnGVZiS1I3OdNLyXmWLWZRg10BnBrw+pfSKkgTLgQud6S7GBug2JJscVrKzcCldd87C9+WeXfj+6UItu69x3hgW2wdfe1a+RH0Hs9duwbfy1NzDvVv9K77L4os1tm7YtxGwtaVzkuipBUyEquNeNYNfyKB+7fqWvtFWMCqNRWb3+vJ78gm32+pvnmE/ey8BHZ2twJpnM/g+/CuBfaKvHcrBtKtwBEN3osbnfk92NQ7La1CgTQnY7B+Os+H+E/E7QzVioG00WDdqRH5ndDUOy2tQoE0R2fh/yB/JeK+rRZIr6L/0S2vwLbP8+T3+6bfaWkVmQTSuVk9Tcl0YDsGeT7MW7ApOx6tFEjvof/gxyhsE2Zvnpq6JPVCA+l6UI00SYfi/0CvBF7puGerBNInsI1f6l0ekee1Tb7H0lrm4gikLwUmUo10cD/H/8H+O3YERYhWCKQLsH1F6308Is81wC7NvcXSYhRIC2A74o5ouJuwfUurHkifA17V4LlPw0bvvfl+ptk3WFqOAmlBxIwgd2Fb9DU7EbrKgXQ58NoGz3w44fOfa69ZpHeGlpSfAmmB/Ji4IHIjtgJmKFUNpCtpvEJpP/yT7ruw/Ua15Z0MJjSQrgOLpgqkyYsdTe4JpkM186sYSFcBb2nwrIcRF0S7gPOHeD9F5hAYSNuwQBrSJzeP8DPCW9XLgYcIH0CqdT9wPANvNtxB9Y4weRJ4vO57pwBXE7f2ezbwBvLdm0GKbw5hMW59z39UI03PCdjGwzG1qMdp7V9eH8Pm2sa8h53AwVkXXEopuEYK4YF0TlZPUyHnE9/cXYENsrSSUdjuTkl0F/ww47JLebkC6brARAqk4dqxpY2xwWAzdlTJsGyLn4s9sW6RJIJoF/BTtP+uNCc0kK4FBdKsDAduJZmg8Dtsy7iqOgnrE04qiPZcV9Iav4QkjgJpwY3BNslIIiisxPoOq1TL2hk7ByvpAFp7XY2CqQzuaRRIC28b/JubNLruB/bO9AmSNww4G5v2lGYQ7bl+jibky8BcgXRtYCIF0ng7YVN8kgoMW7E+wLKtHW/DpnbNIpsAWntdS3MLHqT1hAbSNaBAmpdtgQdINjisBy4BdsvwOTzasGlhsQsWYq8bsZkBIrUyCaRPZ/U0LWAc8BuSDxCbsFkCRdtrcxLwUfKpgQ503Q1MSPOhpXQUSEtoJDCD9ALFE8Cnya+W2o4dLHcN4XOWs7oewga6RACewhFI1wQmUiBN3jBswniawaIT60r4ElZTTbN/cE/gDOB/sR2c0n6umO30eq5l6CRRMQqkJXcmcdvDhVxrsWbthcD7sV2Vtgss73hgGnAi8F/YAE7ozjkx1wvd9/5XkgmmW4EraO3luBIeSFe3YYF0XMBN5mCHjaVpCuVa0nclNtk+CftjNbm8mprrgKXYPNXajVI2Y7XYiVif4vY0PvojK38ApgPPdn/9fmzmQhJzRLdiG5w8iW0s/bfu+z2SQN61JgPfAcYmnG+VnYktl07TU4TFuMLWSKcGlinvawvwiQSffwr+M9qrfm3Alsk2mgc6HQv4ad17Lhb4pjW4t9chhM/lbuUrixV9wTVSUCBN8rqYZFfNnEF2k9TLcD1E4x3za51KusG0C+t+SfKokkMp7kBc0a7CBtLQjXIVSAe/bibZptou3Xnm/Vx5XmuAc2l+NdLJ2BSwtMt1BTCiyTIN5XAUTJu5sgikodOfVoECaRrXw9jqpSQdh/Xb5f1sWV5bsCNbdnS8XyeTfs20C9tAJmbj7lpHEn70T6tdlQmkWaxsKnsg7cIGQZJeAz8C+BQ2GJT386V9/Yr4vsj3kcxo/lDXI8AOkWXt8Q4UTAe7FEgDVCGQdmHv7dEJvzdgXQefA5YU4BmTvDZiI+9J/gL6CPEnFDRzPY0dLZOEo7FBtbz/PYp4FTaQhg5mKJCGXZuxKRtpGAl8mGR3k8rjWgp8E18TvhnnZfQczwGvT6jM70TBtNFV2ECqPtJsrotJd+/QN3ff4/kCPGsz13psAv9xpL8LUzvp7GnQ6FoJHJhQud+Bgmn9lUUgDd3Y+UVQjTTL65fY5s5pGgkcA1xG8Zr+C7Cm+2mk/z7U25HwqX7eaz32CyIJx5PdarcyXEWskSqQ5nA9SHpN2HptwOuA/wCuxwbAsnrOTuwHcgbwceDVKT9rM75Dds+/GfhAQuU+gWymc5XhKmSNtA2LphMDbjKX5DrVBzKV3qV/VfQscCzwWA73fhk2mLMnsEfd/yc78lsBLMRqmwuwZZWPAH+le6JygeyD/SLLSidwFnYSaqyTsKXDrb4Z9a7Yz1maQs+1X1XU4xZWYCtUqmwn8gmkS7H+wkbGYl0Dk7ANj0dj6+o7sN+8G7Fm67ruPy/BpuqUxV+xco/M6H7twA+w9/GiyLx+CRxA8TftTlva6+w9uqCYTXuRtOS1qfT5WTycJCJ0B7OV7d1/EGkVebQCAD4PfCOne0uY4JjoCaRtoTcRKZC8AinAF7EBL32GKuhF1LSX1rEb2SwbHez6EenOKZY4oU37F1QjlVYzH1sIkKczgMtJdstFydlKVCOV1rIDdkxJnrXSLjSdqahcNdJQqpFK2S0BTif/gdZTsdpxUnuaSo5Ca6Rz8ymmSOK+Rv610i7g19i8XSmGeYT9+62A8CaOAqlURTtwA/kH0i5s/9WsFgrI4IKb9qBAKq1tNHAP+QfSLuA2VDMtguAaqaZgSKt7CdupaVbeBcG2zbsRC+5SIgqkIra5yjuwM7HydhQKpmXTpXmkImYZto/r4rwLgh2CdxMKpmXR5qmRhgZekbKYAxyCTY/K2xHATGBc3gVpQaGVxS417UX6mo3VCIuwXdtB2NQoBdOCUyAV6e8x4HC6p7Xk7EBsNH983gWRgamPVKSxR7CTPNfkXRBsQ+dbUM00K8Hdl6qRigzsT9iRMOvyLgjWzL8VO8VA0hVcWVQgFRncvdjUqLV5FwQLphqAKh4NNok04X7gaIoRTA/ABqBUMy0QBVKR5tyPzTMtQjA9EDsMT/NM06GmvUiK7sMGoIrQZ3oEtgJKa/Pz51rZJNLK7gVOpBjHUB+JgmkhqEYqEu5O4ASKEUyPwrYC1BZ8OVIgFfH5DVYz3ZB3QbCBMAXTHHVQzAn52wHXZHAfScdWbMpQ2u7A//O4FPgYcYNHdwAnYQM/eTevjwH+B5gObE4gv28B+ySQT9LeCyzPuxCNLCNsE9N5GZRpamCZdBXrSuKD3IzOyHLeTzJzMo/Cmvl5v+9dwHVYBSnWtti+A3k/T/01NYFnG8r8wDIt1eF30sr2x9axxwbT27GaaRGa+ScDPyc+mD6PdRksiy5R+Wj6k0igngnuscF0JsUJpqdgzfzYYDoHOz2gCNO9Ck2BVMQmuCexjn0m8C5gY3SJ4p0KXA0Mi8znAazfdWt0iSpM80hFzEEks1roNiyIbYouUbzTgMuIrzD9CvhkfHGqSzVSkV5JrRa6GQtiWQ26DeZDwCUJ5HMJcEEC+VSSAqlIXz3nJcUG0xuxPtMiNPP/HbgogXw+D1yVQD5Vo8PvRBo4Erie+AnutwLvoRjN/P8EvhCZRxdwOnBPfHGqRYffiTR2DMk082+kOCugvgl8KjKPjcDxwKPxxSksHX4nkqB3kMzSy9soztSo/wb+LTKP1dgvmgXxxakGBVKRwSW1jn0mxdjopA24FBsMi7EIC6YvRpeoAoq61n45NoIq5ZRV98+RGd0HYBK2Pj/GHViz+CZgTHSJ/IYBP8NqlrdF5PM48FayWbbZo5Dr7AGeI2xd6fx8iilSGQdiQSzvdevrgX9O91FLaQFh7+NiTcgXyd592OmkeR9bMhqrHb8p53KUnvpIRfJxL7Zr1OqcyzEBuAXYNedyFIlG7UVK5A/AocALOZdjR6yvdFLO5SgtNe1F8vUwNjMg79Hv12Cbqaty5YiJetNE8vcAVjNdkXM5jgbOzbkMRRDctAdYSNgI1bMJFVZE+nojtqFyniP5W7ANr1tZaExcqCWiIsUxC5satSTHMgwDvk/8PqYtRUeNiBTLk9hilDyP+HgDtmpJmqTBJpHieRw4hHxrpkfneO+y0fQnkYL6G3AwtqY9D7vldN8icM0jVY1UpJhmYzXThTncO4ljqstK059EKuYpbD181rNl8t6lqlQUSEWKbw52ON/cjO/ZqtS0F6mo+dik/awC3MMZ3acS2tF0JpGymA8cADyW8n22YhuZSJN0+J1IuSzBaqZp1hhvIt95rKWjpr1I+TwPHIbta5q0rcDXU8i3yjSPVKSkVmGH892ecL7fBR5JOM+W8AzatESkrEYAM0hmw5L7iD/krwoWE/a+zaP7PyGJdASrSLEMA64gLoj+GZiccbmLSoFUpEW1AV8BOgkPor8Axmdf5MJyBdK5gYkUSEWKazq2KqmZz/Ic4JR8illoCqQiwt7A94Cn6V9DXQZcC5wEDM+rgAUXGkjntmGBdI+AmywEpiZX5oa2w86PKbs1wLtSvsdo4OaU7yFhjgU25l2IbhOAbYEO7CiTvI8zqfcLYErA698LLE+pLD0WYwcCNmteR1oliTQKODzvQiQgi9Mhh1GN96pKirS7/GryP/J5MAcCOwW8flRaBamh45hFRLKmlU0iInFUIxURiaVNS0REIqlGKiLSV3BlUYFURKSv0LioPlIRkTrBcVGj9iIifWkeqYhIJFcfqWqkIiK9gmukHRRz+tNSYJ8M7pO2LRncYz3VeK+qZEPeBSiRownbPGVpWgWp4Ypxswnb6WRhEiUVESmo1YTFxH+oaS8i0pcGm0REImlCvohIpEzmkWqtvYhIDU+NVIFURKoskyWi6g4QkSrLZEK+AqmIVJlqpCIikTIZtVcgFZEqU9NeRCRSJhPyFUhFpMpUIxURieCZ3qkaqYhIDdc8eQVSEZFervimpr2ISC817UVEIqlpLyISyR1IPbs/aeMSEakiT0XRvbGzaqUiUkWZNe1j0omIFFlmTfuedCIiVZPZqD0okIpINalpLyISKbMJ+e6biYgUnJr2IiKRNNgkIhJJNVIRkUjuPtIs04mIFJma9iIikdS0FxGJlOk8Um1aIiJVlOk80uGem4mIFFymTfuRznQiIkWWadNegVREqijTUXsFUhGpIvfGzp5AOsqRRkSk6DJt2o9wphMRKbIORxr3YJNqpCJSRa4ZSRpsEhHp5amRarBJRKSGp0aqeaQiIjXcNVIPBVIRqSJ3H6ma9iIiRk17EZFImTaUfOnuAAALHElEQVTtNf1JRKpITXsRkUiZTshXIBWRKlKNVEQkkvpIRUQijfYk8gbScc50IiJFNtaRxr2N3iRHGhGRohvjSOMebFIgFZEq8tRI3U17BVIRqSJPjdQ9aq9AKiJV5O4j9VAgFZEqcjftPTXSMcB4zw1FRApsgieRt0YKsEtEWhGRItrJkcbdtAcFUhGpnp09iRRIRURMG7CDJ6G3jxRgN2c6EZEi2hnnUfMxNdLXRaQVESmaA53p3EtEAd7gTCciUkSHehPG1Ej3ACZGpBcRKYpJwHu8iWMCaRtwRER6EZGiOAP/rnZRTXuAd0WkFREpggnAJ2MyiKmRAhwHbBuZh4hInr6Ec9pTj9ga6Tjg3JgCiIjk6J+AsyPzcK1sqg+8nwD2jyyIiEjWRgBX03/uaHDl0lMj/StwV83Xw4EZwO6hNxcRydG3gDfVfe8u4NHAfLoAftf9h2avvwAvAxbVfX8OznWqIiIZOwnopG8MWwRsD8wiLCb+ztO0bwOWAtOBLTXf3xO4m8hOWxGRlL0ZuAqLZT22YDFtGeGD8F1gwS8k+tZWe88Z4O81ki8iRbQ78Bz949bna17zWIO/H+y6G8ID6eM1N2wDbmjwmkeAKUk9uYhIAnYD5tI/Xl1P39rpEw1ek3ggfaKucKOBBxq8TsFURIpiN2wcp9GYT/3xIk82eN1g12/p/k9IoicbFHJn4OkGr30YNfNFJF9vBhbSPz7NpvGO+H9v8NohA2lojfTvAxR2F+CpBq+fC0zzPL2ISKSTgXU0DqIDzTKa3eD1iddInxqk0DvTeOrAWuD0kKcXEYkwEriA/lOcelrKg53N1Kh1PWQgvSsw0ZwhHmAccMsAaWcCrxr6PRARcXsDA4+838zQuzw16ksd7LoLwgPpvCYeZBjwFWxuVn36TcCl2H6mIiJJ2QX4CY3jzhZsc5Jm5ojOa5B+yEB6Z2CiZwIe7GDg2QHy2QzchG3FNzIgTxGRWnsCFwPraRxr5gMHBeQ3f4B8Eg2kzwY+5Hjge8DWQfJcAfw/4DC0zFREmvMW4Foa10B7aqHfxWJQiAUD5DfQdWcbFkgPC7jJInxHMe+Ldf4e3MRrNwDLsUGqtcAqYA32xqzGgnKP+q97XjfQ12ux2vBAX4eqzz/GRuy3alUMx7/reJm0YUdVlM1IYEzehXCYDLyfwXeduxv4LDawFGoRgw9G1burA4uoIbybQT8I/DPwTqz/dN9BXjsKmOq8j4i0rgeArwK3ReTRNvRL+nDtRxq7q/6twH5Yn8X12OCTiIjXRuA64ACsuR8TRMER4zocNwmN1gO5r/vaBhtwOhSrTm+P7SA1OaH7iEh1vAAswXZpWozN4bwBWJngPVyBNKum/UBWApd3X7V6+p16+tlGY03+cd3fm1Tzmp7g3k7fI6Lr++jq+4TG0HfGwHj6/nKZSO/zNuoHm4BN9RpMbR4ieejExhkGsxUbb6j1Ir3xoT6PLdj4QI/6/v313d/rUT+WsKo7T7rv8WLN/zdjYxcvYeMlPeMYteVJU/A2ep4aaVZBoYve3zLLMrpnXmp/GQxkmyH+vv6XSKix9D9yIU1pDETFDhyG2oQtP/RqJjAMVdPqCT6SnFI17aVXMx+EJJsuIjKw4BppHoNNIiJFFhzjPIffKZCKSJW5AmkWaUREyqIU80hFRIpMTXsRkUiZDDZp1F5Eqkx9pCIikdS0FxGJpMEmEZEIbTi6L71BUcFURKrIFds8TXvQgJOIVJMnkLqa9t6biYgUnauSqEAqItIr06a9AqmIVJGa9iIikVQjFRGJlGmNVKP2IlJFGmwSEYmkpr2ISCR3016BVETEuJv2noQKpCJSRUMdr96QloiKiPTyxDbNIxURqeGKbR34aqSu6m/CtgcOA14F7IA9xwvAbOAe4JncSiYiZeUOpB55Nu3fAXwaC6KDlePvwI+Ay4B1GZRLRMrPHdtuxGpzIddukYX12BG42VHW+cAxOZRXRMpnN8JjzI1l6SN9LfAQcJwj7a7Ar4DPJVoiEaki94T8LNN57IX1ee4UkUc78G3g7ERKJCJVVcmVTWOxrofJCeV3IfC2hPISkeqp5DZ65wCvSTC/YdjgUxFmHYhI8WTatM9i1H57bHQ+adOAd6WQr4iUnyu2eeeRZlEj/QAweojXdAJ/Bh4BVmMj+28HXjFEutOBGbEFFJHKcTXtAW4gfLj/tfHlHdIfB7n/VuDH2ET8Rg4HHhgk/SZgQoplF5Fyei3h8fCGog42jQDeMMDfrQOOAM4AlgzwmjuB/YGrB/j74cAbYwooIpVUqcGmHYFRDb7/EvBO4LdN5LEZ6x64foC/H6r5LyKtp1KDTeMG+P7nsDmlzeoCzgSWNfg7Ne1FpJ57P9IiNu1XN/jek8APHHktB77W4PsbHXmJSLVVqmm/GGua17oUG6X3uBLrFqjVqJYqIq2tUktEtwK/r/ve7RH5rWuQ36yI/ESkmiq3RPSmmj93AnMj86tN/0wC+YlI9VSqaQ/wU2Blzdf1Tf1QtctCr8H3C0REqq1So/YAq4ALuv/cDrwsMr9p3f9fC3wvMi8RqaZKjdr3uIDevs39I/LZFdi3+8/nAUtjCiUilVW5pj3AFmA6toLpQxH5fA5r2t8KfCeBcolINVVq1L7WAuAorEZ6kCP9fsBHsVH/d+OfQiUi1Ve5UftajwLHAv8XWyffrMnYwNIF3enr55KKiNSqZNO+1h+AjwMnBqQ5G3gv8AWsm0BEZDAtcRzzQ91Xs76aUjlEpJoqXyMVEUlbpftIRUSyoBqpiEikyq1sEhHJWiVXNomIZElNexGRSBpsEhGJVNkloiIiWcm0aa/BJhGpIg02iYhE0mCTiEgkdx/pWke6UZ6biYgU3EhHmpfAdo7vCrzmAOOjiywiUhxjgX8QHg97Tt/gTkfiH6b+WCIi2bmU8Dh4S20Ghzsy6ALemepjiYhk40js9IzQGNjvLLkHHZksBrZN68lERDKwLRbLQuPfzEaZneLIqAvrFvBuEC0ikqcOfF2bXcCBjTJsBx5zZqhz4kWkjC7BX4Ec0InOTLuAC9GKJxEphzbgIvzxrl/faH3mD0Rkfjm+eVgiIlkZCfwUf5y7vpmbHIJv9KrnehjYK/JBRUTS8ErgL/jj26buPJpyRcSNuoDVwGeAEd6nFRFJ0Ajgs8Aa4mLbt0NuOgVYGnnDLmA2NhtAa/NFJA/tWAyaTXw8exLH8viTE7hxz/Uo8G4UUEUkG+1YzHmUZGLYFuCt3sJcmFAheq4ngA8Aw7wFEhEZRDtwHHH9oI2uTw1206GmK3UAdwEHOR5oMGuwCC8ikqQOkt9Q6X+AfxnsBc3M+9weuBd4VRIlEhEpkfuxdfgvDfaiZifQ74wF0z0jCyUiUhazgEOBF4d6YbODP4uwHaKe8ZdJRKQ0HgAOo4kgCmGj6POwDUzvcxRKRKQsrscWJq1sNkHodKTnsf6CawLTiYgU3VbgPGza1PqQhDGbjLwb2yV/SkQeIiJFMB/4IHCPJ3HMBPkZwOuBX0XkISKSp03YfPnX4QyikNy2dwcD5xMx819EJEOdwHXAF7DDPKMkvX/occDHgSNSyFtEJNZqbAu9S0gggPZIK9jtBZyO1VD3AnZI6T4iIoNZCTyFrbm/BfgNgQNJzciq1tizbGsSMA47P3ocMIa+G0GPp+/5T5NqytjW/XV9nj1GdudXayLh/cDDgAmBacB2hRntSFf/zGXlfd8kW+uBjY50TU8FqrERX9BahTW9AdYCmxv8eR3Wv7kVq2WuxJaer+n+eg2wAJtplLr/D1RVibERgFj7AAAAAElFTkSuQmCC;horizontal=1;fontFamily=Georgia;fontStyle=2;fontSize=16;" parent="1" vertex="1">
          <mxGeometry x="415" y="160" width="100" height="129" as="geometry" />
        </mxCell>
        <mxCell id="ozY22NEEOmjd52IIhUNE-114" value="Indexer" style="shape=image;verticalLabelPosition=bottom;verticalAlign=top;imageAspect=0;image=data:image/png,iVBORw0KGgoAAAANSUhEUgAAAVAAAAG0CAYAAABkPX9NAAAACXBIWXMAAA7DAAAOwwHHb6hkAAAAGXRFWHRTb2Z0d2FyZQB3d3cuaW5rc2NhcGUub3Jnm+48GgAAIABJREFUeJzt3Xm4JWVh5/FvLzRNN4sNiICyCAoIOBMliY64MEKMQQkZlGeMcTCaEXdbRw1xewTNGMw4KhKNqEFFjQsqIrjiEDQYJghBlAZ0WBqVRfat6b3v/PHem3u4fe699b6n3qo69X4/z1MPTfepOvWeU/U7b9W71ALyWAA8HzgJODzTe0jSfC4HPgJ8Adhc98YX1Ly9JcCLCMF5cM3blqRU1wF/B5wBrKtro3UF6DbAXwDvBB5d0zYlqW43A38N/AOwcdSN1RGgfwx8ENi/hm1JUhOuB94CfGOUjYwSoCuAU4ETR9kBSWrR+cCrCDXTaKkBegTwRWD3xPUlqSvuAF4M/CB2xUWRr18AvA34DLBj7JtJUgctB/4M2ARcHLNiTA10MfAx4BUxbyBJY+TzwMup2MBUNUC3B74GPCdxpyRpXHwbOB54aL4XVgnQZcC3CPc9JakE/4cwGGjOPqML59nIMkIr1RH17JMkjYUjgS8T+rjPaq5GpEXAOXjZLqlMBwJ7AOelrHw6MFHTcinw7PRySFJlRwJXUl9+vTZ2B15Z0xtfAxxH/WPuJWkuiwnBdyej59gGIiZFOpTQ+jTKG94FvHqyEJLUlhXAR4EtjJZp1xN6I81pW+CqEd/oa8CuIxZakup0BHAjo2Xbx+d7k3eMsPFNwMrRyylJWexKGGmUmnFbgN+dbeN7A2sSN7wOeEGNBZWkHJYC55Ieoj+cbcNnJW5wM6GhSJLGwVLgn0gP0WNmbvBQQhCmbOxNWYooSfnsCFxLWub9ZObGUqu052MXJUnj6Ymk9zg6emojT03cwF3Y2i5pvP0lafl3ydQGLkzcwGtyl0ySMltC+qX8H5C44mrsJC+pH44lLQf/mcQV39hIsSQpvwWEYecpWRi9wnrC8ChJ6ovU+T+iVzi/oQJJUlN2IlQOo/JwvgmVh7m0jr2VpA65D7godqWUAL0lYR1J6rrvxq5ggEpScEXsCikBel/COpLUdT+LXSElQOd91KckjaF7YldICdC1CetIUtdNECZVqiwlQOd8TrIkjbFNMS+2BipJ0zbGvNgAlaRp2Wug6xPWkaRxkD1Ao6q4kjRGsgfoloR1JGkcZA3QqCZ+SRozBqgkJTJAJSmRASpJiQxQSUpkgEpSoqxj4Q1QSX02EfNiA1SSpmUNUDvRS+oza6CSlMgAlaREBqgkJTJAJSmRASpJiQxQSUpkgEpSIgNUkhIZoJKUyACVpEQGqCQlMkAlKZEBKkmJDFBJSuR0dpKUKCrjFkduPCqdpQiLgX2BvYGdgQWTf//g5HILcDOwro2dUzGiMs4AVRsWAAcBh08uTwEeB2xTYd1fAz8HfgZcCvwIuCvPbqpABqg66ZHAc4GjgaOAXRO3s9fkcvTk/28BrgIumlwMVI0iOuMmIpZv17ab6ruFwO8B7wb+ldAAGXOspS6bgSuBDwN/AqzIXVD1yreIO96iXvyt5sqhMbQ9cAxwBuF+ZROBOd+yCbgMOBk4jOl7q9Iw55MxQM9vrhwaE/sBK4ELgA20H5jzLasJAX88IfClQedhgCqjJcBzgI8RGnTaDsRRljWEE+ZVhNZ/6VwyBuh5zZVDHbKMcGl+FnAP7QdfruV64DRCI1eVHgHqHwNUtXg08Grge8B62g+3ppc7CT8YLwCWj/hZanycQ8YA/WZz5VALpu5nXkzoHtR2iHVlWUu4x7sS2DP509U4yBqg5zZXDjVgIaFl+mTgGtoPqnFYNjPdqv+E2A9cnfd1DFDNYTvCPb7TCMMj2w6kcV+m7ps+nfi5JdQ9X8MA1Qy7Ai8DvkFoeW47dPq63Ax8nDDiattK34y65mwivnOHcvbX/sCxk8vhwKJ2d2devwZ+CPwbcAVwLXAHsBR4PPAk4BnA04ADW9rH+ewJvHJyuR/4LqHS8W3g3hb3S9VFZ1zML+w5te2mcjgMeC9hoo22a2PzLb8FvgScSAjIGLsBfwqcyXj0Rd0AfB94LWEcv7rrK8R9twboGFsMHAl8BLiJ9oNiruUewi2ENwCHUu+QyidMbvc84IEOlHWuZQthboCTiP/hUH5ZA/TrzZVDs9iO6fHmt9F+IMy1DHZMX5LjwxhiEaEmfhLjMbx0FXAqoRHKcfrti7oHSuSLv9ZcOTRgF+AEwq9jl2tYU/0lT6I79yl3Jox7P4Pu9zpYjS36bTNAe2JfxmOSjtsII3aOB3bI8UHUaKrf60mEwQJNTbGXstxO+FyPwWGlTcoaoF9trhxFOoTpk7urI4EGO5KP+/RwjyQEf9fH+N/F9I+Uw0rzMkDHyGLg2YTLttW0f6LOtjxIuPp4KeF2Qh8tBo4A/pYww33bn/lsy33AFzFMc8kaoGc3V47eWgYcB3yWULNo+4ScbbkN+CTwfEJfzNLsQ+h29F3Cg+za/j6GLQ8RejacgDPv18UA7aCpkUDnEg76tk+82ZZrCS3CT8NGjEE7AC8EPkPo3N/29zRsmepr+ipg9yyfQhmyBuhXmivH2JtqOT+P7jYCDd7PPDjLp9A/gxOwXEb73+F83+sBOT6EHssaoF9urhxjaU/gdcA/EZ7F0/aJNGx5iBDq/x14VJ6PoSiPA94EXAhspP3vd9hyOfAOnD2qiqwB+qXmyjE2HsN0d6OunkB3Ea4eTqD7XY3G2XK6P3P/KpyKby4GaAP2Bd4MXEJ3uxvdRHi077Po/kQifbQNYZjt6cCvaP94GLb8FHg7oRatwADN5NGEPpo/of0Df7blF8DfEJ7HPs79M/tmAd2f6OVywvH92EyfwbjIGqBfbK4cnbCE0OXoW3T3nuaVwLsJE3RoPOxPuIL5Ed08ri4lTM7S1z6/c8kaoP/YXDlatQ3hfuENtH8wD1um7mMdlKn8ak6X5zlYT2hwPJ4w0KAEX8UAHclBhIBq++AdXDYBFwGvJzRaqZ+WE54CehbdG2RxMWX02shaA/1Cc+VoxZPpTuvpeuA7wCsIY7ZVlsWEaQD/nu5MW3gN/Q9RAzTRwbQ/yuQhwpyrLwEekbe4GiMLgWcS5kxou0X/CmD7vMVtVdZL+M83V45G7Ud4IFgbB+R9hFsjL8TJITS/BcBTCJOeXE87x+w59HeorwEaaSfg/9HsAXgn8A/A8/DpjRrNkwjdo66m2WP4LU0UrgVZA/RzzZWjMZ+imQPuZuCjhM7VpbRoqlkHA++kmb6m6wltBn2TNUDPaq4cjXgcefvh3UK4b+XsRmraocBfA9eR7/j+Gc0966opWQP0s82VoxHvof6D6m6mH8VgTVNdcAih33COfs2nNFeMRhigEa6gnoPoPkJoHo3Pr1F3LSTMuv9xwn34Oo79DYT7sH1hgFa0PaNdvq8nPObiOMqcsV3jbRvCVdI3Gf021k8b3vecsgboZxorRn6Hk3aw/IIwTnjX5ndZymJPQkv+/aSHaF8mr8kaoJ9urhzZvZT4g+QcnBpO/bUH6Q837EsjaVSA9qXQKfZPWOfThMclSH10K/D+xHX7UgONEhugE1n2oh17JaxzVe17IXXLD9regZZF/RCUXANNuYd5W+17IXXLdYQG0lh9yZKoSmLJNdDdIl9/L2GyD6nPJgiX8rH6cgmftQbalw8J4mfbTjmopHF0e8I6fcqGyvpS7U4RO/PR3Vn2QuqetQnrGKCFiZ3TcF2WvZC6J+VYN0ALs13k6w1QlcIArajUAF1KfIf4lJZJaRwZoBWV2oi0LGEda6AqRckBaj/QClIenWENVKWwEakia6DVGaAqhR3pK+pLoWMZoNLsUuZ76EvlKkqpAZpyCe8kIipFn0YcxnIkUgUpT8Is+aBSWbYkrNOXypiX8BWkPKso5aCSNF5sha8gZVJka6AqRcqx3per0ygGaHUGqEphgFZU6j1QL+Gl2RmgFZX63PKu1ryPAZ6f+T3OB86LeH0T+5SiL+WIFVvuFCU3IkUpNUC7WgM9DDgx83vcStwJ2MQ+pehLOWLFljuFNdCKvISvznugKoUBWlGR1W7SGpG8B6pSlBygdmOqwFZ4aXYlB2iUUi/hUwJUKkVKgPalMuZIpAoMUKlefalcRSk1QEvtfSBpbk4mUoE1UKlefcmGKKXWQEstt5RLkedUkYWm3HJLqpFBIqkORV7CxzamFPkhNehsYFXm97g68vVN7FOKvpQjVmy5m1JkZazU1uiu/hCsonsneRf3KUVfytFVXT2nsiryV0NS7QzQCor8kCTNq8hsKLUGWuSXLWXUl3PKyUQkNa4vARrFS3hJdSgyG0qtgRb5ZUsZFXlOlRqgkuplgFZQ5IckaV5FZkOpNdAiv2wpoyLPqVIDVFK9DNAKivyQJM2ryMpYkYWWVLsiK1elBmiRX7aUUZHnlJfwkupQZDaUWgOVVK++BGhUOZxQubrjgYPb3gmpAYckrNOXyljUc+GdULm6gzFApb5zNiZJjSvy6rTUAC3yy5YyKvKc8h5odWdPLlLfHT+5xOhLZcx7oJlcjQGqMqQ0IvWF90ArKLkmLeVQ5DllR3pJdSiyMlZkoSXVrsjKVakBWuSXLWVU5DnlJbykOhSZDaXWQCXVywAtSJFftpRRX84puzFJalxfAjSK90Al1aHIbCi1Blrkly1lVOQ5VWqASqqXAVpBkR+SpHkVmQ2l1kCL/LKljIo8p0oNUEn1KjJLvISXVIcis8EJlbslZSJbVZMyIXYXv4+uTuxdZDY4oXK3HEL3Tti+SJkQu4vfR1cn9i4yQIu8b0GhX7aUUZHnlPdAJSmRASpJibyEl6RpWWdjMngkDVNkNpRaA5VUr6jnqXeYNVBJSmSAVtCXX0upK/qSDc5IL0lNKLUGKknDRGVcqWPhu3oJfzawqu2d6KmrE9bp4veRUo4m9CUbojgWvltW0b0TtmR+H9V1tVISy0YkSWpCqQHal19LSfWyFV5S4/pSuYpSag1UkobxHmgFXsJLGpmX8JI0zRqoJCUyQCvwEl7SyLyEl1SHvlSurIFKUhNKDVAv4SUNY0d6SWpCqTVQSRrGe6AVeAkvaWRewkvSNCdUriClBvrfgMPr3hGpg/ZLWKcv2RCl1ABNsR9pB5ak8WErvCQ1odRGJEkaxnugFaTcA/0ccFbdOyJ10AmEe/4x+pINUXyoXHU3AD9oeyekBjw9YZ2+dA20H6ikxvUlGwzQCvryaympRbbCS9I0a6CS1IRSA9RLeEnD2JFekppQag1UkobxHmgFXsJL9epLNkTxEl6SplkDlaREBmgFW9reAaln+pINUbf3vISXVIe+tCtEZWKpNdDNbe+ApPFXaoB6CS9pGDvSV2ANVKpXXypXUUqdULmrAZoykW1uKRNJx5ajiffoCyf27pBSA7SrN7z3A45qeydm+HHCOrHlaOI9+iLls1J1XsJX0NUaqKR22Q+0AhuRJI2s1AC1BirVqy/ZEKXUALUGKtWrL+eU90ArsAYq1asvARrFGqikOvTlnLIRqYK+fNlSDinneV/OKS/hK0j5svvy4yHNJyUXDNC6N95hKfdAS/2xUXlKroFGKTVArYFKsys5QKPKHjuUsy+6WgM9C7i4gfeJcUPCOrHlaOI9+iLls4qVEqBdHR6dValj4btaA72BZk6Q3JooR18+qy5KqSz0pWug90Ar6GqASl1gDbSiUhtGUgK01M9K5fEeaEWl1kBTLjf6UnZpPiUHaJRSA9RLeGl2JQeoHekr6GorvNQFJXekj1JqDXRjwjqldvlSeUqugUYpNUDXJ6yzpPa9kLpp24R1+hKgWZ8L3xcpAZpyUEnjqOQAjWINtDoDVKVYmrDOptr3YgwYoNUZoCpFSoCmnFNdZCt8BQaoNDsDtCJroNUZoCpFyrHelwCNUmqAriF+7G7Kr7I0jkqugUYpNUA3Aw9GrvOIHDsiddCOCev0JUC9B1rRfZGv3y3LXkjds3vCOutq34t2eA+0otgA3QVYlGNHpA7ZFtg5Yb2U0X1jr+Qa6D2Rr19ECFGpzw4kvqJwC3akr6RPNdBfJ6yzb907IXXMkQnrXFX7XrQn6yV8n2qsqxPWeW7dOyF1yG7A/0hY75K6d2ScTEQsd7a0jzmcQFzZJwjD1b4DvAjYrvldlrLZH/gl8efEBPD0FvY3l+uJK3vUi+9urhzZ7Um4b5NywEwA9wKfBI7Cqe40npYCRwNnAA+Qdh78hn41rmYN0NiGl647j/QAHVzuIITpc4BtGi2BFGcF8BLgbNJDc3B5X7O7n90NZAzQ2K4/XfdEQqf6OkJ0sJZ+FnAMziGqbtgbOJFQYVhPfcf6OuDRDZajCTeSMUAfaK4cjTmbegN0Zph+Gng+DgVVs54EnAxcQb7j+7SmCtOgrAG6prlyNGZfwq2JXAfZ4I/PV4A/BXZqomAqymJCF6SPEHqY5D6eb6Wfw5tXkzFA1zZWjGa9kPwH3OCyntCafyJpw+YkgB2A44HPE652mjp+txBuUfXRajIGaF/Guw7zUZoN0allM3Ax8BZCVxJpLnsQfni/TTgf2zhm/2f2UrbnJjIG6IbmytG4RYT7lW0ckIPLKuBUQt+6Po38Urr9gJWEH9q6Gz1jlzPp14CamX5FxgDt+3NPFgKfoP0QnVpuBD4IPJN+9bXT3BYChwN/S3rn9hzLh+h3eELmAN3cXDlaswB4I+1dHs223A58Cngetuj30XaE+4qfAn5L+8fb4PJL4MX5it4pWQN0orlytO4A4BzCNF1tH8Azl/uBLxOGlNqiP752AV4KfJ3ppyR0ZVkLfAn4Q/pf6xz0azIHaEkfJoQJFl5PmDCh7YN62DLYov+oTJ+B6rMf8CbgIsItsbaPn8FlM3Ah4Vhakan8XZc9QEse9/044G3AZbR/sM92AlwMvBlb9LtiAfC7wHuBn9H+MTJz2UKoHKwkzA9Rut+QOUAdnhg8ltD16BJGm5Qk53Il8B7gMGzRb9ISwrwIHyW+RtPU8lPgrwjHsaZlD1Af77u1vQi/4D+i/W4msy2/Ak4nzB7lhCf1W0FoaPkyYc6Itr/vYcu1wCnAEzJ9Bn1wM5kD1Hkw57YH8GrgAkK/2bZPmmHL3YTRK8cTRrMozb6EH84f0M3GxgnCbPGnECbO0fxuIXOALmusKONvBSGkziK0nLd9Mg1bNhLum66kfzPr5HAIYZKOy+jurZtVk/t4cJZPoN9uJXOAbt9YUfplKeHy+TTiv6Q2Tr7DsnwK42dbpr+3rt7PHPzeDsryKZQje4Du2FhR+msRYajmqXRrpMnM5XpCcJQ26/7OTF85dPV+5mBoPj7Lp1Cm28gcoH2cwqptTya0lnexm8vUcithmOvR9HMk1P6EB6pdRPf6Z04tm4AfAm8AHpPlU1D2AC21g21T9iXcj7yA7jZMrCHMbn4iYaDBuBq8n9n2Zzrbso5wLKwkNFAqr9hhtNFf6C6NFUW7Ep4eeh7dG5s/tWwiNEKdRPcvJZcTxpufQXx/vyaXqR+oE3CobtOyB+gjGyuKBi0jnPxnEZ4I2vZJPtvSten4pqaCu4B6nwdU93In08/Ssq91e24nc4A63rp92wJ/RKhJxd6zaXK5gTAF2hE0Nx3fjsCxwMdo5tEWoyw3Ej4fpyvsjuwB6iMoumUhocvRycA1tB8Ksy13EZ4JdQL1dt5fNFn+k+h+LXOC6Z4NXamh6+HuIHOA2tm6254IvBP4Cd3t6P0QcC7wcuJvCS0j1NjeDpxPdwcoTC2bgH8G3kqYjEbdFhWgCyb/EGMvwg14dd9jCJezxxIuo7s4Bn4zYUKWcwldiK4iNJhtS2iwPGhyOZgwq9GT6WY5Bj1EqA1/k9AYdEe7u6MIdxAabyuL/UXdu8adVXOmWqC73gg1rstUI5DzC4y3u4j73qMPlH0aK4pyWUy4B3ca3e7O0/Wl1JFafZY9QJ0/sH/GoUN5F5bNk5/RyThXQF/dTeYAdabzfnss3R8J1eSylumRQM7Y3n/ZA7Tro01Un10I3Y6+AjxA+2HW1JKry5W67x4yB+iBjRVFXbIcOA74LPH3icZh+QXwAezUXrrsAep8gxqcju8XtB9+KcvURNIn4cTDmhbbQyX6wPNg00yHEILoYrrbeX+CMOx1qquR89pqmNj5X6MPwkMbK4rG0d6Eae7Oo/1hlZt4eKu5Qyc1n+wB+h8aK4rG3QrgJcDZNNcI9Vvgc8CLCDPLSzGyB+h/bKwo6pPBZ0LFPjp2ruV2Qm33JKxlanRRcyukjIV/MnBFXXurIi0EngL8CfB7hBm+9mDux8VsIDzU7UbgSuBywuX5dcQfw9Js7iei61rK8LOFCetIg7YQJhC5ZMi/LWA6SB9BmJhjA+HSaksje6eSRV3BGKDqmglCXzwG/is1JSpAU8LQAJUk0sLQWWck9VX2GmjXJ7OVpEZYA5WkadZAJakJBqgkTbMGKkmJDFBJaoIBKknTstdAbYWXJKyBStIg74FKUhMMUElKlBKg29W+F5LUDdkv4ZclrCNJ48AAlaQmpATo8tr3QpK6wRqoJCXKHqDWQCUJa6CSNCh7DXSnhHUkaRxEPSI7JUD3SFhHkrpuCQ3UQPeIfRNJGgMvSVlpImHZuYadlaSuWABcRWQWpj7j/XGj7q0kdcjzgENiV0oN0KMS15OkLvrL1BVTLuFXAYtG219J6oT/RFoOTjDCin/eQMEkKbcf0EKA/gantpM03v6Q9AwcKUAngDfnL58kZbEtCS3v1Biga4DH5y6lJGXwPkbLv+gAXTPk735Iemu+JLXh94GNbJ1nDwz5u9oC9GPAZUP+fmXeskpSbR4J3MTWOfZvwFuG/H1tAfpBYH/gvhl/vwE4ImOBJakOi4DvsXW23QDsDrxmyL/VFqAfmtyJFw35t9uBx2YqtCSNagHwSbbOrjuAAyZf89oh/15rDXTKqUP+/efAipoLLUl1+BuGt+s8deA1rx/ymiwBuhA4d8hrrgB2q7HQkjSqd7B1Vm0EjpnxupVDXpclQAF2AH425HVXA3vWUGhJGsUC4H+xdUZtAV425PVvGvLabAEKsA+weshrVxO6CkhSG5YAZzI8PF81yzpvHvL6rAEKsC9w45DXryfcU5CkJu0B/Jjh4TlXJr11yDrZA3Rqh4f1EZ0g3Cvdp3LRJSnds4Gb2TqHNgAvn2fdk4asV1uA/u953nw58KVZ1l0DvAtYOl/pJSnBDoTBPlvYOn/uAv5zhW28bci6jQXolFcDD82yjdXAGycLK0mjWgy8gjBD3LDMuZLpfp7zGdZa33iAQphk5IdzbOte4P0kTKMvSYTZlF4GXMvwjNlEmDBkScQ23zXLthoPUAhdCF4MXD/Pdq8G3kNotd8l8j0klWVnwqX2LcyeKVcSZpqP9e45trnVsniUUlQwAfwj8FVCt4F3Egbyz/QEQvK/a/L/HyQMDb0XWEu4HXDv5H/XD6x3z4ztPED41ZmyFlg38P+bJl8zaOY25rJucpt12AzcX9O2SvcIxu9R28uJqxl1wRLCfrfpGYSGoNn242ZCjnyWcC80VtTMcrkDdMoG4CPAZwj9rN5AOOhns/3kIklV3EG4Qj6dUNFKFRWgsfN4TkS+fqb7CVXkvQgNSbeOuD1JZbsDOIXwqPX3M1p4QuYArcuDwGmE2ZteSWg9k6Sqbgf+ijCI52Tqux3WyUv42awHPkG4X/EyQgdYSZrLj4BP8fD2jbqMVYBOWQ98fHKRpLZ0+h6oJHXZWNwDlaQuMkAlKZEBKkmJDFBJSmSASlKiqCHBtsJL0jRroJKUyACVpEQGqCQlMkAlKZEBKkmJHAsvSYmsgUpSIgNUkhIZoJKUyACVpEQGqCQlyhqg4/bsbUmKYYBKUiIv4SUpkTVQSUpkgEpSIgNUkhJFZeLiyI13IUAXAI8F9gceAWxDKPR6YA1wE3AtsLmtHZQ0tqLbhSYilg/Xtpvx9gFOB+4dsl8zl/uBz0+uI0lVXUhcJka9+LTmyvEwf0y14Jy53As8u4X9lTSeLiIiY8bhHugLgHOAnRLW3Qn4NnB8rXskqa961Q/0GYRL8VH2c1vgC8BzatkjSX3Wm1b4nYCzgaU1bGsbQojuXsO2JPVXbwL0FOBRNW5vV+D9NW5PUv9EZVxXA3Qf4LUZtvtnhO5PkjRML2qgL2b+PqpXAa8BDptcXgusmmedRcCfj7pzknoraz/Qv69tN+d25Rz78AAhLIcVdCHweuDBOda/PPO+Sxpfl5OxH+gZDRRgCbBplvf/DfA7FbbxpMnXDtvGJkLLvCTNdAUZ+4HGDv1MsS/hUnum24BnAT+tsI0rJl/72yH/tmjyPSRppqz3QJsI0GEd5jcCxwDXR2znesIIpo1D/m3HhP2S1H9jH6D3Dvm79wGXJWzrUuDUIX+/IWFbkvovayPSl2vbzdntBGwZeM97gB1G2N6OPHwc/RZCn1BJmukaxvwe6H2Ee5hTvktoeU91/+Q2plwH3DnC9iT1V9ZL+G0iX5/qOwN//lUN2xvcxiU1bE9SP439PVCATxImSIZ6Rg49fuDPX61he5L6Kes90O/XtpvzO23yPe9jtAlFljHdsf5qhneRkiSAG8nYkf7C5srBLsANk+/7yhG28zqmG4+eW8N+Seqvm8gYoD9qrhwAHEpoBPoVaX03dwJuJuz7B2rcL0n99GsyBui/NFeOf/cHhEvwlGGkZxL2+0y6P3m0pPZNVbiyBOilzZXjYZ5C6Hp0dMQ6Lyc8pXNllj2S1Ee3kjFAf95cObZyAGFW+So1yScDn8CnckqK81syBmjMWPQ2rWh7BySNpTuIyMTY+4Lb1befWd3T9g5IGktZO9Ivi3y9JI0TA1SSEmUfC9/UcE5JalrWAAVroZL6ywCVpETZA3SUyY0lqcuyB6izuUvqKwNUkhJlD9B9E9aRpK7bhgYC9LCEdSSp696UslLMWPgJwgPebEiS1Cd7M/3kimyTiUwtb2ymTJLUiPOIz8EHIdQoY1e8G3hkI8WSpLyOI60i+QGA9yau/LkmSiZJGe37RcYNAAACzElEQVRI/GM8JoCHgN0hPDfozoQNTAAvzV8+ScrmLNKy78ODG3lL4kYeBJ6UsXCSlMt/JS331gKPHtzQUsKTL1M2djvw+GxFlKT6/Q5h4vWUzPu7YRv8i8SNTQC/BPaqvYiSVL+DiXx0x8CyBnjMsI0uBP41caMTwGqsiUrqtmcBt5Gec6fMtfHfBzaPsPHbgGfWVFBJqssi4G3AJtLz7WZg+/ne6IwR3mAC2EAYEpUyTFSS6vYM4KeMlmsTwDFV3mw5cHUNb/Zj4NARCi1JozgA+BKwhdHz7OMxb/xEQkfRUd90M/B14I+AAwnhLEk57Q18CtjI6Bk2AaxiluxaMMdOvAw4c+SibG0tsI7Qh3QjcD8haAef5T71b4NmPut9A6FFbFCV9TZOvi7GesIPSoypcsZ4aPK9mnQv4SDpmgnCvklVPQp4O/BKYNuatnk78FTgxmH/OFeAArwbOLmmHZHUDWsIFZC+WQ4sqXF764AjgX+Z7QXzBSjA6cDr6tojSRoDG4DjgW/O9aJFFTb0fULHUYdsSirBesIMTefP98IqATpBmCtve+Bpo+2XJHXafYTw/G6VF1cJ0CnfJ9w7ORL7eErqnxuAo4D/W3WFKvdAZzoC+CKTc+FJUg98D3gJYWrPylJqkhcR7odekLCuJHXJWmAloa96VHhC3CX8oAcJM9JfBzwdO8hLGj8XAP8F+FbqBka9l/kF4CDgI4Qkl6SuuxY4FngOcM0oG0q5Bzqb3YG3EkYBWCOV1DUXAR8idE/aUscG6wzQKTsBLwROIMyCkuM9JGkumwlzFP8CuBD4BnB93W+SO9x2I/Qf3ZFwv3UhIWAhjFVdNvnnHYDFk39eCmw3xzbn+/ftJl8zm2VUHyc7uF91m68co1hM2PdcVmTcds7PXMHM+SFyrxcz38LgHBez/XlqbooNhLk07p98j6k/30MIy+zDVf8/pbd/UgBL4LEAAAAASUVORK5CYII=;fontStyle=2;fontFamily=Georgia;fontSize=16;" parent="1" vertex="1">
          <mxGeometry x="595" y="160" width="100" height="129" as="geometry" />
        </mxCell>
        <mxCell id="7Zm9qxxtv7ryHVOUGnMJ-3" style="edgeStyle=orthogonalEdgeStyle;rounded=0;orthogonalLoop=1;jettySize=auto;html=1;" edge="1" parent="1" source="ozY22NEEOmjd52IIhUNE-116" target="ozY22NEEOmjd52IIhUNE-114">
          <mxGeometry relative="1" as="geometry" />
        </mxCell>
        <mxCell id="ozY22NEEOmjd52IIhUNE-116" value="Heavy Forwarder" style="shape=image;verticalLabelPosition=bottom;verticalAlign=top;imageAspect=0;image=data:image/png,iVBORw0KGgoAAAANSUhEUgAAAVEAAAG2CAYAAADGN7V4AAAACXBIWXMAAA7DAAAOwwHHb6hkAAAAGXRFWHRTb2Z0d2FyZQB3d3cuaW5rc2NhcGUub3Jnm+48GgAAIABJREFUeJzt3XeYJVW57/Fvd09PYiIMEpUcBRUFRTwgURQkKmDEeNQrHrMier33+JgueriKHjkH4zkqD4gJDEgSMIECopJHkjAMMDDMDAyTw75/vL3vND27u/da76pVYf8+z1MPw0xX7beqZ369qmqFPvLbAdgC2BSYDWwCzAL6gIlD/w8wHZgw9OsBYMYox5sCTB7lz2YC/R1+f8LQ8ccyY+hzc8n9eamsBZaWXUSAZcDqTJ/1JLAu02ctjtxvJbAiwdesApYn+Jql2N8pgKeANUO/Hv59a/+6/XdvydDvrRrn2IXoK/j404ADgYOB/YB9sMAUEUltDRa8i4GFwP1D233ANcDtRXxoESG6PXACcDzwYmCwgM8QEQl1H/A14OskvHtKFaKTgFcBpwEHJDqmiEgRFgNfBM4iwaOdFCF6DHA29qxTRKQu7gLeDVzpOYgnRLcGvgO8zFOAiEiJWsCXgI+x4SVWkNgQPRT4PrBV5P4iIlVyI3AKcG/ojp26/4zng8AVKEBFpDn2Bf6EvQwPEhKifcCZ2MPYmPAVEamyOcDVwMkhO3Xbubsfe/55WmBRIiJ1MgE4EZgP/KWbHboJ0T6sb9Xb4+sSEamNfqzX0UPATeN9cTcheibwfmdRIiJ10gccBdwN3DLeF47lzdhtvIhIL1oDvBy4arQvGCtED8Q6oU5MVMwTWOfWR4BHsTGuK9gwucHwSQ6WYP23Oh1jfYffH22ih+GTGQxX9CQULewcekk/NuFL1ZVd51iT6eTQzeQ7RRrE5tTIYR/gI2yYyCjWImB/LL+6Ngd7sNpKsN0IvJbRZ1oSESlKO/y8OXYngeH/kwQfej/wGoqfKUpEZCzTgG/gz7RvdvuBpzo/aD1wDuXeMoiIjHQC9kjQk28njvchM7FnlrEf8ATWNUBEpIr2xHd7/wjjPNM+y3HwucDuiU5URKQoWwC3EZ91Z4524C2xN+QxB70cW+pDRKQOtsBmuo/Ju5WMMvXnZyIP+HX8XQhERHLbHlhAXO59Y+TBBrE1SUIP9CM0GYmI1NdLiLsDXw1sN/xAR0QcZCmaDk9E6u904lqj5ww/yJciDvAfhZ6WiEgeA8AfiXs2um37IJdHHODwos9MRCSTfbCh46E5eHb7AHMDd1yBlkIWkWb5LuEhuhxsWOaKwB1vzHNOIiLZbINNjBQUpP1Y/9DQyUHGnF9PRKSG5gP/N3SnfuI6yd8esY+ISNWdFbpDP3Fz+82L2EdEpOqWh+4QG6IPRewjItI4/cAmEfspREVEiA/Rh1MXIiJSRzG38yuxNYpERHpeTEv0iSIKERGpo5iW6JNFFCIiUkf9wKTAfdQSFREZ0k/4hMpqiYqIDIkJUbVERUSG9BM+G1Nwj34RkaaKaYmuLqIQEZE6UoiKiDgoREVEHGKeiSpERUSGqCUqIuKgEBURcYgJ0TVFFCIiUkcxIbqqiEJEROpIL5ZERBz0TFRExEEhKiLi0D+0hVCIiogM6Qf6AvdRiIqIDFGIiog4KERFRBwUoiIiDqEvlUAhKiLy/8W8nV9XRCEiInUUczvfKqIQEZE6UoiKiDjEhOj6IgoREakjtURFRBwUoiIiDrqdFxFxUEtURMRBISoi4qDbeRERB7VERUQcFKIiIg66nRcRcVBLVETEQSEqIuKg23kREQe1REVEHELXnAeFqDTPDGCgi69bXHQhUk+3Y8HY7bZzOWWKuB0AfBe4EXgQWEHY3/3T85csmQ0S9neiBXBn4A475jobkcTmAHMJ/0fS3tYDb8teteQUFaKhf6l2yHU2IgXYEXiE+CBdC5yYvWrJJSpE/x64w/aZTkakKPsCS4kP0uXAgdmrlhyiQvSuwB2eletsRAp0FLCG+CBdAjw3e9VStKgQvTtwh2fmOhuRgr2d+BBtAfPRnVnTRIXoPYE7bJvrbEQy+BS+IL0L2CJ71VKUqBC9N3CHrXOdjUgGfcC38AXp9cC03IVLIaJC9L7AHbbKdTYimQwAF+EL0l8Dk3IXLskpREUiTQNuwBek52FDqaW+okL0/sAdFKLSVHMI7/I3cvta9qolpagQfSBwB4WoNNlO+Drjt4CPZa9aUokK0XmBO+jFkjTdfsBTxIeohofWV1SIPhi4g0JUesHR+Drja3hoPUWF6PzAHRSi0iv+Gd9tvYaH1k9UiD4UuMM2uc5GpAI+jS9IlwDPy161xMoSohqxJL2kD/gOviB9ENgud+ESJSpEQ99EKkSl1wwAP8EXpBoeWg9RIbogcAeFqPSiKcDv8QXpDWh4aNVFheijgTsoRKVXbUb4cjojNw0PrbaoEH0scAdNhSe9bBvCR/mN3M5Hw0OrKipEFwbuoBCVXrcn8Di+INXw0GqKCtHQvwya2V4EXoRvVFMLOCN71TKeqBBdFLiDQlTEvBLfqKb12Oz6Uh3BIdqHhejsgA/ZHnsm1EQzsO4sZXkSWBe4T+qa12AtrLJNBDZJfMynsPNL6a3AN7H+pDHWAq8GLk5WkXgMAqtDdphA/De/aKcCewEzh7Z+YNaw/w5gAdLJNOxidDIdO+8q2g2bii3EtcCzE9awEjgBuDThMUNtir3FTj3S5+XAZYmP+W1gS+CzkftPwF40HQn8LlVRktcSwpqv22eq6x2BdTVh2zXiOt1aQB0rsMApwyz8kyOPth1ZYN1fcda2GNi7wPqkO1HPRJ8I3GH7TCcD9gaz7GDLuVUlRFuUE6QzgOsS1D7aVmSI9gMXOOvT6qHliwrRJwN32CHX2WC37D8MrK/OW5VCtIUF6SsiaooxDbudLfL6FhmiYM9xr3DWOBfYvOA6ZXRRIRraTWP7TCfTNgj8MrDGum5VC9EWsAo4JqKuEFOBqwo+jxbFhyjYM/cbnXXeMHQcyS8qRJcF7pCzJdo2BbgmsM46blUM0RbFBukk4JIM59AiT4iCtSTvdNaq4aHliArR5YE7lBGiYM/LinrhUJWtqiHaopggnQj8PFP9LfKFKMCOwMPOejU8NL8sIbpjrrPpYA7wt1HqasJW5RBtkfYZ6UTgZxlrb5E3RAH2IfzF7cjtK5lr7nXBIdpPeD/RMvuVLgQOx4JD8puMzauZIkjXYt3rmuwvWJ/bVY5j/AvwiTTlSFFWEpa8ZbZE2zYHbqH8lmPqreot0faW6tZ+APh+xrpzt0TbjsN+aMTWreGh+UTdzoeG6E65zmYcz6CcAClyq0uItkgbpOdnqrmsEAV41xh1dbOtBV6VvereExWiKwJ32DnX2XRhS/xvQau01SlEW6R7RjoIXJSh3jJDFPyL3q0ADspedW/J0hKtUoiCrVvjnW28KlvdQrRFuhbpRPzrGI23lR2iAF/Fdw5PYC+spBhZWqK75DobyWIK/lE2KVuknYJ0HTbg4gPAIdiEK5tTz36UA/hb3Q9RXlfDplOISpSqBel5w477FHBEguNWyRTgt/iu91zsvYCkleV2XiHaTFUK0j7sRcxlNPcZ4CzgZnzXW8ND01OIikuKIM0x1r4ptgbuw3e9r6KejzWqKkuIxrz8kPpQkOa1M7AA3/X+KeWuyNAkClFJYhLwCxSkuewHLMV3vc/JXnUzKUQlGQVpXodh18tzvf9n9qqbJ0uI7pbrbKR0CtK8Xod15/Jc7/dkr7pZFKKSnII0r/fgu9bt1UMlTlSIht5C7J7rbKQyFKR5fRH/tT48e9XNoBCVwihI8+kDvoPvWmt4aByFqBRKQZrPIP5lUxagft2hsoToHrnORipJQZrPVOAP+K713dgkPdIdhahkoSDNZzPgDnzX+m/YMFMZX5a383vmOhuptCnA5fj+ca8EjspdeA1tB8zHd62vxKYblLFlCdFn5zobqTwFaT57A4vxXWutHjq+LLfzaonKcKlu7Y/NXXgN7Q8sw3etv5a96nrJEqJqicpICtJ8jgHW4LvWp2evuj4UolIaBWk+/4zvOq8H3pK96nrIEqJ75TobqR0FaT7/C991Xk2aCbSbRiEqpVOQ5nM2vuu8DDgge9XVphCVSlCQ5tEPXIjvOi9EoxCHyxKie+c6G8lqAnAGNvnFjATHU/enPCYBV+O7zvcBW+UuvKKyhOhzcp2NZLMH8Hs2fI/vJc33WUGax0zgr/iu81+HjtPrFKLS0SAwe2jbGngB8ErgQ9iKmp3+DjwO7JvgsxWkeWyF/fDzXGctepcpRJ+b4UQ2A/4ScTJ132KWXrm1wHqWkObFQxWD9J+AM4FvAz/BAuTGoe124J5h2wJg0bDNO/v88O2khOe0C/Cos54L6e1RTY0JUbAg9d6i1G2rWoi2gCeBl0TUNVLVgvQlWDefsr/nKUMU0ix699XENdVJo0IUYA5wc2B9dd6qGKItmhuk73LWkmJLHaIAL8O/6N3HC6irDqJCNPSncc4QBdic3gnSqoZoC3gKODiivpGq1v3pU85avFsRIQrwGnyPHdYDbyuotirL0hJ9Xq6zGeYZwG2BddZxq3KItmhui9Tbad2zFRWiAB9w1rYGOLrA+qooS0u0jBAFC9KcgVHGVvUQXYy92U+hSi3SPuCbzlpityJDFOzlmae+5aT5wVkXWUK0zMWvtsQ/y3eVtyqH6BLspUVKVWqRTgB+7KwlZis6RPuA/3bW2EujmhofomDrxTT11r6qIboMOCiitm5UqUU6CFzsrCV0KzpEAQaAnzrrnAc8M0OtZeuJEAUL0tvJ+5c9x1bFEF0GHBJRV4gqBelE4GfOWkK2HCEK1uofPiotZrsVG7DRZFlC9Pm5zmYc2wJ3ke8ve46taiG6inzTpVUtSH/urKXbLVeIgvW99jY+fgNMzlhzbj0VomBBejf5w66orUohWsZqnFULUm8t3Ww5QxTs38z9zpovxh4RNFFUiIYuNVClEAV7TnMP5QVfyq0qIboWODmilhSqFKRTgCuctYy35Q5RsNUpHo+st739Z/aq88jSEk3VxUVkNFV6a99UB2LdlzzX+JPZqy5elpaoQlRyqFKLtKlSLHp3Wvaqi5UlRFNMjybSDQVp8U7FhnjGXt+1wInZqy6OQlQaR0FavE/iu77LsakFm0AhKo2kIC3el/Fd3yU0Y8L2LCGaeuifSDcUpMVKsejdg8CzcheemEJUGk1BWqyJ+HtF3AZsmrvwhLKE6AtznY1IBwrSYs0AbsJ3ff8ITM1deCIKUekJCtJibQ78Hd/1/Rk2M1bdKESlZyhIi7UT8Ai+6/v17FX7ZQnRF+U6G5FxKEiL9QJsNQPP9f3X3EU7KUSl5yhIi3UINoTWc33/JXvV8bKE6P65zkakSwrSYnkXvVsLvCp71XGiQnRt4A4KUakiBWmx3o3v2q7AJj2pOoWo9DQFabH+D75ru4T8S66HynI7/+JcZyM9ZQDYJcFxpgCX4fvHrmn0OusD/gvftZ2HTQxdVVlaogpRSW0A+B7WUklxp6MWaXEGgUvwXdsqr9WUJUQPyHU20hMGgPPY8PdrKXBwguMqSIszFbgW37W9BvseVY1CVGplkM5rvT9FmhVGFaTFmQPMxXdtz8ceEVSJQlRqYyJjr4W+DDgswedMwr9yp4K0sx3xj2r6bPaqx5blxdJLcp2NNFa3LcRlwOEJPk8vm4qzL/YIxnNt35m96tFlaYkqRMVjEjY5RUh4pVi6WS3S4hyKXZvY67oWOD571Z0pRKXSYlfxXAUcl+DzFaTFeR2+tZqWU42eP1lCtClrqUheU/Gt4b4KOCFBHQrS4pyB77o+Rpq+wh5ZQrQOQ7ekWjbBurR4/oG1gCeAzRLUo2ekxfl3fNd1Lmm+x7GCQ7QPC9GBgA85CPhduppHdRz2U2lT7C/91KH/Tsb+UU7EukfMGmX/fmDmKH82gM3gXTX7AfcE7nMtsHsBtaQ0EfueeazEWqKX+ssB7O/SRcDLHMdYh00VV3XvBi7I9FkD2FpNnmWUr8VeKK5IUlGYQWB16E6hLdGDEhU7no8G1tWEbdeI63RrBeouelsJvCLi2ownRYu0DtubUl2wLk0Gfuus+cdYQyi34JZoGUV264tYZ1zpbauwVs2vCjj2Cuyt8OUFHLuXrcSu61zHMU7EMqDy+qneiIG2FvBm0t2+Sf2sBk7GxmoXZQX2kugXBX5GL1qE3T086jjGB7FHEZVW5ZYo2D+iV5HnGaxUSztAf5bhs1YBr0ZBmtp9wCux7kuxzgaOSFNOMfqxFl/oPjktx1oKf8v8uVKe1cBJwMUZP3MVFtq6tU/rBuCthOdM2wTgh8DOySpKrOot0bYl2FtUzzMWqYc1wCnkaYGOpGekxfgBcJ1j/5nAuYlqSS4mRMt6hvoo1qy/t6TPl+K1A/SiEmtQkKb3UXwTF7WArySqJbmYF0uxzfIU5mFzTSpIm2cdcCo2s1PZ9LIpnZcDn3Me41PkfbQTLHQVvxTzPHo9CwvSsvvfpd56tZ/oWuC1EedetBRDRKuwvSn1henS7tijOE/tF5L37jdLP9EqdIl6AJtr8oGyCxG3tdjkFVXsE7wKe8GlW/twm2Et+dFGDXbjWuzupJWkooLU5cVSJ/dhU3DNK7sQibYWeAPW2qiqldgQZAVp9yZjz7V3chzjHuzZ9MokFRWoziEKdqEPBeaXXYgEWwe8BXtzW3Ur0TPSbvVjiw56Znt7HDgam9Wp8iZE7FOF2/nh7sYmKplcdiEJxExmcQBhE8hURV0m72hrT8U3vexCIizL+FlnYQMXYq3AJuGuVXfG0BdLKda9EZHm+SC+l0jr8M3+lELUfKKhIZpizRsRaZaTCM+Skdt7s1e9sagQDZ3SXyEqIsMdiN2GewK0KjM2ZQnRSk8GICJZ7YG9CPIE6IVU5yW3QlREstkK62roCdDfUq2XwllC1LOcgog0w3Tgz/gC9HZs+Z8qUYiKSOEGsZUGPAH6ELB95rq7kSVEj8x1NiJSOX3At/AF6DLgRbkL71KWLk4vz3U2IlI5/4ovQNdQzKKDqWRpiSpERXrTO/AF6HpslvsqU4iKSCGOxVqRnhD9ePaqw2UJ0So3xUUkvf2x55ieAP2P7FXHUYiKSFLPxpY/9gToRdRnkpwsIXpUrrMRkVJti0187gnQa6hWZ/rxKERFJInNsM7wngC9BZidu3CnLCF6dK6zEZFSTAF+jy9A5wHPzF14AlEhGrqDQlSkuQaAn+AL0IXYInV1lCVEX5nrbEQkqz7gm/gCdDm+NebLphAVkWifwxega7HF5epMISoiUf4HvgCtw2ikbmQJ0WNynY2IZHE81or0hOgZ2asuhkJURIIcjC0J7QnQuoxG6kaWED0219mISKH2BhbjC9A6jUbqhkJURLqyAzYxsidAr6Feo5G6ERyiEyI+pC9JqWObA1wC7Jzhs6pkP+CewH2uJX2fvGXACcCNiY/bjSlYP8WqTtqb2luAizN/5ubApdgaSbFuBo7DHgX0vNCfPsdlqmtb4O6I+uq87RpxnW4tqJYlwAsj6vGYCPw8Qe112k5KcuW6NxX7weupua6jkboR3BKNWaY0R0sU4EHgEMJbZpLGTOBy8gXpIPBD1IWuSIPAj4EXO47xOLbi77wkFTVAlUMU7Bt1GPCPjJ8pG8zEbvv2LfhzJgDnoeftRWqvjeSZVH059kPuziQVNURMiOZ2P/BSbH1ryW82cCXFtUj7ge+Q/7a213wBeKNj/3XA64E/pimnOeoQomBzGh6MgrQsRd3a9wHnAG9IfFx5utOADzv2b2HrK12UppzmCX2ofGI5ZQKwE/5JYqu8VenFUqdtEfCCiBo76QO+lrH2qm5Ft8BfR/iKviO3OqyNlEqjXix1cg9wKDC/xBp62WzgCtIE6URgtwTHkdEdgT0q8dxx/js2MYmMoi6388Pdjb21V5CWYzbwa/y39quwF0lXuyuSTl6AvYmf6DjGxcD705TTXHUMUYC7sCB9qOxCelSqZ6Ttt73XeAuSp9kJ+CUw3XGM3wCvwR4FyBjqdjs/nIK0XDOBy0gXpL91VyRgo5EuAbZwHONWbMSaRiN1oc4hCvB34HBgQdmF9KhZWD9S7zPSZdit/fXuinrbdOz7EfOCsu0fwJHYxCTShT7sDVOIk7GRJVUyhWZMhPAk4bdPM4ifRWca9txrn8j92xZjLzH+7DzOLKxP6mihvBy4ARu3/RDwKLB0WA2w4Roux567dms1Fua5LRv6bK+J2C384Y5jLAT+CZiboJ66GiTi+xG62ufJiYqVatgUuInqdH/aFPjLiGOvAz6D/cCQjfUD5+P7/i0D9s9deAVlWTJZIdo8m1GtIJ2DtTZbWGvylATHbLIv4fu+rUGr+LZlmU9UIdpMs7BbZW+QLsam9PPaHJuKr+4LnxXtdHzfr6asjZRKlpaoWgXNtRkb30qX2SKt0kvMKjqV8H+/I7emrI2USpaWqEK02arWIpXODscedXi+R+dkr7r6soToa3KdjZRGQVpt+2G9Ejzfm6atjZSKQlSSUZBW085Yv2jP9+RqmtElsAhZnom+NtfZSOkUpNWyNTYdpOd7cQv2fZXOsoTo63KdjVRCqpdNjwPPz1x7k8wE/orve3AfFsQyOoWoFEJBWq7J2CQtnmv/GJp6sBsKUSmMbu3LMYANs/Zc82XAAbkLr6ksIfr6XGcjlTMbBWluX8F3rVfjW5yu1yhEpXAK0nw+he8arwfelL3qelOIShYK0uK9E//1/WD2qusvS4hqZUYBBWmRjgPW4ruun89edTMoRCWr2dgkIQrSdA4GVuC7nt9D8w7EyhKib8x1NlILCtJ09saug+c6/hyYkLvwBlGISikUpH47Ag/ju35/BDbJXXjDRIXousAdTs11NlIrc/CPqGlhHfK9y5XUzTOwhRc91+1W7IeZ+GRpiSpEZTRqkYabjv+azQOelbvwhsoSom/KdTZSSwrS7k3EVuf0XKeFwB65C2+wLLfzb850MpLfKcA78M8zOQf4G/4gXUhzb+37gQvwXZ+ngBflLrzhFKISZXOevlrkdcA2zmMqSMem4ZzVlCVE35LrbKQwz8C605wMfB17mTPy+3wvsJPzc1IG6fOctVTJJ/Bdj/Wov3ZRgkO0yv3JXgpsh03DNhGbT7Efe+bWx9Mnlu0f+vNOBoFpo/zZZGBKimITORyb8zHEpcAu43zNDDbcok+nu36EOwC/Aw4D7gisqW3h0P6/Bp4TeQywvwO/x2Z093gzdk5lehvwaecxPgx8P0EtkkhoSzTX8qqfDayrCduuEdfp1oJrmof9MPNI1SL1bkc6z8PrWPzDOc/MXnVvyXI7nytE+7HRF2X/w8u5VTFEW1gfxi0iahsu1Vt7z1ZmiO6PvQjy1K/hnMULDtH+iA/J9U1cj00AfX2mz5PR7Qz8At9omMXAK4Cbk1RUL3sBl+C7fr/A3ke0klQkyfRT7W/KUuwf3i1lFyLsC3zZeYzHsOe+vRSk22HPrT2jia7Fup+tTVKRJFXllmjbIuw27O7Mnysbexv+hc56KUjnYAHq6S52G3AMsDxJRZJcTIiW4WHgCODBsgvpcX/Gvhde7SBt8h3GJtgt+O6OYzyA9QVdlKQiKUQdWqJt/8D+4T1S0uf3ukVY38RUj38ew7o/NTFIB4Ef4RtN9DgWoGo4VFw/9XrbNxebtDZFa0i6twKbbX1u4uO2g7RJt/Z92AAGz2ii5dj1ju2fKxnFvFgqO3TnYrf2j5ZcR69YB7wW6+xehKbd2n8R39DoNcCrgT8kqUayCO0n+o5yytzI7vgnsa3aVrV+oiuwf9A5bI61SIu8vkX3E/2os771aG6KskV1tg8dQfHOXGfThedgLZmywy/VVqUQfRjrIJ5T0UFaZIieSvi0kiO3DxVYn3Sn50IUbGKKhZQfgCm2MkN0PTAfG+f+IWy8fRmKDNKiQvQobFYlT21fKKg2CZNlApKyn4mO9FdgN0afgKRO5kXs83JsgpZQq4FlQ79eBzwZcYwiPAa8GP8w006KeCG5P3Ah9o8v1neB09OUI2UIbYm+q5wyRSpnF2xmKU8L9Bdodc4qyTJ2XkRsFNIV2Nyssa5Hwzlrr06d7UWqYibwS3xTBN6OzQuxbLwvlGpTS1QkzBTsFvy5jmPMx15GaThnA6glKtK9AWxG+X9yHONxbLDI/UkqktKpJSrSnT7gXOBExzHaw2c1nLNhQt/On1ZOmSKl+jy+t/CrsVt4qbaozvZrAnd4T66zEamI9+IL0PXYiCapviwjltQSlV5yHP7F5T6cvWqJlSVE1RKVXnEQ9hzTE6AazlkvClGRRPbEuiB5AvT76OVt3USNWGoFfoi6OEnTbQ38Ct/icldiy4uvT1KRVJZ+Soo83QxseeNnOY5xPXAC9kZeGk6d7UU2mAj8BN9opLuw1TmfSlKRVJ5aoiKmH3uGeZjjGPPR0jU9Ry1REXMWcJJj/yewzvQaztmDQjvbv6+cMkUK8xF8b+GX4xtPL9WRZcTS+3OdjUgGryF8scbh21rsJZI0g0JUJMDBwEriA3Q91o1JmiNLiH4g19mIFGgvYDG+2/iPZK9aiqYQFenCtsAD+AL0q9mrlhyyhOgHc52NSAE2xZbm8AToeah7YFNpoTqRMUwBLgb2cBzjSuAtaDinDNHYeeklL8buvB4ibkTRn4Dj0XBOGSZmvWuFqNTVVUPbcNOByUP/Hc8CtDqnjBAToiJNsnRoe6zsQqSe9ExURMRBY+dFRBzUEhURcVBLVETEQS1REREHtURFRBzUEhURcVBLVETEQS1REREHtURFRBzUEhURcVBLVETEQS1RERGHmPlERURkiG7nRUQcdDsvIuKglqiIiINaoiIiDmqJiog4qCUqIuKglqiIiINaoiIiDmqJiog4qCUqIuKglqiIiINaoiIiDpqARETEQbfzIiIOup0XEXFQS1RExEEtURERB7VERUQ2GAzdQS1REZEN3hC6Q0wXp0mhHyIiUgMDwIdjdlyJBWm320PAJv56RUQq5WTCsrC9BYdoC/hYnnMSEcmS+ufvAAAKD0lEQVTmRjKG6GJg0yynJSJSvJcRF6AtgBWRO34ux5mJiGRwNSWE6FPAVhlOTkSkSIcQH6CuEG0B3yv+/ERECvU7SgzRFnBo4acoIlKMV+PLvxbAsoAvXgesH/F7dwMzCj5REZHUpgL/IEGIPhXwxUuBf+vw+xcUeqoiIul9gY2z7L86/N64Ibo04IuXAROB6zv82TuLPFsRkYReit1ZD8+wO4HpRITokwFfvGKogJ2AJSP+bBX2lktEpMrmAPezcX49f+jPg0P0iYAvXjWskFM6/PkiYPfUZywikshE4DdsnF3Dx8yPbKGOG6IjW5RjbWtGFPSlDl9zH7BdqjMWEUmkn87PPH/F02e0W9Pha5KF6NoRRU0ArurwdfcDOyY5bRERvz7gHDbOqrnA7BFfu7rD140ZoosCvnh9h+I2Z+PnC+0W6Q6+8xYRcZuEDQwamVGP0fnxY2jfeR4P3KHTzPb70DmM5wG7RZ+6iIjPHDqPSFrMhhdJIy3v8PVjhujCwB0GRvng59M5kB8G9go+dRERnyOA+XQO0P3H2C+k73wLrEkbssNYa5A8d5TjPT50QiIiRZsJfIWNR1e2747Ha9SFdPtsATwauMN4y4PsBvy1w35rsLf5modURIrQh62R9DCds+svwDO7OE7Iy/YWwILAHaZ0UcQk4Gw6/yRYAnwba5lO7uJYIiLjOYjOIynb27l0nzchL9tbAI8E7jA14MSOpvOb+/a2Gvvp8A3gQ8BJ2LOKrdDSzCIyvt2AnzJ6xjyGzdQUIug9UR/W9N0y4AOmYw9euzUFeD9wxtC+IRZhD4EXDW1PYiOs1mPdEFZifVeXDn19N3/WtpSN+72ONHz/sXRzrCJMI2Kd7AaaSb2X/55Cve/KBihnJrfjgXcw+r+Bi7E5PRYEHvdRrOtm1x4irCUae7G2AP6T8NEA2rRp0xay3YsNS48VdHces+587E/8BcC7sDdj59O5476ISIzVwJXAa7EO9D9wHCsom/qAB4FtAvbZDLu19toL+BRwAnr+KSLdewxrbd6JDdu8HrgO6ySfQlAmTiBfS3SkW4FXYZ30P4KNLPDqA2YlOI5XP/acrmxlPasaaRB7fivNNvwdwho2vDsJ+fUK7N3HUuw9xhNDv34Yu5t9jI0nQkotqCUaE6KpW403YU1wkbLNop53RSF1Dw+ubpX14rQsQZk4IeID6vwWVGQsS8ouINLisgtomKCWaM4XSyIidVB4iNbxdkdEpFtqiYqIOChERUQcFKIiIg4KURERh6BMVIiKiDyd3s6LiDjodl5ExEEhKiLioBAVEXFQiIqIOChERUQcFKIiIg7q4iQi4hAcoqFrHQ0Efr2ISJ0Eh2gotURFpMk07FNEJBeFqIjI06klKiKSi97Oi4g8nVqiIiIOClERkVwmEN5PtGohOg3YFhgEFgHzyy1HRGquJ1qi+wJnA7cBTwJ3ADcDDwKPAN8FXlhadSJSZ6GZyHVDO3W7HZmq0ghHATeMUlen7cfANqVUKiJ1dTlhmci1gTu8ItupbDAL+EFgne1tIfDS/CWLSE1dRkDG1OF2/pnAH4CTI/ffDLgCODZZRSLSZI16JjoLuBTY03mcQeB84EXuikREhql6Z/tz8Qdo21TgImBGouOJSDMFt0RD5WqJHkn8LfxotgQ+kfiYItLDYuYTzRWiHy/ouO8Dtijo2CLSYyZQzWeiOwEHjvM19wMXAndj/UMnA7sCR2Bv40ebPHoScBzw9SSVikjTBE88fzVhXYZS32J38q4xPv9h4HjGDvM9GLuv1y+LKlxEau9KGtDFae9Rfv8G4HnYC6KxHkPcgT1T/bdR/nzX+NJEpOGCWqIxz0RzvJ3fusPvLQBOGPpvN1rAR+nc6twqsi4Rab6ghmI/sK7ID4jU6SfBRwmfXKQFvA14osPvi4h0EtwSXRP4ATlCdOGI/38YuCDyWAuwF1DDPRB5LBFpvuAQXRv4ATlC9LYR/38VsNpxvJEBfIfjWCLSbMG381UM0atH/P+dzuPdPOL/f+o8nog0VyNaojfx9OAMfeQw0rIRv/6Z83gi0lyFt0RzjZ0/c9ivt3Qea86wX38eWOo8nog0VyNaogDfA/409Ov9nMfad+i/dwNnOY8lIs3WmBBdB5wKLAYOAHZwHOskYAnWz3SlvzQRabBGdHFq+zsWfMux/p4xdgZeOXScWxPVJSLNNSnki6vcEm37DbYkyeuxlT1DfRJbm+mahDWJSHNNDvniOoQowO+AU4BjAvfbG/gM8PvkFYlIU00J+eIJVPft/EjXs3F/z/HcUkQhItJojWyJtumlkIgUqY8GPhMVEcllMoF32/2Et+4UoiLSVEGtULBAXB6xj4hIEwW9VAILxKci9hERaaLgbpT9PH1yjm6U9XZeRKRowSsBx4SoWqIi0lRRIarbeRERo5aoiIhDlhDVM1ERaargaTf7sSniQgRNEyUiUhOTgJfG7DiALQLX6nK7DZjor1dEpFKOp/scHL4BcF/gTmdkOCERkZx+RXiArmvvfE3gjsuBHQs/JRGRPPbEAjE0RH/YPsC5ETtfUvhpiYjkcRFxt/Lt9ds4IfIAJxd9ZiIiBTuUuPy7YvhBpmFdnUIP8ij+5YxFRMoyg/B3Qu3t8JEH+1rkgS5BfUdFpH76gPOIy73rOx1wZ2yC5pgDfjr9+YmIFOp/E5d3LewRaEc/dhz0tLTnJyJSmPcC64nLuj8xxt33PsS3RtcBp6c8SxGRAnyC+MZix2ehI33Z+QHfATZJcKIiIinNBH6EL98u6uaDpgPznB/0D+Boz9mKiCR0HPFv4dvbEmCbkA/0fFh7uxR4QeRJi4h4DGJZdgVp8uztnT5krK5JXwQ+7D8PWlgT+pPA3ATHE5HeMJMN8xfPYMMMctOBCUN/PmPEtimwA7AbsAvpJkv6PvDGTn8wVogOAL8EjkxUxFrgMsJXFxXJof0Ps9dMwdZa71YfMKvAz5hF9fqd3wLszyjZNV6xs7HX+bskLkpEpA7mAy8B7h/tC8Zb6mMxcBhwV8KiRETq4AnsBfmoAQrdrZc0DzgEPc8Ukd7xOPAy4G/jfWG3i87NBw4Gbo6vSUSkFuYBBzLK+PiRQlbufAQ4ABuwLyLSRDdiz0Dv6HaH0OWPlwFvAN4ErAjcV0Skyr4HHIS1RLsWu4b8d7G07qq5KyJSYQuAU4BTiWgcepY/fgT4NvAgdps/1XEsEZHc1gP/jY1qujH2IN415FvATcC3hn79bKxjrYhIlV2CtT7PxfloMvXIgGnAW4H3odVARaRaWtgozM8D16Y6aFHDqwawW/xjsaayRjyJSFnWAhcAZwK3pj54rjGquwPbYRMEzMQmBZg+7M+nApOG/f/sUY7Tzbjd8cZAjzeOdxBrUac28hxTmYjmb+3GWmBp2UVktrjsAjJbin2fh7sOOAubnrMQ/w/UCK+FKEWA0AAAAABJRU5ErkJggg==;fontFamily=Georgia;fontStyle=2;fontSize=16;" parent="1" vertex="1">
          <mxGeometry x="775" y="160" width="100" height="129" as="geometry" />
        </mxCell>
        <mxCell id="ozY22NEEOmjd52IIhUNE-120" value="" style="endArrow=none;html=1;rounded=0;" parent="1" edge="1">
          <mxGeometry width="50" height="50" relative="1" as="geometry">
            <mxPoint x="1030" y="985" as="sourcePoint" />
            <mxPoint x="1210" y="985" as="targetPoint" />
          </mxGeometry>
        </mxCell>
        <mxCell id="ozY22NEEOmjd52IIhUNE-121" value="BEM Coach" style="text;html=1;align=center;verticalAlign=middle;resizable=0;points=[];autosize=1;strokeColor=none;fillColor=none;fontStyle=2;fontFamily=Georgia;fontSize=28;" parent="1" vertex="1">
          <mxGeometry x="1035" y="980" width="170" height="50" as="geometry" />
        </mxCell>
        <mxCell id="TmRpnefOOpCRg7lk4vBC-3" value="" style="endArrow=none;html=1;rounded=0;" parent="1" edge="1">
          <mxGeometry width="50" height="50" relative="1" as="geometry">
            <mxPoint x="680" y="-150" as="sourcePoint" />
            <mxPoint x="250" y="-150" as="targetPoint" />
          </mxGeometry>
        </mxCell>
        <mxCell id="TmRpnefOOpCRg7lk4vBC-5" value="eDMZ" style="text;html=1;align=center;verticalAlign=middle;resizable=0;points=[];autosize=1;strokeColor=none;fillColor=none;fontFamily=Georgia;fontStyle=2;fontSize=28;" parent="1" vertex="1">
          <mxGeometry x="415" y="-200" width="100" height="50" as="geometry" />
        </mxCell>
        <mxCell id="TmRpnefOOpCRg7lk4vBC-7" value="" style="shape=image;verticalLabelPosition=bottom;verticalAlign=top;imageAspect=0;image=data:image/png,iVBORw0KGgoAAAANSUhEUgAAAbEAAADzCAYAAAAINyhiAAAACXBIWXMAAA7DAAAOwwHHb6hkAAAAGXRFWHRTb2Z0d2FyZQB3d3cuaW5rc2NhcGUub3Jnm+48GgAAIABJREFUeJztnXe4HUX5xz/33vSekAoEEjoEBESQXpQuoIAFgZ+AgGJBUURUVBAURUWkWFDpIogiXaoiXaT3HkhCQgrpPbm55/fHe85zb27OOTPbZnZ238/zzJPA2Zzz3d2ZfXdm3tKCYkMvYBdgR2B7YDQwBBhc/WxBl2PnA8uAxdX/v6z6/+YBc6t/1v4+t9v/78j+VBRL2oAJwA7AhsA4YH1gEHLf+yN9oKXLv1mB3PdVyL1fAczp0mZ3+++u/28WsCjbU1IiMhbYB9icznvfH+jb5N8sA5YC7cBCZOzXxvqcOn+fg4x9JSYt5kNKzVjgJOAEYGTGv9UOTAbeBiYCzwCPAS9WP1OypwXYGzgGOBh5aLlkMdIHplX/fK3aXgbeACqO9ZSVrYDTgCOAng5+bzkwCXgHGf8vAg9V/1zl4PeVAtIP+DHyVlXx3OYBVyAPV33pyI4dgIfxf78btdnAbcjDdXxG16DsrAX8ATEcvu93BZgOfBNZ7VEUaw5B3op8d+B67TFgt+xOvZQMBS5HlnJ9398o7b/AZ4HW9C9J6WgBjkeWdH3f13rtReDDmZ29Uhj6A5fiv8OaWgdwLtAjm8tQKg4D3sP/PU3SXgF2T/vClIh1gXvxfx9NbQXwLXQ1RmnAB4FX8d9Ro7R/0nyDWWnMcOBv+L+HabVVwDnoAy4qRyCOFb7vX5R2HdA7i4uhhEkrssewHP+dM067D5lBKvbsDUzF/73Lov0BXV60YQDwZ/zfr7jtIeRFTCk56yBGwHeHTNoeQfZ1lOb0An5Bfjbts2o/T+uCFZQtEG9P3/cpaXsDcf0vPWVdfjgU+CPijRSVV4E7gSeRjjQbWIJcy35I7FD/6t8HIm7a/eiMLxqMGJ3B3doQ4i8PvoEsjTwd898Xnc2AvwDbxvz3c4C7gEeB5xA36BmsGfrQHxhWbUOrfw4HxgCjkBenrn9m4b5dAY5Clp2U1fksMlsdEOPfvob0gf8BryN9YjGd435o9c/aWB/I6uN+CPXH/eDqcXFYguyT/R6570oJ6A38jnhvPncAe5Kt4e8FjAA2Qh5CUfStAH6L7O+p00cnX0AeNnHu+V1IvFhbRtpGITFJBwLHAj8ALgFuRjxRpyD3NaruZcBeGWkOkR7Ar4nXB+5GAp6zHPc96Rz3V8fQ+CiSjEEpOOsjb1FRO8hbwEEe9LYCv4mht4Ls8d2PeN+VleHATcS7fk8Ae7iX3JBRwAeI5j27BPiSD7E5YzDyMhK1D0zGz/hpAS6IobcCvAD8EDGGSsHYH3if6J3iMvw7TvyIeB261u6jfMGxexHPeWMqcCT5XWZvQWbbUc7pQWQFoYxsSLz9ryuJt+SYJmcQf8y3I8vnaztXrWTCaUTfzJ+P7DHlhZNJ5pAwG9jPuWr3tCB7BCuJfo2uJQwHmRY690CitJeBs5B8kGVgF6K/uC4EPudDbAO+iBikuON+HvBJ56qV1Ggl3jr448AGHvSaOBRJEJvk7exY16IdMgC4gejXZRbhDfQWxEEhbl94DfgOYRjtOBxI9H3Q5xAHoLxxEJJMOu697gDOdK5aSUxv4Hqi3+yf4ybhZ1y2QTyjknToLztXnT2bIKl5ol6PO5GKBCHSSvIMMwuRB1wfx9qz5EiiO8P8lnxfgy1JHhagoRcB0RNJlBrlBs8knOW2/shyUtxcf6sQF+yisBeybBLlGqxAlpnzuvdlSwuSgizJw62ChGgUITffl4i27D4P+JQXpdHpC1xMsm2F7zpXrUSmleiR+I8jJVdC48NIoHOczrwC+Ih7yalzJNGzrbyN1IUrEicTzxW/a1uG7MGEyueJ9mL3EmF68X0IcdaJc487gE+7l6xE4RKi3dQ/En4esu2Bi5CYoijn/j5hey2eRvTZ6I1I0GkR+RDJlppr7UzXwlPgSKI5QNyO+1pxafNBZM9/MtHu73zEa1PJIccR7Y3kdD8yM6MHkpFgIvbX4WnCM+Jx4miWI7OVotMfCZieTzJD9mPXwhOwD9G8Uc+jWPkleyDbA1FCSp5Aa5Tljs2x99xbjjzsi0pfos1Iz/cjMza/JNoDeRLF2O+JwnCkmGKc4P5a+4pz1dEZi30NsKXA0X5kOmEIEtdquzoR2rgvND2BZ7G7ccuQNEJl4Djs3lBXEc7+WFQnhjvRbN/jgVOBN4l27drxk6nGlh5Iai6bc1lIedJwHYvd0moH4TizFZ5vYT8DO9CTRl8cgZ030+vk28UYZJnM9gHcAZxNsZaNktIGHIMkLra9jvPI7/7J17E7h/mUL6/gYcgLu+naTCR+8mElJdbGLhCwA/g/Txp98z3sBvvZvgRa8Ensl0mWU957bcMw4B/YG7Knyd8LzijswiqWAx/1pNE3R2F3f8/zJVARrsHuRp3lSV8eaEWSAZuu0VJgPU8am7Elshxkc59nk6/EvXmlBfFCtDVkl/iR2ZArsdN9pCd9eeEy7Ax9XmfbhWdD7JbK7kGXlbbCbp38Cl8CGzAECcS1eWC9Rz7TBuWZU7Cb4XYA+3rS2J2NsBv3F/oSmCNGYnet/uJLYNn5KeabMwdZelDgXszXqx3Y2JfAOvwROwM2C5mxKdH5PnbX+F3ykWvxPMxaX0JdyGs8hfl6raI8iaFzxUuYb85XvanLH9/B7mF1sS+B3dgNu1nCXCTwU4nPFdj1jct9CeyCTQ7Bsngi2mCzpFhB8nAqDhmK+QE3Ca1w3JUDsevMC/FfQ60Xdi8pHcDHPGksEn2QLO4219unp99aDXR1bQ96U5dPbOuSLUEKiCqO2AvzTdFkl6vzAew6cwX/pUlOxE7nRb4EFpDNsStf8hz+Xg5txn3ZnTm681nsx32REoPnnuMx35BtvKnLJ8Ow78xXedII4jn3SgNdXdsL5M/1O3ROxa5/fMGTPtO470D3wLuzK/bj/npPGkvJWTS/GcuQ4E5ldZZg15lf8CUQyRJhozHP2SRCpQ14EvO1n4SfnJumgPepHjTlnU2wN2Kve9KYiFBdz01vW+8hHjfK6syyPM5n3MhJFsc8BdyRtZASsgr4msVx6yGzIteYCpi+4URFWMyIcGweK9obCdWImVx99Y2sPkssj/PlntwPuzyO5yBvjkr6PIrknDRxCu6LipocD9SIrcl8ZGXKhjYCXMEK1YgNM3yuRqw+tkbs3UxVNOYjSBb+ZsxGZ2FZ8zuLYzbGfeJokxF704mK8JhjeVyQK1ihGjGdicXD1oj9O1MVjTnA4pjbkaBsJTvux26me0LWQrphKmiq474+CyyP8zXuExGqEdOZWDxsjFgFf7WGtrY45qbMVSjDsFsqPAApheQK00zsPScqwsPWiP0qUxUZEaoR05lYPFZaHHMPEmjsA1Puw1XAv1wIKTnbWh43GNg5SyF1fq8ZasTqY2PE/oNULAiOEI1YC+bOrEasPjZv1zdkrqI+I5GMDM14DangrWTL2AjHuqyabRr3tt63ZcPGiPka94kJ0Yj1waxbjVh9bIzY45mrqM94i2OezFyFAtES/bpKGN0CDDQcs9CFkACx8U70Ne4TE6IRs6lEOjtzFcWkHXjV028PtzjmqcxVKGB2oOiKqwwZvWn+vFqJvSt52TBtI1Twt4WQmCIasQr6RtYI00zMp4utjRF7PnMVCkQzYq4MhynFmC4zN2aF4fNZSHHMICmiEVuE5FBT1iTPy7A2Rmxi5ioUiJZSylWAsSl+MLj4JoeYZmJBb7+EaMRMnVnfyBpjunbznaioj8mpYzn+grDLhm3GlgpwY5ZCumDqu0pjTDMxn+M+MSEaMROajqgxplmszz2FAYbPJ6EzbFfYxn79Cndu2WrE4mOaiS11oiIjQjRipgeZPugaYzJiPjuzSZsuJbrDxojdBZyWtZAIuAy6Dg1TPsSgHWKKaMRcJyUNCZOhsE1LlQUmbVOcqFDAbjnxCtyueph+yzSTLzN5HveJCdGIaWeOj41TjC9M2qY7UaGA3azmgcxVrI7p5bUNXXJsRKH9CEI0Yqb13YHobKweNplOfIYmmAaaGjF3mIzYAqLVqUoDm22CQZmrCBPTC2LQIUkhGjGTJ00r5od1GRmEeZnI5xuZ6cVDjZg7TEbsfScqVsfGhX5M5irCpL/hczVijplrcUyU3G9lweTCDn6NmOlNW/PiucP0suPDiNk8aNfOXEWYrGv4XJcTHbMCWGw4Zj0XQgLDJpjY5xuZaa8z6IEWGKaZmI+4IpvfXCdzFWGygeFznYl5wFSpdEMnKsLCxojZ1h3KAtNMTI2YO0xGzEdR0uWYXcE3ciEkMEZidnbzOe4TE6oRe9vw+VZOVISFzVLLtMxVNMZkxEyzbyU9TEbMV4on01bC5k5UhIXNC73PcZ+YUI3Ym4bP1YitiWlJAfymdTItJwadVSAwTMGxPmZiYH55NRVVLSM2BU6DTudWVCP2Aezzv5UFkxFbjl8PQM20kh/yasReN3y+Aepm3x1T5e12NAGwF0yduS/2JdbLgsmIvYbfTOCaiSU/mIyYKVYzK0wZ89uA7V0ICYidDJ+/iTlBcK4J1YjZFHDbNXMV4dCCuQLviy6ENEETN+eHHobPfdWeesHiGNNDu0yMxvzyGmwxzBqhGrE3MQ+kXVwICYQtMBc6fM6FkCaYZmKa4NUdppmYLyNmUxTVtHxWJmyegb7HfWJCNWLtmJcUd0WXoGrYzEp9V002PRh1r8Mdec16PhlzqMXOmPWXhT0sjvE97hMTqhEDs1voCNRbqcbuFsf43tw1PZxMM0klPfJqxCqYM7cMRhy7FDsj5nvcJyZkI2aT+ma3zFXkn17AgRbH+Q4mNmUN0HyY7jAZsXlOVMT/bZuXtqIzDNjS4jjf4z4xIRsxG086NWKwD3azGN/LdabBNMKJCqUH0NtwjCljTpYMtDhGx71sIdg8332P+8SEbMRMSS0BtstcRf75hOVxvvNNmoyYJnV2g00pI19GrA27TPXqZg8TLI/zPe4TE6oRGwx82OK4jVCvNltDvmeWIiwwPRjViLnBZtl2duYq6rMD5rIiIH2l7MVxN7E8bs8sRbggVCN2FHaduSeaFNQm3RTAvpmqMDPT8Hnwb4yBYLO85Ksszt6Wx7UAm2YpJABsy9Lsk6kKB4RqxE6McGzZ38gmWR43AbtM91lhMmLqaeoGGyM2JXMV9flIhGPL7ghkW/NtEwIvJhqiEesHbGN57BIknVKZ+Y3lcS3Yz9qywGTENsJu9q0kw+QEtAA/9cTAflVlKQWIf0rI3yMcG3TpqhCNmE2F4hrfJfBaOSlwOeaEyTWGZSnEwHSaZ+1oxX6zWomP6YHmaxYG9isF38JP9ek8cTN2abrA77hPTIhGzLau1NXARVkKCYR24HzfIixYjjnw8oMuhJQc07Kt7fK0L24CfudbRA6oAL/wLUJpzELkJjVqc9Glp670RZZWm12zCv6TJv+H5vqu9aasPNxP83twnj9pzG6iq9bK7sjVlV7YXbMoe425I8SZGMA7hs/fQCsBd2Up8ITFcb68zmq8ZfjcJo2OkgzTTMx2iSoLZhg+n4790nkZWAE8bnGc73GfiFCN2LOGz0c6UREWJgeXlZhfDrLmScPn66Bv2lmyEVK+oxk+HSbUQEXHlCi9A5joQkhWhGrEnjJ8vg4FSKeSMqYs8a9aHJM1j1gc87HMVZSXAwyfLwZediGkAaayISOAPi6EBISpgOmbBL5qVVQj1gNNAtodk2dXHuoKvYg5G8ShLoSUlP0Nnz+BOAr5wrQC0wZs7kJIQJhWpfIw7hMRqhF7BvNgCnqzMgNM5Sny0Jk7gHsMx+yKJgPOgr7AXoZj/utCSBNs+qjmTVwdU0xtHsZ9aXmM5h43prXgMvEBzB5KO3hTtzrHYNZ6nDd1xeUQzNf9097UCS1IGEYzjdd5U5c/JmC+p5rx3yM/xnyDNIu98HeaX6fp5GdWviXm+/oPb+qKyxWYr/tO3tR1cinNNc5GU83V+Bvma9XDmzqFvTAPuru8qcsPp2K+Tld4U7cmQzHrXYhu4KdJDyTDhem65yGp7sGYdZ7tTV1+OAXzdfqLN3UKIIX7FmO+UX8DtsVcrbZI9EGy0v8D8/WpAJ/yI7Mun8JOc/DZt3PErthdc9/LiSC5U02B+x3AX4EjMIcMFIlewEeBG7C7n0f7kal05R7sblbt7f1G7EsUhEgrcC52xr3W5pGf7CY/x173aZ40FpFvYnfNJ5OPPHvXY99PKsADBJ7k1kALnXliba/JIjTTfy44iWiduYLEQ9mUOA+RM4h+PS72onRNNkPeoG11/9yPzEJyFfbX/XJPGruyB9H7+TtESx4eEl8l+vX4gxelyhoMRVIqRb2BPvO/ZcUwzDkl67W8ZIY/nWi6v+dHZiG5Evvr3o6MO9+8SPS+fqEXpdkyELv8iN2bJtPOEZcT/QYuJvBCcHU4k+jX4QEvSutzGToIffEJol37g/zIXI0vE72/L6N4FcJPI/p1eMyLUqUhmyJvh1Fv5CU+xGZEH+y8y7q3PGU1MYUBdG1XeNJYVFqAB7G//l/0I3M1+iAJo6P2+T/5EJsRvYD3iH4N1Ckqh1xI9Bu5lOJkfvg00c//Ri9KG3MjdrrvRTxTlXQZgxS8tLkHeXGqOZzo/X45xfFYPIzo53+7F6WKkQFIYtKoN7Qo+yq3En0g5y0b/BWYdT+BBrJmyebAo5jvw9d8CazD/UQf99/3ojR9biHaea9Ec0vmmnFI1dkoN3Uy4Uesj0DqBkU57zw9hGr8FLNuzYeZPX0w34fjvalbk/FEd2yYQvjjfiTRx31eZtBKE0Yi0+UoN/ZwL0rTI6p77QV+ZBr5Embt472pKw+jMd8HU7Z71+wKzKdc494mI0fX9ltk71MJhP2QKrA2N/c/fiSmxuOYz7EdWXY50pNGG3bGfB5belNXHnbHfB9M1Z99sDFwNTATu3H/Lz8yU+MZ7M7zIeBzqAELkvWw99wxlSnJKzZZqivAF3wJjMAAYBXNz+Ngb+rKgylebyX5dqwZiVQqNo2JDvITIxmVbbEb9yf7Eqikxx7IoDPd7FDdbn+B+dzu9KYuOq/T/Fx+6E9aabiZ5vfgBX/SrNkZu3H/e18CE3Ix5nO7B519FYZzMd/wEN3te2Ceaa4CtvYlMAam0hE3+ZNWClowL8dd401dNM7DPO4XkY/sI1Hog9mRpQNNBlAo+mPntXiGL4ExsYmRCa3ulin34zR/0kqBTfHUr3tTF42BSH8xnc+3fAmMyVGYz0ljwQrIJzHf+KlAT18CY/Aw5nPa25u6eOyP+Zw29qau+HwD8/Xf1pu66ByL+XzeJqwyTU9gPqcDvalTMuV/mG/+Md7URWN7zOfyBuGtiQ/CnELs897UFR9TeMpcwnrgt2KXKDhP9fSasRvmc5lIfqq0KylzIHYdoJcvgRG4DvO5fNObumSY3jSv8Cet0PTEXI/qVm/q4mNTZPUVwgh+vgnzuXzXmzrFCf/F3Any7pY6AbMr+mLC27CucT7m5R8lfXbBPDa+7E1dfFqB5zGfW56ykNRja8zjfjkwypdAxQ37Ye7MM8h3fj6bRLkhF7yzmTFv701dcfkZ5useasYUm0S5kxHPv7xikyfxBm/qFKfYlJz4iTd1zdkOu+rHIbnVd6cvMpNsdn7XeVNXTFqRPdRm1/wVb+qS0wI8hXnc5DUx8A7YjftdfAlU3LIH5s6wEtjRl8AGtACPYNZ+ty+BKXIbzc+xA3H17upkMISwnA58MpDVr9WphPtiZ4vNDH8F+Yuvsh339/sSqPjhHsyd4nUkxiwvHIdZcwcyWwudEzGfawWYB7wDLKn+97vIW6tSnz2RPcUK4gU6E7lmNte6CHkrbYzBS8hqQF6wGfcVtNBl6bCdnuclLc1w7BKbFmVNfAiSRcVm8HZvk8j3nqYvxhI903utPeVBbxbsgd355qXq+zDsEpk/4kug4pc/Yteh8+CRZcpnV0GWQDfxJTADbiDeA7cCfMeD3rxzFfGv57Hu5WbGNYQz7k1p2CrIy3jetj4UR9i+5bTjN3u6TZ2tPL09poXtW3O9NoN8Z1p3zRiiF1CstXfJt9deVEZiV0TT97j/fANd3dtffAlU8sHR2HWURcCHPOj7MJ37Pc3aJGSzvmjYpNZq1D7nQW9eMeWkbNZO8KA3a07Aftz7COfYpvrbJn0LkZJTSsmxcfKoIHtSLl3X1wemW2rLW6XdtNgVc4Bno/aEB7155SXiXcPHKabHZwvwAHbX4H3ceiyuA0yx1PZVh7qUHDMGe2MxGzczspHY5XyrAFc60OOTC4k/i9jJg968YVs4td4sZAsPel0xFjFQNtdiLrIqkjXDsK/Y/CCaI1Hpwj7Yv/HPI9uH49rAy5Za3ibc9FK29MQuZ1y9pvsFcBbRr9tK4GMetLrmY9h5KVcQz85dM9QyCngugpaNMtSiBMo52A/yhcBnMtCwFfCWpYYlhFUWIwm9kKrOUd3ulwOjPejNE1GXEucA+3pR6geb4pm1thjZR0+bzYDXLDV0ILUEFWUN2oA7iTbgLyC9GmRHY7eZW2tldFwYCvwf4n6/ELvrdKYXpfkgylLiRCR/4nAvSv3RE/t98Vq7hPSqXXwGc/WAru2XKf2uUlAGIJvZUTr0w8jDIi4bISUuovzmxQl+ryiMwe6lI7Rip2lyFnb96QuEV3suTQYCTxJtDD5GMkev8Ujl9Si/eSthlIxRPDMC+6l9rbUj2T1GRvidkcib77KIv3UDxfQYi0M/7MpsHOFLoGds+vGl3tTli1GYkyB3b6uAPyEvVLYMB35M9KXxR5D+rihWjEdir6J0sgqyxPUnxFGkXv61QcDHkQwccYJPb6G8s4pG2BQ9fNibOn98CPN1mQsM9iUwh2yIlGSJOi4XI17C+1Pf0AxAnEj+juzTRv3+pxDPRUWJxDrAC0TvcLW2Akki/D/kITqR+DFPFeAuNAtFPdqQJUPT9SuLE0yNX2G+Jj/2pi6/rIt9eEu9thKZ0T0OPAS8iazUxP2+h9EXDSUBQ5GOGLcDptWupVipf9LmXMzX8Bpv6tzTBkyj+fVYiiydK2syDLuM91m3W8lXJQ0lJ/RDlgttl+X6AlfgpxN3IIX6om66tyJ7bmUZABtjjvdZQXlS9OyNuW9d702dH/oCG2DvVdgPWSL0Ne5/RPRg5p5IyZyix46WklakRPl9yHS/gmTf+GiE7/gsEujsqiMvQPZ7ojIKeLr6He3Vv59C8Tv2HZiv6QXe1LnFJvv5ft7UuaMFOARZiq/tQc9FCmTa4nrcTyVeoPn6wKt0GsH7gaPQPfRCsBeNPdjeI1q8x3jgXw2+K832T+LPGq5s8J3zkYDuohqzj2K+rgsp/gb5enS+qDVqUyi+h+tudL7MdW+ziVb4chxwb4PvSqt1AJchtfTi0Mhd/20khEJd8wPkA4g3n6nz7B3juw8kmdNHozYTCeaNSyvmwMlZwEkU8yH2LOZrfIY3dW74GeZrcI43ddmzJfJANy0vR5mN1dgf+9RQUdrdJMvJ2orZZf9FipsovHBsiqz323oCHhfzd9qQLBsPYJ9/rVGbBHyd5HtYa0f4zeeBAxL+Xt6wcbefQXH3CvtiTmq7CplZFI2NgT9jP+6/GPN3WoEjkeW6JON+KeJstEtMHV3pH+F3/41UtldyyDjgcsxLKd1bGm8nGyDZER7EPnXUDMTYprlu3Zfo7rz/xk/NpCxoxS74+XRfAjPmi5jP/U5v6rJhPaRKe9Rxf1AKvz0Oyen5EHZ1/2YhSamPJf1lfZsCv7XWgeybFqISfBFSzayNLBGdQPR8Zs8gbyXtKeppAzZHUlEN6dKWIB1tBhIzVotFSZu/Ap+O+G8qSCaQ7yNxLSFzGHCj4ZjZyIvHguzlOKM3Epdo2kv9BLLMHjqjge8h+z1R4ydfQVJGrUxRT0+kdM26dHoGr0Ay8kxGnC6mp/h73bmY6PXF2pF9uB8h/gGKY8YA52P3BlSvTaeYLtejgHeId01WIIMhSvqsvNGCXU2mM30JzIivYT7nlwm/BtUYJAnuYuL18VkUs07acOBd4l2TRUjguwZVO2J9JIt01NxjXdtzSIqZorI2cBvxr88CZJlkoGvhKfEJzOc4D1jLl8CU6Y9dYddjfAlMgfWB35B83G/gWrhDRmPnzNaovQ+cRnH3jL2zCbLnFSfnYNd2JeVJpHks8uaZpFN/j/CMWQuSb850fhf6Epgy38V8ru8QZszQpkiygSTjvgN5dpRl3H8O+2r19doM4FTKc70yZyvgOpLlH6sgGb2jBDcXhaHAr0n2EAjRmB2A+bxWIqEYIbMudvWoTvQlMCZbI/u7SfKNVpAl1D3dSs8Fg4hXJaNrmw58g2gxdUoXtkeyvSd1X1+IOCyUPXnuZkgQdZJrGZoxsznfBwnbwekm7B7koQS77ogshScd9/OB75Be8cpQ2QBxdEpyLachIUCav9WS3ZHgvyQXvYLMPC5BHB2UTg4kesn6esbsu+TfmG2KXemLo3wJTMjHsbtfh/gSGIGPkE42nGVIerGyVag2sQfRC/52b1OBk1Fj1pD9SSdj/CokFqPIjhtJaUOCvOPUTAvNmJ2P+TxmEa2wYR4YiF3tqwd8CbSgBYnXepR0xv3VFDOQOy1agE/SmWMxbnsX+Aq6ugWIu++hwBOk04mvJ/w9Dpf0Rta8kzh/5N2YDcYuEPQuwlpWvBbzOa1E9pTzRiuSXcUmTZiptSOZOoroNp8VPZD4Ops6fM3aZOBLlHTJtgeSsilJ8blaW4F4LxUi+twTg4Czkf3DpMYsj3tmx2On/xRfAiNik5mjgsxC80QPxHPuFdIZ95cBGzk9g2LRD3n5nEuyezEJ6ZOlMGa9kTeAt0jeiZcicSPjXJ5AwRmFBDvHKaHe3ZidQX6MWStSYdumT+3sSaMt22IXKzWF/Fz/3shDbiLpjfv1nZ5BsRkG/BT7lHmN2tuIF2yIoRwzHhw5AAAWNklEQVRG+iPLVnEjyru2RUjEfmh7GCExHklOmtS9eTbiGTrIrfy6bImdcZ6FJJPNIyORtGA21/5gTxq70g+Z3aY17s9Hx32WjAR+RfwsSLU2Efg8BTFm/RDXzPdI3okXIMGpo52eQbnZAsmpmPTezUdiVuLWSkqL72On9y3yl3prIPAkdvr/6EljjQHIuJ9G8r6zEBn3arzcMRIZr0myo1SQAPtga5n1IT3jNRPZZ9G8Xv7YDXiY5PdyDrIG7ysTQA/sz+N58vPg7I1UG7DR/Tb+Zr5rIclkk+6xVJBZ/A8pbhHXEFgfeSFKmiXpVcSBLwh6Ia6XaSwfvIssQWoer/xwCOkUA52KrJ37eENbF3kxstH5Fv4dB/ogQf82elcicZauGQ38guSOQRUkS8S3yc9+niLhSleTPGvSI6RTPy0TWhCX2TQcNt5CNoE1BiGftAKfQbJAJL3Xr+DnDW137JdK3sNf2qJhRIud/LZjfSOQ/emkeygVZK/vJDSQNs9sjmwvJM2mclP1u3LDjoiFTdqJX0Lc7oNcPy0htcrWr5P83j8K7OpWPodj77jSjhQ9bXOobzzRglJvxl2c21CkdEcaM6+nkJcil9dWScbWwK0ku+8rkb1Or05fo5HEvEmt8pNIIcPQ6xyVlR5Itvw0ZuH/AMY61H4S0frvg7gJqj2MaAHor+LGaaY36cQVVZAUU/s60Kxkxw4kTxE4DTjCtfAWJGXRnATCK8jb9/6OtSvZ0RPZ53qHZP1iIbIX6mpGHtWQrUD2f7LYsxmChDZEuV7vIbO2rNkfeCOitu5tFfA34EMO9Cru2I3kKQPvRXKdZs646o8lEfskkoRWKSa9gC8jwbZJ+snTSCUDF5xA9E3rWv64NMpU9ESyikR1iFoIbJfC75s4mWQxg8uAP6BZdYrOISTLwrQUGVOZLYsfgLi9xhX4PLKJH1J+OiU+fYCvkSxWqB2J7XLRZz5OvJL3M5AltjhxZf2QVQ3bAObuBmzPGL8Zh7jZz+cD55GfUAUle9qQQOckL7E3k3LV9RbgB8R/E3sFWfPUPa9y0hf4JnZJeBu1Ux1p3RF79/t6Bvc/iOHelsZeduORPa9riZ/mZy6wU0rnbMNa2CUcrrX3kFpeGttZXvoCpxN///RdUnL2akWS68YRMQ1ZplGvIwUk3u/bRDdmdyOxXa4Yi12eRRuj9gayfP4k8AwyM0n6vW8i3mE+OJDmDjzPIzNLDY9RagxDwjDi5GNdCnwiyY+3An+K8cOLgXOQ1DOK0p1aPj1TGYjn8Of40xu41KDPR/sH/mc3fZCVmdrSawfyorEvulWgNGZj4rnltyP7xbH4ZcQfWwVchdu3ZiVc+iCbuN0LO/4L2SDOw/JzVFf3rNpyZEk2T0ZifSRWLI/1ypT8sg/RnT86kFW9SHycaG7Hr+N2jV4pDr0Q1/zvARMSftduSGHU55AXqjSSRY8BbsGfAcvC9Xhz4BJkA/0sNKm24pYewFeJFqa1nAh7ZGMjfHkHUttH8xsqPhmKGK/u/fMl0uubB5NOPSzbNgVJ5ZY2B7Nmyq1lyKwqjXABRbFlbeB27MfEDCyTIdR7GNRrq5BMDYriixbgKJrvr/0kxd/ri+znpVGdoVF7EdkDyMI5ojdSsLTRb78FHJTB7ypKM47DPoXZbaYv2xm7ZcQOpE6MovhiG+yyBEzO4Lf7IQHdT1v8vk1bBNyIxGJmue+1s6Weu3GTXktRauyC1Iy06Z/7NfuiBy2/5JcZnISi2LAh0apOT81Yz1bI7Owm7J1AlgPPIrWaDsbdMt6OlvoqSILWS5BM9Yrigt2xq132Mg1Ct7ax+McV4AE007zinnWA3xG9QN8vHGpsAdZDZjyHIemaTkFWLY5CHKY2w9/46Yv9226tLUCcP7S+l+KCk7HrlwfX+8e/tfiHSxF/f0VxxXDEEMWpWfUs+vDtzk+Ifh0ryCzzG2ggs5I9d2Huj2vsjbVgDj6tAGdmLl9RhBHAuUSfOdTaM2jOvnr0JllGkknIRrxm4lGyYhPEY7ZZP2ynm6fihwz/oIK43XstYKaUgtHInmvcvIIVpM6d9tXGDEGCyuNe3wqaE1XJlt9j7oNf6foPTrf4B+e40a6UlLHARSQrdT8bqRKsmGkBjgGmk8yYvQh8knxlE1HCZzPMnvI3dv0HNxsO7kC8whQlbcYjeQrjJAjt2u5CgieVaAwBLiD59X8OSdaqxkxJiwdo3ufep0t/M2UWf8ShcKUcbIJUSIjqbdi9TSSbzBZlYwNkGTZKurl67SkaeI4pSkROwdzf1gV5ezUdeKZb7UqBmYDUpopaSbl7m48sg6u3XLpsB9xHsntTQZxHDnCsXSkWm2LuZ/sB7G1x4F5utSsFZBvg7yQrc19BjN+lwCi38kvHfoiHZ1Jj9iiSuVxRotICzKN5//oGwNcNB1XwX8NICZcdkDpCSZepOpB6Wlu6lV9qWhEPxFdIbsweQl+GlejcT/N+9SuACw0HzXCtWikEu2EXtGjTbgM+6Fa+0oU2xJOxWVVn23Y/0jcUxYaraN6frgd5u2120OOuVSvB0oLsg9gk5rVpdwMfdnoGSjN6Iim0uhcyjdPuRdJzKUozfk7zfvQgwBOGg+5zrVoJjlbEQzCtrO73E6EAnuKc3sDXSKckzZ3oi4rSmDNo3n9eBnjbcNDNrlUrwdAL+DzwGukYr/uAPV2egJKIfsBp2Gfvb9buALZ3K18JgB/QvN9MhuZF8irIcqOidKUf8iaexrJSB+L4saPTM1DSZCDwfWAuyfvDbYibv6KAVFBo1l/mgjlS/xbHopX8Mhj4HjCT5A+rVcBfga2dnoGSJUOR9HRxkzZ3fbG5BXXmUaSCRbO+shzMQad3uFat5I4RyBvRHJIbrxXA1UhuNKWYrAX8DFhM8v5yL5KgXCknf8DCiC01HPSga9VKblgPuJhkSXlrbSnwG2B9p2eg+GQMktTZVFbDZmb2N/TFp4xcj/m5YlzHfh+t5Fw2NiadvIYVJD3Uz9DaXmVmLJJlJWl/Wgn8kWq+PKUU/JPmfWIxwAuGgypIbIhSfDZBgguT5jWsIO7Xp6PZXpRONgCuJHn/WorUnFvLqXrFB4/QvC9MA/EMM3WaduBsoL9T+YorNkH2qdIwXq8jLz2amFdpxKZIxvykeTTnIV6RA9zKVxywGZJNyrSV8SLAdw0HdW1T0QdUkRhHejOvJ5DiiFrpV7FlKySEJ2lezfeA49C+Fzo9gMORquO2feLfIPE5UTvNVODb6FJRqAxHCiEm3XCvIKmhPupWvlIwtkO8oJP2xf8BOznWriRnbaTc17tEv+eXgCT3jJuleiHwJzRQNRT6IGlc5pPsYdGOeA1t61a+UnB2Inktsw5kaVyrfOebPsCnkZeXJCtBJ9S+8NMJvqTWXkCWJjfM6KSVZBwAvEGye7wM+D16j5Vs2RtzTlebF+xvo57VeWNH4LekE3O6lG5ez1H2xkztCaQDbZ7yBVCiMwIpRpnkfi5AIuf17VZxRQvwGZK/eD2OPod80ookeP4J6dSlq7X5wMfr/eCngOkp/lAFeBP4NVLdtV/iS6JEYW/EBTXuvXsf+CEwzLVwRanSE/gyyTLmLwVORR0/XNEXOBjJtpFGpYOubRUSprFOMwHDENfGNFLGdG8rgIeBc5Hy5+oamx3fJr4L81Sk7LeGVCh5YQCS0TzJfu7DiEeuki6twDbA15Gcl1nYjmXAZcCEKMJGIpkWkibzbNZWAv9FCp99DPV2TINWJFVUnPsxD1lW1hmzkldGICs7psTljdpMtFZdUtoQj9JvIkYrjf2tRm02shQ5OongoYhHWxqlyU2tAwmWvR7J9rAPGpUfhRYkvU+ct5xfoddaCYeNkQdonOfMciSuTLFjA2Sr6adISM08srcFLwMnk/JqUAtSsPAqspkuNmuTgJuQ/ZmDkFxsypr8kujX9np0iUUJl72B54n3XPkZ8lxThF7AFsARyOrYfaRTI862zUO8n52EbA1C/PP/TTrZHuK0RcDTyEP4HOBoYAdgSIbnnWe+QrTrNwVZwlWU0GkDTiJenbvzPej1zWhkQvIF5PzvQLxAfTzLVyHldo5CHEIik8ZbyHDgEOBQ5K2oTwrfmZSZwGvI0uQkpALx1GqbghjAIrEfcDv2MTF3AMcg682KUhSGIKs1X0MMmy1nIM5mRaA34rk3FimltB6S9X8sUgZpPWQS4punkZRj1yDP59ikPZUeiATVHobsZ+XVNXsBYszeRVzQa3+fiUyf51T/nIskoMwzGwFPYu8U82tkQ7aSmSJF8csOwOXYe7JVkLyf/8hMUTzaEIMzCBnfI6pteLc2ssvfR5PPJdIO4DHkGt8EvJ3WF2d5sm1IRdb9gH2RgLcQo+eX0WnQ5nT5czni7ttRbfOrx6+gWuMGMYDL63znAmQaTfXzBUiGgVnVP23pATyE/RryOcibqqIUnd5IX7fN2jEb2BKJk43LIOTFfS3EIW4wEuc2CFmh6ou86PeqftYb8QQeWv2zf/XzwdW/52FVKwntwH8Qw3UzEjMWNEOQGdqlyDKfj320ENqbyGCy4YcRvvc0y+9UlCKxN7J9YDNGbon4vVciSYenk04B2SK015EK7odSAv+EMYjb5kXAsySvLVSktrXF9dsM+4FztsX3KUpR2RX7IOnPWX7nM5bfV/T2NvBn4Hhkz63UDEG85X6KeD0mzbQeapuE3TKvbYzMZZbfpyhFZi/sXvqmYucld57FdxWtLUeSU1yA7CFqLlUDrchs42gkDdYjuI9P89Eusbg2e1p+14OEuQ+pKFlwInbj5hsW37Wr5XeF2hYgabouBj6PlF3qZXFdnBPaG3oPxONoK2TfaEK1jSO8c2nEfsA9hmPuRpxlmjED+CDifakoinAV5iXDmUiWisVNjmlDxljoWW7mAK8iGeZfq/75KjARcVjLPUV58A9AIs23QsoubASMr7aBHnVFZQni3VTPo7HGJkgnM927A4E7U9KlKEVhGPAS5lx838IcCP1nJEg3zyxE4rDeqbZJXdpExCM6aIpixJoxnE6DNh4JBByCuLHW+9Mn9yHxdc24ADjFcMxfkdQxiqKsyZHAtYZj3kReGCtNjjkeqWzvigqd4T61Ng+ZTc2stmnIDHE64tKe9zjXxJTBiEWlFt8xBFky6EtnvMZgZK+uJ51lZAZU/7uV+gHHjf5/jR50zhZvAq5rcmwLsvE8pskxS5CZaPAxGYqSEa1IJfotDMftg7xYNmJDpADwYsRpZDky/lYhe0rQmSx3EVK1YxlS36ydzpjQudU/F1S/Y2H1O5dX//2y6vfOszk5Rckz22PekL3YmzpFCYcjMI+lG7ypU5SCcg7NB107mpFeUWzoiTlh8HzUu1dRUuVhmg+6+/1JU5TguAjzbGwnb+oUK1p9C1CsaUNiNZqhyx+KYs9fLI75SOYqFKUkbIn5rXF9b+oUJTzaMBd9vMmbOsUKnYmFwwcNn09DYj8URbFjFZLVphnjXQhR4qNGLBw2MHz+XycqFKVYPGD4fJwLEUp81IiFwzjD5y+5EKEoBeNFw+eDkdhRJaeoEQuHcYbP33IhQlEKhs3L37qZq1Bio0YsHMYaPlcjpijRmUpnVfZG+E5HpzRBjVg4mLJlT3WiQlGKxxTD583SximeUSMWBm2Ys/EHn41aUTxhyjOqRizHqBELg1ri4UYsQxKMKooSnemGz9WI5Rg1YmFgGkSznahQlGIyw/C5GrEco0YsDAYYPp/jRIWiFBNTiZN+TlQosVAjFgamQaR1hhQlPqbx09eJCiUWasTCwDSI1IgpSnzUiAWMGrEw0JmYomSHGrGAUSMWBj0Nn6sRU5T4mMaPFsbMMWrEioEaMUWJj2n8tDhRocRCjVgYmAaRKW2OoiiN0ZfAgFEjFgZLDZ9vitkNX1GUNWnBXKtvmQshilJktsZc1Xk+cCFa3VlRbOgFfA54HvPYOtuTRkUpDMOQKrSmwVYBVgLXATt4Uaoo+WYUcBaSpcNmPFWAE30IVZSi8Tj2g67WHgeOQzMOKMruwLXI0mDUcTTOvVxFKR5fJPrgq7W5wEXABOeqFcUfQ4GvAy8Tf+z8y7lqRSkoLcA9xB+MtfYQsjwyzK18RXFCD2B/4GpgCcnGyhxgvFv5ilJsegPXkNyQVYB24F5kc9tUq0xR8s52iGPTdNIZH28BWzg9A0UpEUcA75LOYK0Ai4HrgcNRV30lDFqBnYBfAJNJbyysqH6nvtgpSsYMAL6PLHmkNYAryMb3XcCXgfWcnY2imOkPHApcRjTvQpu2CnmR29TZ2SiKAsAQ4Eekb8xq7RkkTubDQJujc1KUGuOBk4B/IkH/affvVcDfgQ+4OiFFUeozAPHESnNppXtbiOyjnY7sQWhOOSVtBgJ7Az8DniS7vrwccf7YzM1pKYpiSy/gWOB/ZPcAqLUpwBXA0cBYB+emFI+BwL7AeYjRsg3qj9vmAOcCo12cnKIoydgOuBRYRPYGrQJMA25DZmq7IgZVUbqyNnAwMtN6GJkRueibTwJfQPbVFEUJjCFIsPTDQAduHhoVZPnxPmTP7iBgTNYnquSK/sAuyDL39cjM3VXfqyBB/heiQf6FRvc0yseGyPLfUcDGHn5/KvBUtzbdgw4lXfoB2yCz/1rbHPfOQEuB25H8oXeiGegLjxqxcrMNEht2OPLA8cW7SDbxF4GXqu1lzCVoFPe0AhsAWyLBwFtV/74Z/iogr0Qcjq4DbkFWAJSSoEZMqTEBicE5CNge/7XmOoCJiGF7GTFsbyKZFGZ71FUW+iCz9o2Q2KkJ1bYF0NejrhrzkHjGW6t/zvUrR/GFGjGlHiOAA4CPIZ5jQ/zKWYO5iEGrGbXa36cjQbCL/EkLht7AcKQ0yXg6DVatrUv+ng8TEceh24AHkRmYUnLy1kmV/NEDmZl9FInf2RF5AOaZZcAsYGa1LUCKhi5CligXVtsSJOXWfGTmV/uzQmfJ+lXVfw/y0HRpIHvR6U3Xh84ZUH86PT8HIvdoILIv1R8YXD22H5LJvS8wCDFaIxD38kHZy0/MLODfSCb5fyFGTFFWQ42YEpV+wG7AHsDOiIEre72yJYireFxayN9s1wfvA48B/0GMVq3qsqI0RI2YkpQ2ZFN/FyQ2bDs0+7dix0TgEcRD9WEkxVmHV0VKcKgRU7JgbWTZcZfqn9uR/yVIJVum0BlS8TTwBLJcqCiJUCOmuKAX4tm2JeKSvXX1Tw1+Lh7twBuIV+mziMF6CjVYSkaoEVN8shadBm0rJJP4BHSPLQTagXfojOt7AQmFeBWpyaUoTlAjpuSNVsTde/PqnxsiwbUbAuPQfIwuqRmqWgjDG13+fAd1cVdygBoxJSTakPil7sat9nf18IvGfCRbyjvIntXkaptUbdOQEANFyS1qxJQi0R/ZZxuNBPGOAUYijiajuv2/Is7oViLZTOZU22wkAHw6Ei83rfrne9X/p2m9lOBRI6aUlVq2iiFIQdFBSJBw/+p/D6x+VvvvAUjg8ACgZ/U7akHGXRnCmuNqKfUT0a5Agq2hM9B6WfX4WvD1wuoxi5EA7EVd/nsuncZqDpozUCkh/w/CiXRT6+JRWQAAAABJRU5ErkJggg==;fontStyle=0" parent="1" vertex="1">
          <mxGeometry x="950" y="-100" width="160" height="90" as="geometry" />
        </mxCell>
        <mxCell id="TmRpnefOOpCRg7lk4vBC-9" value="" style="endArrow=none;html=1;rounded=0;" parent="1" edge="1">
          <mxGeometry width="50" height="50" relative="1" as="geometry">
            <mxPoint x="1180" y="-150" as="sourcePoint" />
            <mxPoint x="880" y="-150" as="targetPoint" />
          </mxGeometry>
        </mxCell>
        <mxCell id="TmRpnefOOpCRg7lk4vBC-10" value="Office" style="text;html=1;align=center;verticalAlign=middle;resizable=0;points=[];autosize=1;strokeColor=none;fillColor=none;fontFamily=Georgia;fontStyle=2;fontSize=28;" parent="1" vertex="1">
          <mxGeometry x="980" y="-200" width="100" height="50" as="geometry" />
        </mxCell>
        <mxCell id="TmRpnefOOpCRg7lk4vBC-12" style="edgeStyle=orthogonalEdgeStyle;rounded=0;orthogonalLoop=1;jettySize=auto;html=1;entryX=0.988;entryY=0.387;entryDx=0;entryDy=0;entryPerimeter=0;endSize=16;" parent="1" source="TmRpnefOOpCRg7lk4vBC-8" target="JUDbLiN2Od7CmGKuxI0P-16" edge="1">
          <mxGeometry relative="1" as="geometry" />
        </mxCell>
        <mxCell id="TmRpnefOOpCRg7lk4vBC-13" value="TCP&lt;font face=&quot;Times New Roman&quot;&gt;80/443&lt;/font&gt;" style="edgeLabel;html=1;align=center;verticalAlign=middle;resizable=0;points=[];fontStyle=2;fontFamily=Georgia;fontSize=18;" parent="TmRpnefOOpCRg7lk4vBC-12" vertex="1" connectable="0">
          <mxGeometry x="-0.2359" y="-4" relative="1" as="geometry">
            <mxPoint x="34" y="4" as="offset" />
          </mxGeometry>
        </mxCell>
        <mxCell id="TmRpnefOOpCRg7lk4vBC-14" value="TIP" style="text;html=1;align=center;verticalAlign=middle;resizable=0;points=[];autosize=1;strokeColor=none;fillColor=none;fontFamily=Georgia;fontStyle=2;fontSize=18;" parent="1" vertex="1">
          <mxGeometry x="360" y="-85" width="50" height="40" as="geometry" />
        </mxCell>
        <mxCell id="7Zm9qxxtv7ryHVOUGnMJ-4" value="" style="endArrow=none;html=1;rounded=0;exitX=0.131;exitY=0;exitDx=0;exitDy=0;exitPerimeter=0;entryX=0.131;entryY=1;entryDx=0;entryDy=0;entryPerimeter=0;" edge="1" parent="1">
          <mxGeometry width="50" height="50" relative="1" as="geometry">
            <mxPoint x="380.00000000000006" y="120" as="sourcePoint" />
            <mxPoint x="380.00000000000006" y="340" as="targetPoint" />
          </mxGeometry>
        </mxCell>
        <mxCell id="7Zm9qxxtv7ryHVOUGnMJ-5" value="BLK BEM" style="text;html=1;align=center;verticalAlign=middle;resizable=0;points=[];autosize=1;strokeColor=none;fillColor=none;fontFamily=Georgia;fontStyle=2;fontSize=36;rotation=-90;" vertex="1" parent="1">
          <mxGeometry x="260" y="200" width="180" height="60" as="geometry" />
        </mxCell>
      </root>
    </mxGraphModel>
  </diagram>
</mxfile>
